<?xml version="1.0" standalone="no"?>
<!DOCTYPE svg PUBLIC "-//W3C//DTD SVG 1.1//EN" "http://www.w3.org/Graphics/SVG/1.1/DTD/svg11.dtd" >
<svg xmlns="http://www.w3.org/2000/svg" xmlns:xlink="http://www.w3.org/1999/xlink" version="1.1">
<metadata>
Created by FontForge 20201107 at Wed Nov 22 18:16:06 2023
 By 
Copyright 2014 The Heebo Project Authors (https://github.com/OdedEzer/heebo)
</metadata>
<defs>
<font id="Heebo-SemiBold" horiz-adv-x="0" >
  <font-face 
    font-family="Heebo SemiBold"
    font-weight="600"
    font-stretch="normal"
    units-per-em="2048"
    panose-1="0 0 0 0 0 0 0 0 0 0"
    ascent="1638"
    descent="-410"
    x-height="1082"
    cap-height="1456"
    bbox="-954 -757 1890 1991"
    underline-thickness="100"
    underline-position="-200"
    unicode-range="U+0020-FB4F"
  />
<missing-glyph horiz-adv-x="1401" 
d="M188 -240v1796h1025v-1796h-1025zM448 -26h505v1368h-505v-1368z" />
    <glyph glyph-name="fi" unicode="fi" horiz-adv-x="1210" 
d="M188 0v1143q0 201 119 307.5t330 106.5q80 0 156 -17t157 -43l-38 -211q-51 17 -113.5 32t-144.5 15q-107 0 -158 -48t-51 -142v-1143h-257zM659 893h-635v189h635v-189zM1071 0h-257v1082h257v-1082z" />
    <glyph glyph-name="f_f" unicode="ff" horiz-adv-x="1455" 
d="M203 0v1183q0 181 103.5 277.5t281.5 96.5q37 0 72 -5t69 -13l-6 -200q-19 4 -42.5 6t-49.5 2q-81 0 -126 -42.5t-45 -121.5v-1183h-257zM680 893h-640v189h640v-189zM930 0v1183q0 181 103.5 277.5t281.5 96.5q37 0 72 -5t69 -13l-6 -200q-19 4 -42.5 6t-49.5 2
q-81 0 -126 -42.5t-45 -121.5v-1183h-257zM1407 893h-640v189h640v-189z" />
    <glyph glyph-name="f_f_i" unicode="ffi" horiz-adv-x="1852" 
d="M203 0v1183q0 181 103.5 277.5t281.5 96.5q37 0 72 -5t69 -13l-6 -200q-19 4 -42.5 6t-49.5 2q-81 0 -126 -42.5t-45 -121.5v-1183h-257zM683 893h-643v189h643v-189zM830 0v1143q0 201 119 307.5t330 106.5q81 0 157 -17t157 -43l-39 -211q-51 17 -113.5 32t-144.5 15
q-107 0 -158 -48t-51 -142v-1143h-257zM1302 893h-636v189h636v-189zM1713 0h-257v1082h257v-1082z" />
    <glyph glyph-name="f_f_l" unicode="ffl" horiz-adv-x="1852" 
d="M203 0v1183q0 181 103.5 277.5t281.5 96.5q37 0 72 -5t69 -13l-6 -200q-19 4 -42.5 6t-49.5 2q-81 0 -126 -42.5t-45 -121.5v-1183h-257zM683 893h-643v189h643v-189zM830 0v1173q0 186 111 285t311 99q41 0 97 -4t120 -10t127.5 -13t116.5 -14l-109 -203q-94 16 -174 25
t-146 9q-96 0 -146.5 -45t-50.5 -129v-1173h-257zM1456 1516h257v-1516h-257v1516zM1307 893h-641v189h641v-189z" />
    <glyph glyph-name="f_l" unicode="fl" horiz-adv-x="1226" 
d="M203 0v1173q0 186 111 285t312 99q40 0 96.5 -4t120.5 -10t127 -13t117 -14l-110 -203q-93 16 -173 25t-147 9q-95 0 -146 -45t-51 -129v-1173h-257zM830 1516h257v-1516h-257v1516zM680 893h-640v189h640v-189z" />
    <glyph glyph-name=".notdef" horiz-adv-x="1401" 
d="M188 -240v1796h1025v-1796h-1025zM448 -26h505v1368h-505v-1368z" />
    <glyph glyph-name=".null" 
 />
    <glyph glyph-name="nonmarkingreturn" horiz-adv-x="682" 
 />
    <glyph glyph-name="space" unicode=" " horiz-adv-x="510" 
 />
    <glyph glyph-name="exclam" unicode="!" horiz-adv-x="549" 
d="M171 436l-28 1020h272l-27 -1020h-217zM281 -15q-68 0 -106.5 40t-38.5 98t38.5 98t106.5 40t107 -40t39 -98t-39 -98t-107 -40z" />
    <glyph glyph-name="quotedbl" unicode="&#x22;" horiz-adv-x="658" 
d="M270 1399l-36 -394h-146v383v148h182v-137zM578 1399l-36 -394h-146v391v140h182v-137z" />
    <glyph glyph-name="numbersign" unicode="#" horiz-adv-x="1235" 
d="M505 1456h170l-265 -1456h-171zM890 1456h172l-266 -1456h-171zM158 878v162h1041v-162h-1041zM83 410v162h1040v-162h-1040z" />
    <glyph glyph-name="dollar" unicode="$" horiz-adv-x="1167" 
d="M592 -21q-90 0 -178 24t-159 78t-114 144.5t-43 222.5h256q0 -75 20.5 -125.5t55 -80t76.5 -42t86 -12.5q72 0 120.5 24.5t73.5 68t25 100.5t-22.5 98.5t-73 75.5t-135.5 64q-129 46 -225 103t-149 141t-53 211q0 123 57 214t159 140t238 49q140 0 242 -55t158 -160.5
t56 -254.5h-256q0 124 -54 192.5t-148 68.5q-67 0 -110.5 -25t-64.5 -69t-21 -100q0 -54 21.5 -94.5t73 -74t140.5 -66.5q130 -48 225 -105.5t147 -141t52 -209.5q0 -130 -60 -220t-166.5 -137t-249.5 -47zM517 -213v269h157v-269h-157zM536 1390v299h158v-299h-158z" />
    <glyph glyph-name="percent" unicode="%" horiz-adv-x="1508" 
d="M462 109l-129 74l711 1138l129 -74zM1111 -21q-100 0 -170 41t-106.5 109t-36.5 150v78q0 82 36.5 150t105.5 109t169 41q101 0 170 -41t105 -109t36 -150v-78q0 -82 -35.5 -150t-104.5 -109t-169 -41zM1111 131q50 0 79 21t41.5 54.5t12.5 72.5v78q0 58 -33.5 103
t-101.5 45t-101.5 -45t-33.5 -103v-78q0 -38 16 -72t47 -55t74 -21zM410 800q-100 0 -169.5 41t-105.5 109t-36 149v77q0 83 36 151t105 109t168 41q101 0 170.5 -41t105.5 -109t36 -151v-77q0 -81 -36 -149t-105 -109t-169 -41zM410 952q46 0 75.5 21t44 54.5t14.5 71.5v77
q0 39 -15 73t-45 55t-76 21q-44 0 -74 -21t-45 -55t-15 -73v-77q0 -38 15 -71.5t45.5 -54.5t75.5 -21z" />
    <glyph glyph-name="ampersand" unicode="&#x26;" horiz-adv-x="1321" 
d="M623 961q63 41 88 80.5t25 93.5q0 50 -38 92.5t-108 42.5q-75 0 -112.5 -47.5t-37.5 -114.5t51 -139.5t127 -161.5l686 -807h-295l-559 655q-109 131 -177.5 233.5t-68.5 214.5q0 115 48 198.5t135 129t204 45.5q111 0 193 -45.5t126.5 -120t44.5 -163.5q0 -68 -25 -125
t-69 -104.5t-102 -90.5l-310 -223q-49 -39 -72.5 -75.5t-31 -68t-7.5 -57.5q0 -61 27 -110.5t78 -78t123 -28.5q81 0 158 37t138.5 105.5t97.5 163t36 208.5h221q0 -162 -48 -299t-160 -235q-7 -5 -16 -15.5t-17 -16.5q-87 -79 -193.5 -116.5t-226.5 -37.5q-146 0 -253 53
t-164.5 145.5t-57.5 213.5q0 89 37 155.5t101 124t148 116.5z" />
    <glyph glyph-name="quotesingle" unicode="'" horiz-adv-x="340" 
d="M269 1401l-27 -392h-166v378v149h193v-135z" />
    <glyph glyph-name="parenleft" unicode="(" horiz-adv-x="714" 
d="M127 591q0 214 47 388t122 305t161.5 217.5t166.5 123.5l50 -145q-57 -43 -113.5 -117.5t-103.5 -183t-75 -254.5t-28 -331v-23q0 -185 28 -331t75 -255t103.5 -185t113.5 -121l-50 -139q-80 38 -166.5 124t-161.5 217t-122 304.5t-47 387.5v18z" />
    <glyph glyph-name="parenright" unicode=")" horiz-adv-x="720" 
d="M596 573q0 -209 -47.5 -382t-123.5 -305.5t-164.5 -220t-170.5 -125.5l-50 139q57 43 113.5 118.5t103.5 185.5t75 256.5t28 331.5v23q0 185 -29 332t-77 256.5t-104 185t-110 117.5l50 140q82 -37 170.5 -125t164.5 -221t123.5 -306t47.5 -382v-18z" />
    <glyph glyph-name="asterisk" unicode="*" horiz-adv-x="914" 
d="M337 970l-309 89l55 171l307 -121l-16 348h183l-17 -354l300 119l56 -174l-315 -89l205 -268l-149 -106l-182 290l-180 -282l-149 104z" />
    <glyph glyph-name="plus" unicode="+" horiz-adv-x="1140" 
d="M1069 572h-998v232h998v-232zM694 146h-246v1060h246v-1060z" />
    <glyph glyph-name="comma" unicode="," horiz-adv-x="469" 
d="M360 57q0 -106 -52.5 -216t-138.5 -182l-136 77q27 45 50.5 91t37.5 99.5t14 119.5v191h225v-180z" />
    <glyph glyph-name="hyphen" unicode="-" horiz-adv-x="719" 
d="M625 519h-539v207h539v-207z" />
    <glyph glyph-name="period" unicode="." horiz-adv-x="578" 
d="M280 -11q-69 0 -108.5 40t-39.5 99q0 60 39.5 100.5t108.5 40.5t108.5 -40.5t39.5 -100.5q0 -59 -39.5 -99t-108.5 -40z" />
    <glyph glyph-name="slash" unicode="/" horiz-adv-x="793" 
d="M194 -125h-197l560 1581h197z" />
    <glyph glyph-name="zero" unicode="0" horiz-adv-x="1167" 
d="M1065 609q0 -225 -59.5 -363.5t-167.5 -202t-253 -63.5q-143 0 -252 63.5t-170 202t-61 363.5v243q0 226 60 363t168.5 199t252.5 62q145 0 253 -62t168.5 -199t60.5 -363v-243zM808 889q0 141 -26 224t-76 120t-123 37q-71 0 -121.5 -37t-77 -120t-26.5 -224v-316
q0 -140 27 -225.5t77.5 -123.5t122.5 -38q73 0 122.5 38t75 123.5t25.5 225.5v316z" />
    <glyph glyph-name="one" unicode="1" horiz-adv-x="1167" 
d="M778 0h-256v1153l-353 -117v214l579 210h30v-1460z" />
    <glyph glyph-name="two" unicode="2" horiz-adv-x="1167" 
d="M1090 0h-983v177l473 512q77 84 120.5 146.5t61.5 112.5t18 97q0 100 -54 162.5t-155 62.5q-78 0 -130.5 -34t-79.5 -93t-27 -135h-256q0 129 59 235.5t170 169.5t268 63q222 0 342 -109t120 -296q0 -93 -39 -182t-108 -178t-158 -183l-301 -322h659v-206z" />
    <glyph glyph-name="three" unicode="3" horiz-adv-x="1167" 
d="M539 844q81 0 134 27.5t79 76.5t26 113t-23.5 111t-71 72.5t-120.5 25.5q-61 0 -110 -23.5t-78 -66.5t-29 -102h-256q0 117 61.5 206.5t167.5 140.5t239 51q142 0 249.5 -46.5t167 -139t59.5 -227.5q0 -65 -29.5 -129t-87 -116.5t-142.5 -84t-196 -31.5h-186v142h146z
M393 782h186q127 0 217.5 -29t148 -80.5t84.5 -119.5t27 -145q0 -136 -65.5 -232t-178 -146t-253.5 -50q-94 0 -181 26t-155.5 77.5t-108.5 129t-40 181.5h257q0 -60 29.5 -107t81.5 -74t121 -27q111 0 174 59t63 164q0 82 -31.5 133.5t-90 75.5t-139.5 24h-146v140z" />
    <glyph glyph-name="four" unicode="4" horiz-adv-x="1167" 
d="M1115 323h-1052l-8 158l621 975h204l-218 -382l-344 -545h797v-206zM938 0h-256v1456h256v-1456z" />
    <glyph glyph-name="five" unicode="5" horiz-adv-x="1167" 
d="M163 721l81 735h793v-217h-581l-38 -341q32 19 91.5 38t133.5 19q139 0 237.5 -58.5t151 -168t52.5 -262.5q0 -132 -52.5 -242.5t-159 -177t-270.5 -66.5q-92 0 -176.5 27t-151.5 80.5t-107.5 131.5t-44.5 179h251q11 -101 71 -156.5t157 -55.5q77 0 127.5 37.5t74.5 103
t24 150.5q0 81 -27.5 143.5t-83.5 98t-140 35.5t-128 -24.5t-80 -59.5z" />
    <glyph glyph-name="six" unicode="6" horiz-adv-x="1167" 
d="M872 1467v-212h-17q-126 0 -218 -37.5t-151.5 -104.5t-88.5 -157.5t-29 -195.5v-234q0 -112 31.5 -187.5t85.5 -113.5t120 -38q71 0 122 37t78.5 102t27.5 148q0 80 -26.5 145.5t-78 104t-125.5 38.5q-71 0 -127 -33t-89 -85t-36 -110l-93 41q8 86 40.5 158.5t87 125
t127 81t159.5 28.5q141 0 232.5 -68.5t137 -180t45.5 -241.5q0 -140 -57.5 -252.5t-164 -179t-256.5 -66.5q-117 0 -209.5 44.5t-156.5 123t-98 182.5t-34 223v103q0 169 43.5 316t133 258t226.5 174t325 63h33z" />
    <glyph glyph-name="seven" unicode="7" horiz-adv-x="1167" 
d="M1081 1314l-575 -1314h-270l575 1250h-744v206h1014v-142z" />
    <glyph glyph-name="eight" unicode="8" horiz-adv-x="1167" 
d="M585 -20q-138 0 -247.5 48t-173 141t-63.5 229q0 121 62.5 211.5t171.5 141t248 50.5t248 -50.5t172 -141t63 -211.5q0 -136 -63 -229t-171.5 -141t-246.5 -48zM585 186q69 0 119.5 27.5t78 78t27.5 121.5q0 70 -28.5 122t-79.5 80.5t-119 28.5q-69 0 -119.5 -28.5
t-78 -80.5t-27.5 -122q0 -71 27.5 -121.5t78.5 -78t121 -27.5zM585 695q-132 0 -234 48t-160 133.5t-58 195.5q0 130 58 220t160 137t233 47t232.5 -47t159.5 -137t58 -220q0 -110 -58 -195.5t-159.5 -133.5t-231.5 -48zM585 851q60 0 103 26t66.5 73.5t23.5 110.5
q0 62 -23.5 109t-67 73.5t-103.5 26.5t-103.5 -25.5t-67 -72t-23.5 -111.5q0 -63 23.5 -110.5t67 -73.5t104.5 -26z" />
    <glyph glyph-name="nine" unicode="9" horiz-adv-x="1167" 
d="M323 204q134 0 225 33.5t145.5 95t78.5 146.5t24 186v263q0 112 -31 188t-83 114.5t-115 38.5q-70 0 -120 -41.5t-76 -109t-26 -147.5q0 -78 24.5 -145.5t75 -108.5t125.5 -41q53 0 98 20.5t77.5 55t52 77.5t21.5 89l95 -38q0 -73 -31 -145t-86 -130.5t-127.5 -93
t-156.5 -34.5q-139 0 -233 67t-141.5 178t-47.5 243q0 141 57 257t164 185t256 69q116 0 206.5 -44.5t152 -125t93.5 -188t32 -234.5v-89q0 -134 -24.5 -254.5t-77.5 -221t-138 -174.5t-205.5 -114.5t-280.5 -40.5h-22v214h19z" />
    <glyph glyph-name="colon" unicode=":" horiz-adv-x="553" 
d="M275 -11q-69 0 -108.5 40t-39.5 99q0 60 39.5 100.5t108.5 40.5t108.5 -40.5t39.5 -100.5q0 -59 -39.5 -99t-108.5 -40zM275 829q-69 0 -108.5 40t-39.5 99q0 60 39.5 100.5t108.5 40.5t108.5 -40.5t39.5 -100.5q0 -59 -39.5 -99t-108.5 -40z" />
    <glyph glyph-name="semicolon" unicode=";" horiz-adv-x="504" 
d="M256 829q-69 0 -108.5 40t-39.5 99q0 60 39.5 100.5t108.5 40.5t108.5 -40.5t39.5 -100.5q0 -59 -39.5 -99t-108.5 -40zM379 57q0 -106 -52.5 -216t-138.5 -182l-136 77q27 45 50.5 91t37.5 99.5t14 119.5v191h225v-180z" />
    <glyph glyph-name="less" unicode="&#x3c;" horiz-adv-x="1140" 
d="M993 409v-253l-846 370v172l194 -46zM342 602l-195 -42v172l846 370v-252z" />
    <glyph glyph-name="equal" unicode="=" horiz-adv-x="1140" 
d="M1007 769h-874v211h874v-211zM1007 342h-874v211h874v-211z" />
    <glyph glyph-name="greater" unicode="&#x3e;" horiz-adv-x="1140" 
d="M137 852v249l866 -368v-173l-203 52zM801 653l202 45v-171l-866 -370v250z" />
    <glyph glyph-name="question" unicode="?" horiz-adv-x="1004" 
d="M350 435q1 93 16 157.5t49.5 117t93.5 108.5q46 43 82.5 81.5t58 81t21.5 97.5q0 90 -44.5 138t-130.5 48q-70 0 -126.5 -42.5t-57.5 -136.5h-257q2 130 60.5 217t158 130.5t222.5 43.5q204 0 317.5 -101.5t113.5 -286.5q0 -88 -34.5 -158t-90.5 -130.5t-121 -121.5
q-57 -50 -76 -108t-21 -135h-234zM473 -11q-67 0 -106 39t-39 97q0 59 39 98.5t106 39.5q68 0 107 -39.5t39 -98.5q0 -58 -39 -97t-107 -39z" />
    <glyph glyph-name="at" unicode="@" horiz-adv-x="1834" 
d="M891 -453q-260 0 -442.5 108t-274 314t-80.5 499q9 206 73.5 379.5t178 302.5t270 200t349.5 71q260 0 437 -111t264.5 -312.5t76.5 -472.5q-4 -98 -29.5 -195t-76.5 -176.5t-130.5 -127t-192.5 -47.5q-134 0 -205.5 90t-59.5 243l51 570h185l-51 -570q-6 -57 2 -93.5
t25.5 -56.5t39.5 -27.5t45 -7.5q70 0 120.5 52.5t80 142t32.5 199.5q12 229 -51 396.5t-203.5 259t-363.5 91.5q-206 0 -356 -103t-234.5 -283.5t-95.5 -413.5q-9 -183 28.5 -325t117.5 -240t199.5 -148t274.5 -50q88 0 178.5 20t152.5 52l39 -141q-70 -45 -175 -67
t-199 -22zM810 -19q-98 0 -165.5 55.5t-97.5 156t-18 233.5q18 173 83 299.5t162 195.5t209 69q114 0 178.5 -32.5t123.5 -75.5l-97 -128q-30 27 -76.5 51.5t-110.5 24.5q-75 0 -131 -46t-91 -135.5t-47 -222.5q-8 -89 5.5 -151t47.5 -94t86 -32q32 0 68.5 21t71 72.5
t57.5 141.5l79 -93q-46 -153 -136 -231.5t-201 -78.5z" />
    <glyph glyph-name="A" unicode="A" horiz-adv-x="1366" 
d="M295 0h-281l547 1456h177l-18 -217zM646 1239l-20 217h178l549 -1456h-281zM1056 326h-790v216h790v-216z" />
    <glyph glyph-name="B" unicode="B" horiz-adv-x="1297" 
d="M327 650v193h318q121 0 185.5 51.5t64.5 146.5q0 106 -61.5 153t-190.5 47h-234v-1241h-266v1456h500q243 0 380.5 -95.5t137.5 -299.5q0 -90 -42.5 -165t-128.5 -122.5t-214 -54.5l-80 -69h-369zM244 0l118 214h323q122 0 183 59.5t61 153.5q0 69 -24 119t-75 77
t-134 27h-285v193h369l60 -74q123 -2 201.5 -50.5t116 -126t37.5 -166.5q0 -210 -135 -318t-375 -108h-441z" />
    <glyph glyph-name="C" unicode="C" horiz-adv-x="1338" 
d="M1263 478q-11 -144 -80 -257t-193 -177t-302 -64q-181 0 -314 84.5t-205 240.5t-72 367v111q0 212 73.5 367.5t208.5 240.5t317 85q177 0 298.5 -64.5t188.5 -179t81 -261.5h-266q-14 137 -80.5 212.5t-221.5 75.5q-109 0 -182.5 -54t-110.5 -159.5t-37 -260.5v-113
q0 -148 33 -254.5t104 -163.5t185 -57q104 0 168 32t97.5 94.5t43.5 154.5h266z" />
    <glyph glyph-name="D" unicode="D" horiz-adv-x="1336" 
d="M260 0v214h311q131 0 219.5 57t133.5 164t45 257v74q0 154 -45 259.5t-132 160.5t-213 55h-325v215h325q195 0 343 -86t231.5 -241.5t83.5 -364.5v-72q0 -209 -83.5 -364.5t-233 -241.5t-349.5 -86h-311zM409 0h-266v1456h266v-1456z" />
    <glyph glyph-name="E" unicode="E" horiz-adv-x="1156" 
d="M1102 0h-769v214h769v-214zM409 0h-266v1456h266v-1456zM1002 645h-669v210h669v-210zM1098 1241h-765v215h765v-215z" />
    <glyph glyph-name="F" unicode="F" horiz-adv-x="1126" 
d="M409 0h-266v1456h266v-1456zM995 611h-653v214h653v-214zM1076 1241h-734v215h734v-215z" />
    <glyph glyph-name="G" unicode="G" horiz-adv-x="1395" 
d="M1271 187q-32 -41 -98 -89t-175 -83t-271 -35q-184 0 -325 82t-220 239t-79 379v96q0 222 73.5 379t208.5 239t320 82q183 0 302 -60t183 -166.5t80 -244.5h-261q-11 76 -44.5 133.5t-95 90.5t-158.5 33q-112 0 -187.5 -56.5t-113 -164.5t-37.5 -263v-98q0 -157 43 -265
t125 -164.5t198 -56.5q82 0 134 13.5t83.5 33t47.5 36.5v276h-292v200h559v-566z" />
    <glyph glyph-name="H" unicode="H" horiz-adv-x="1452" 
d="M1105 640h-764v215h764v-215zM409 0h-266v1456h266v-1456zM1307 0h-266v1456h266v-1456z" />
    <glyph glyph-name="I" unicode="I" horiz-adv-x="585" 
d="M426 0h-266v1456h266v-1456z" />
    <glyph glyph-name="J" unicode="J" horiz-adv-x="1140" 
d="M737 1456h266v-1015q0 -145 -62 -248t-170.5 -158t-246.5 -55q-139 0 -247.5 47.5t-170 145.5t-61.5 248h267q0 -124 58 -175.5t154 -51.5q63 0 111 29t75 83.5t27 134.5v1015z" />
    <glyph glyph-name="K" unicode="K" horiz-adv-x="1295" 
d="M409 0h-266v1456h266v-1456zM697 747l-337 -358l-47 265l235 302l409 500h326zM528 682l186 179l594 -861h-317z" />
    <glyph glyph-name="L" unicode="L" horiz-adv-x="1107" 
d="M1063 0h-730v214h730v-214zM409 0h-266v1456h266v-1456z" />
    <glyph glyph-name="M" unicode="M" horiz-adv-x="1793" 
d="M489 1456l407 -1099l405 1099h235l-547 -1456h-187l-548 1456h235zM369 1456l40 -1003v-453h-266v1456h226zM1649 1456v-1456h-267v453l40 1003h227z" />
    <glyph glyph-name="N" unicode="N" horiz-adv-x="1451" 
d="M1307 0h-267l-631 1012v-1012h-266v1456h266l633 -1014v1014h265v-1456z" />
    <glyph glyph-name="O" unicode="O" horiz-adv-x="1413" 
d="M1315 691q0 -221 -76.5 -380.5t-213 -245t-317.5 -85.5q-179 0 -317.5 85.5t-216.5 245t-78 380.5v73q0 221 77.5 380.5t215.5 245.5t317 86q181 0 318 -86t214 -245.5t77 -380.5v-73zM1047 766q0 160 -40.5 268.5t-116.5 164.5t-184 56q-107 0 -183.5 -56t-117 -164.5
t-40.5 -268.5v-75q0 -159 41 -268.5t118 -166t184 -56.5q108 0 184 56.5t115.5 166t39.5 268.5v75z" />
    <glyph glyph-name="P" unicode="P" horiz-adv-x="1313" 
d="M327 532v215h375q95 0 153.5 30.5t86 84.5t27.5 123q0 67 -27.5 125.5t-86 94.5t-153.5 36h-293v-1241h-266v1456h559q170 0 289.5 -60.5t183 -166t63.5 -242.5q0 -141 -63.5 -243t-183 -157t-289.5 -55h-375z" />
    <glyph glyph-name="Q" unicode="Q" horiz-adv-x="1413" 
d="M1308 -103l-172 -153l-381 306l165 155zM1311 691q0 -221 -76 -380.5t-213 -245t-319 -85.5q-178 0 -316.5 85.5t-216.5 245t-78 380.5v73q0 221 77.5 380.5t215.5 245.5t316 86q182 0 319.5 -86t214 -245.5t76.5 -380.5v-73zM1043 766q0 160 -40.5 268.5t-116.5 164.5
t-185 56q-106 0 -182.5 -56t-117 -164.5t-40.5 -268.5v-75q0 -159 41 -268.5t118 -166t183 -56.5q109 0 184.5 56.5t115.5 166t40 268.5v75z" />
    <glyph glyph-name="R" unicode="R" horiz-adv-x="1291" 
d="M665 1456q167 0 285.5 -50t181 -148t62.5 -241q0 -112 -39.5 -195t-112.5 -139t-173 -88l-81 -43h-462v215h340q88 0 146 30t86.5 83t28.5 121q0 110 -63 175t-199 65h-256v-1241h-266v1456h522zM628 654h281l343 -640v-14h-286z" />
    <glyph glyph-name="S" unicode="S" horiz-adv-x="1245" 
d="M649 -20q-106 0 -208 28.5t-185.5 86.5t-133 145.5t-49.5 206.5h267q0 -69 23.5 -117.5t65.5 -79.5t98 -45t122 -14q86 0 142 24t84.5 66t28.5 97q0 57 -24 97.5t-89.5 76t-190.5 73.5q-102 31 -189.5 71t-153.5 93t-102.5 122.5t-36.5 161.5q0 119 66.5 210t184.5 142
t272 51q164 0 282.5 -59.5t182.5 -160.5t64 -226h-267q0 68 -28.5 121t-87 82.5t-149.5 29.5q-85 0 -141.5 -25t-84 -68t-27.5 -97q0 -53 33.5 -93t101.5 -72.5t169 -63.5q162 -47 269 -110.5t160 -150t53 -203.5q0 -124 -64.5 -214t-181.5 -138t-276 -48z" />
    <glyph glyph-name="T" unicode="T" horiz-adv-x="1252" 
d="M757 0h-265v1456h265v-1456zM1209 1241h-1165v215h1165v-215z" />
    <glyph glyph-name="U" unicode="U" horiz-adv-x="1341" 
d="M1220 1456v-968q0 -167 -72.5 -280t-196.5 -170.5t-279 -57.5q-158 0 -282.5 57.5t-195 170.5t-70.5 280v968h266v-968q0 -102 34 -166.5t97.5 -96t150.5 -31.5q88 0 150.5 31.5t96.5 96t34 166.5v968h267z" />
    <glyph glyph-name="V" unicode="V" horiz-adv-x="1329" 
d="M1021 1456h295l-518 -1456h-199l50 282zM678 282l52 -282h-199l-516 1456h293z" />
    <glyph glyph-name="W" unicode="W" horiz-adv-x="1800" 
d="M794 1456h157l-5 -259l-308 -1197h-165l33 291zM543 296l10 -296h-177l-332 1456h265zM1498 1456h266l-332 -1456h-177l13 300zM1304 287l31 -287h-165l-304 1197l-3 259h155z" />
    <glyph glyph-name="X" unicode="X" horiz-adv-x="1297" 
d="M650 937l296 519h308l-435 -722l445 -734h-310l-304 529l-306 -529h-309l446 734l-436 722h308z" />
    <glyph glyph-name="Y" unicode="Y" horiz-adv-x="1255" 
d="M627 776l326 680h294l-486 -922v-534h-269v534l-486 922h295z" />
    <glyph glyph-name="Z" unicode="Z" horiz-adv-x="1237" 
d="M1170 0h-1014v214h1014v-214zM259 0h-181v166l894 1290h177v-161zM1052 1241h-970v215h970v-215z" />
    <glyph glyph-name="bracketleft" unicode="[" horiz-adv-x="562" 
d="M544 1485h-159v-1616h159v-199h-416v2014h416v-199z" />
    <glyph glyph-name="backslash" unicode="\" horiz-adv-x="857" 
d="M14 1456h256l608 -1581h-257z" />
    <glyph glyph-name="bracketright" unicode="]" horiz-adv-x="562" 
d="M12 1684h416v-2014h-416v199h160v1616h-160v199z" />
    <glyph glyph-name="asciicircum" unicode="^" horiz-adv-x="1140" 
d="M391 729h-211l299 727h147l-46 -237zM561 1219l-46 237h147l299 -727h-212z" />
    <glyph glyph-name="underscore" unicode="_" horiz-adv-x="919" 
d="M915 -202h-913v202h913v-202z" />
    <glyph glyph-name="grave" unicode="`" horiz-adv-x="643" 
d="M563 1198h-212l-271 303h288z" />
    <glyph glyph-name="a" unicode="a" horiz-adv-x="1104" 
d="M723 730q0 82 -44.5 130.5t-136.5 48.5q-55 0 -95.5 -18.5t-62.5 -50.5t-22 -74h-256q0 89 55.5 165.5t156.5 123.5t238 47q123 0 218.5 -41.5t150.5 -124.5t55 -208v-474q0 -79 11 -136.5t31 -100.5v-17h-261q-19 40 -28.5 103t-9.5 124v503zM760 503h-166
q-128 0 -192 -48.5t-64 -128.5q0 -62 42.5 -103t119.5 -41q72 0 125 29t83 70.5t31 78.5l79 -114q-13 -40 -41 -86t-73.5 -87t-108.5 -67t-146 -26q-105 0 -188.5 42t-131 115.5t-47.5 165.5q0 172 128.5 264.5t367.5 92.5h182v-157z" />
    <glyph glyph-name="b" unicode="b" horiz-adv-x="1152" 
d="M657 -20q-136 0 -223.5 69t-136 189t-66.5 273v59q18 157 66.5 276.5t135.5 187.5t222 68q140 0 234 -70t141 -194.5t47 -285.5v-21q0 -161 -47 -285.5t-141 -195t-232 -70.5zM121 0v1536h256v-1298l-25 -238h-231zM592 189q88 0 137.5 45t70.5 122.5t21 174.5v21
q0 92 -20.5 170t-70.5 124.5t-140 46.5q-61 0 -105.5 -20.5t-74.5 -57.5t-46.5 -87t-21.5 -108v-159q8 -76 35.5 -138t80 -98t134.5 -36z" />
    <glyph glyph-name="c" unicode="c" horiz-adv-x="1071" 
d="M569 -20q-166 0 -276 73.5t-164 197t-54 273.5v33q0 151 54.5 274.5t164 197t274.5 73.5q131 0 230.5 -51.5t155.5 -144t58 -217.5h-241q-2 57 -27 104t-70.5 75t-109.5 28q-93 0 -143.5 -49t-70 -126.5t-19.5 -163.5v-33q0 -86 19 -163.5t70 -126t146 -48.5
q57 0 102.5 22.5t73 62.5t29.5 93h241q-2 -108 -62 -195t-159.5 -138t-221.5 -51z" />
    <glyph glyph-name="d" unicode="d" horiz-adv-x="1156" 
d="M499 -20q-131 0 -226 71.5t-146 195.5t-51 282v21q0 164 51 288.5t146 194t228 69.5q131 0 218.5 -68.5t138 -189t67.5 -278.5v-59q-17 -152 -67 -271t-138 -187.5t-221 -68.5zM564 190q80 0 131.5 35t80 95t38.5 136v160q-6 60 -23.5 111t-47 88t-73.5 57.5t-104 20.5
q-84 0 -135.5 -46t-75 -124t-23.5 -173v-21q0 -94 23 -171t74 -122.5t135 -45.5zM799 0l-25 229v1307h257v-1536h-232z" />
    <glyph glyph-name="e" unicode="e" horiz-adv-x="1101" 
d="M604 -20q-163 0 -280.5 69.5t-181 188.5t-63.5 265v41q0 168 64 293.5t176 195t255 69.5q156 0 259.5 -67.5t155.5 -187t52 -276.5v-110h-841v182h588v20q-2 62 -24 115t-68.5 85.5t-122.5 32.5q-79 0 -131.5 -44t-79 -123t-26.5 -185v-41q0 -90 33.5 -162t97 -113.5
t152.5 -41.5q85 0 152.5 33.5t116.5 96.5l133 -135q-51 -76 -154.5 -138.5t-262.5 -62.5z" />
    <glyph glyph-name="f" unicode="f" horiz-adv-x="727" 
d="M203 0v1183q0 181 103.5 277.5t281.5 96.5q37 0 72 -5t69 -13l-6 -200q-19 4 -42.5 6t-49.5 2q-81 0 -126 -42.5t-45 -121.5v-1183h-257zM680 893h-640v189h640v-189z" />
    <glyph glyph-name="g" unicode="g" horiz-adv-x="1163" 
d="M543 -426q-63 0 -138.5 17.5t-146 56.5t-118.5 101l118 155q56 -65 125.5 -97t146.5 -32q120 0 188 65.5t68 188.5v806l25 247h232v-1049q0 -147 -63 -250t-176 -156t-261 -53zM511 -20q-133 0 -230 71.5t-150 195.5t-53 282v21q0 164 52.5 288.5t150.5 194t232 69.5
q107 0 181.5 -39t123.5 -110.5t77 -170t42 -216.5v-59q-18 -152 -67 -271t-136.5 -187.5t-222.5 -68.5zM576 190q83 0 135 35t81 95t39 136v160q-6 60 -23 111t-47.5 88t-76 57.5t-106.5 20.5q-84 0 -138 -46t-80 -124t-26 -173v-21q0 -94 25.5 -171t79 -122.5t137.5 -45.5z
" />
    <glyph glyph-name="h" unicode="h" horiz-adv-x="1140" 
d="M373 0h-257v1536h257v-1536zM249 578q1 152 53.5 270t147 186t220.5 68q107 0 186.5 -40.5t123.5 -130.5t44 -240v-691h-257v693q0 75 -21.5 118.5t-63 62.5t-101.5 19q-64 0 -111 -24t-78.5 -67t-47 -100t-15.5 -123z" />
    <glyph glyph-name="i" unicode="i" horiz-adv-x="535" 
d="M267 1499q68 0 107 -38.5t39 -96.5t-39 -96.5t-107 -38.5t-106.5 38.5t-38.5 96.5t38.5 96.5t106.5 38.5zM396 0h-257v1082h257v-1082z" />
    <glyph glyph-name="j" unicode="j" horiz-adv-x="552" 
d="M390 1082v-1165q0 -171 -87.5 -262.5t-252.5 -91.5q-33 0 -68 4.5t-67 12.5v203q22 -4 45 -6.5t45 -2.5q62 0 95 33.5t33 109.5v1165h257zM261 1193q-68 0 -106.5 38.5t-38.5 95.5q0 59 38.5 97.5t106.5 38.5t107 -38.5t39 -97.5q0 -57 -39 -95.5t-107 -38.5z" />
    <glyph glyph-name="k" unicode="k" horiz-adv-x="1077" 
d="M378 0h-257v1536h257v-1536zM582 555l-260 -264l-72 209l197 247l295 335h308zM454 503l165 173l471 -676h-297z" />
    <glyph glyph-name="l" unicode="l" horiz-adv-x="529" 
d="M393 0h-257v1536h257v-1536z" />
    <glyph glyph-name="m" unicode="m" horiz-adv-x="1780" 
d="M377 0h-257v1082h242l15 -221v-861zM252 578q0 152 48.5 270t144.5 186t238 68q147 0 241 -89t94 -292v-721h-256v696q0 75 -22.5 118t-64.5 61t-99 18q-64 0 -109.5 -24t-74.5 -67t-42.5 -100t-13.5 -123zM886 610q0 135 48 247t142 178.5t232 66.5q109 0 188 -40.5
t121.5 -129.5t42.5 -235v-697h-257v698q0 78 -22.5 120t-64 58.5t-97.5 16.5q-55 0 -95.5 -20t-68 -55.5t-41.5 -83t-14 -102.5z" />
    <glyph glyph-name="n" unicode="n" horiz-adv-x="1142" 
d="M373 0h-256v1082h241l15 -231v-851zM250 578q1 158 54.5 275.5t150.5 183t226 65.5q104 0 181 -39.5t119.5 -128.5t42.5 -239v-695h-257v697q0 74 -21 117t-62.5 61t-101.5 18q-61 0 -107.5 -24t-79 -67t-49 -100t-16.5 -123z" />
    <glyph glyph-name="o" unicode="o" horiz-adv-x="1162" 
d="M75 551q0 158 60 282t172.5 196.5t271.5 72.5q161 0 275 -72.5t173.5 -196.5t59.5 -282v-21q0 -157 -59.5 -281.5t-173 -196.5t-273.5 -72t-273 72t-173 196.5t-60 281.5v21zM331 530q0 -94 26 -172.5t81 -125t143 -46.5t143 46.5t80.5 125t25.5 172.5v21
q0 93 -25.5 171.5t-81 126t-144.5 47.5q-87 0 -142 -47.5t-80.5 -126t-25.5 -171.5v-21z" />
    <glyph glyph-name="p" unicode="p" horiz-adv-x="1152" 
d="M656 -20q-102 0 -177 38.5t-126.5 108.5t-82.5 164.5t-45 206.5v70q18 158 68 278t138.5 188t222.5 68q137 0 231 -69t142.5 -192.5t48.5 -288.5v-21q0 -158 -48.5 -282.5t-142 -196.5t-229.5 -72zM121 -416v1498h236l20 -208v-1290h-256zM586 186q84 0 135.5 47
t75 125.5t23.5 172.5v21q0 96 -24 173t-76 122.5t-136 45.5q-62 0 -106 -20t-73.5 -56.5t-46 -87t-22.5 -111.5v-170q11 -73 38 -132.5t78.5 -94.5t133.5 -35z" />
    <glyph glyph-name="q" unicode="q" horiz-adv-x="1160" 
d="M501 -20q-135 0 -230 72t-145 196t-50 282v21q0 164 50 288.5t145.5 193.5t231.5 69q134 0 222 -68t137.5 -188.5t67.5 -277.5v-60q-14 -114 -44.5 -210.5t-82 -167.5t-126.5 -110.5t-176 -39.5zM566 186q83 0 135 36.5t80 98t38 137.5v159q-6 61 -22.5 111.5t-47 88.5
t-75 58.5t-106.5 20.5q-84 0 -136 -46.5t-76 -125t-24 -173.5v-21q0 -94 23.5 -172t75.5 -125t135 -47zM773 -416v1281l30 217h227v-1498h-257z" />
    <glyph glyph-name="r" unicode="r" horiz-adv-x="730" 
d="M377 0h-256v1082h243l13 -218v-864zM702 845q-23 4 -49.5 6t-51.5 2q-81 0 -135 -28.5t-81.5 -82t-32.5 -127.5l-57 4q0 137 36 246.5t107.5 173t178.5 63.5q21 0 47 -3.5t40 -9.5z" />
    <glyph glyph-name="s" unicode="s" horiz-adv-x="1055" 
d="M528 -20q-149 0 -251.5 53.5t-155 136.5t-52.5 171h246q4 -62 35.5 -100.5t80 -55.5t101.5 -17q62 0 104 16.5t63.5 45t21.5 66.5q0 34 -17.5 61t-67 50t-145.5 43q-114 24 -201 64t-136.5 103.5t-49.5 154.5q0 89 51 164t146 120.5t225 45.5q137 0 235.5 -45.5
t151.5 -123t53 -176.5h-256q0 64 -46 110.5t-139 46.5q-56 0 -95 -18t-58 -47.5t-19 -64.5q0 -34 19.5 -59.5t66.5 -45t131 -37.5q122 -25 212.5 -64.5t140 -104t49.5 -165.5q0 -95 -54.5 -169.5t-154.5 -116.5t-235 -42z" />
    <glyph glyph-name="t" unicode="t" horiz-adv-x="685" 
d="M627 893h-617v189h617v-189zM437 1347v-1037q0 -49 14 -74.5t39.5 -34.5t60.5 -9q25 0 48 3t36 6v-197q-31 -10 -71 -17t-93 -7q-85 0 -151 30.5t-102.5 98.5t-36.5 181v1057h256z" />
    <glyph glyph-name="u" unicode="u" horiz-adv-x="1141" 
d="M766 1082h257v-1082h-242l-15 256v826zM884 484q0 -145 -43 -259t-134 -179.5t-234 -65.5q-160 0 -259 94t-99 309v699h256v-701q0 -73 22.5 -114.5t61 -59t84.5 -17.5q99 0 156 38.5t81.5 105t24.5 148.5z" />
    <glyph glyph-name="v" unicode="v" horiz-adv-x="1022" 
d="M732 1082h266l-372 -1082h-165l15 200zM547 198l11 -198h-164l-375 1082h267z" />
    <glyph glyph-name="w" unicode="w" horiz-adv-x="1516" 
d="M661 1082h163l-44 -275l-247 -807h-143l26 254zM470 252l13 -252h-162l-288 1082h249zM1230 1082h249l-288 -1082h-162l19 262zM1094 262l28 -262h-144l-249 807l-43 275h165z" />
    <glyph glyph-name="x" unicode="x" horiz-adv-x="1034" 
d="M517 737l200 345h280l-323 -531l335 -551h-279l-211 362l-210 -362h-281l335 551l-322 531h280z" />
    <glyph glyph-name="y" unicode="y" horiz-adv-x="1009" 
d="M725 1082h273l-432 -1246q-15 -40 -39.5 -87t-63 -89.5t-96.5 -69.5t-140 -27q-22 0 -42.5 2.5t-39.5 6.5t-38 9v197q9 -1 23 -2t23 -1q89 0 133.5 31t69.5 105l78 209zM533 287l44 -278l-177 -35l-390 1108h276z" />
    <glyph glyph-name="z" unicode="z" horiz-adv-x="1034" 
d="M964 0h-808v206h808v-206zM247 0h-168v163l695 919h170v-158zM848 875h-756v207h756v-207z" />
    <glyph glyph-name="braceleft" unicode="{" horiz-adv-x="682" 
d="M652 1452q-100 -34 -136.5 -121t-36.5 -199v-204q0 -101 -43.5 -183t-137 -130.5t-244.5 -48.5v145q100 0 144 59t44 158v204q0 105 33 196.5t111 161t215 107.5zM601 -362q-137 39 -215 108.5t-111 161t-33 196.5v204q0 98 -44 157t-144 59v146q151 0 244.5 -48.5
t137 -130t43.5 -183.5v-204q0 -112 36.5 -198.5t136.5 -120.5z" />
    <glyph glyph-name="bar" unicode="|" horiz-adv-x="514" 
d="M342 -270h-168v1726h168v-1726z" />
    <glyph glyph-name="braceright" unicode="}" horiz-adv-x="682" 
d="M80 1597q138 -38 216 -107.5t110.5 -161t32.5 -196.5v-204q0 -100 44.5 -158.5t144.5 -58.5v-140q-151 0 -244.5 47t-137.5 128t-44 182v204q0 112 -36 199t-136 121zM30 -215q100 34 136 120.5t36 198.5v204q0 102 44 182t137.5 127t244.5 47v-140q-100 0 -144.5 -59
t-44.5 -157v-204q0 -105 -32.5 -196.5t-110.5 -161t-216 -108.5z" />
    <glyph glyph-name="asciitilde" unicode="~" horiz-adv-x="1300" 
d="M1210 788q0 -118 -42 -209t-116.5 -142.5t-171.5 -51.5q-83 0 -147.5 33t-137.5 101q-45 42 -84 65t-83 23q-65 0 -102.5 -51.5t-37.5 -134.5l-198 2q0 120 41.5 209t116 138t170.5 49q83 0 150.5 -34t137.5 -100q45 -43 83.5 -65.5t80.5 -22.5q65 0 105.5 54.5
t40.5 137.5z" />
    <glyph glyph-name="uni00A0" unicode="&#xa0;" horiz-adv-x="510" 
 />
    <glyph glyph-name="exclamdown" unicode="&#xa1;" horiz-adv-x="554" 
d="M144 -367l27 1021h217l27 -1021h-271zM278 826q-68 0 -107 40.5t-39 98.5t39 97t107 39t106 -39t38 -97t-38 -98.5t-106 -40.5z" />
    <glyph glyph-name="cent" unicode="&#xa2;" horiz-adv-x="1160" 
d="M690 1027h-197v291h197v-291zM690 -245h-197v290h197v-290zM595 -20q-166 0 -276 73.5t-164 197t-54 273.5v33q0 151 54.5 274.5t164 197t274.5 73.5q131 0 230.5 -51.5t155.5 -144t58 -217.5h-241q-2 57 -27 104t-70.5 75t-109.5 28q-93 0 -143.5 -49t-70 -126.5
t-19.5 -163.5v-33q0 -86 19 -163.5t70 -126t146 -48.5q57 0 102.5 22.5t73 62.5t29.5 93h241q-2 -108 -62 -195t-159.5 -138t-221.5 -51z" />
    <glyph glyph-name="sterling" unicode="&#xa3;" horiz-adv-x="1209" 
d="M100 0v214h1051v-214h-1051zM96 591v210h735v-210h-735zM534 427q1 -97 -36 -170.5t-124 -118.5l-187 76q33 9 49.5 41.5t22.5 76t6 83.5l-20 624q0 138 57.5 235.5t159.5 149.5t234 52q211 0 326 -112.5t115 -295.5h-257q0 71 -26.5 113t-69.5 61t-94 19q-76 0 -128 -56
t-52 -166z" />
    <glyph glyph-name="currency" unicode="&#xa4;" horiz-adv-x="1432" 
d="M719 -20q-123 0 -231 48t-189.5 133.5t-128 199.5t-46.5 247t46.5 247t128 199t189.5 132.5t231 47.5t231 -47.5t190 -132.5t128 -199t46 -247t-46 -247t-128 -199.5t-190 -133.5t-231 -48zM228 -26l-139 142l202 205l139 -141zM719 164q86 0 161 34t131.5 95t88.5 142
t32 173q0 93 -32 173.5t-88.5 141t-131.5 94t-161 33.5q-85 0 -160 -33.5t-131.5 -94t-89 -141t-32.5 -173.5q0 -92 32.5 -173t89 -142t131.5 -95t160 -34zM1216 -27l-202 206l139 142l202 -205zM291 916l-202 206l139 142l202 -206zM1153 916l-139 143l202 206l139 -143z
" />
    <glyph glyph-name="yen" unicode="&#xa5;" horiz-adv-x="1091" 
d="M974 582h-874v158h874v-158zM974 293h-874v157h874v-157zM798 1456h281l-414 -884h-153l-34 124zM619 688l-39 -116h-152l-416 884h283zM675 0h-266v765h266v-765z" />
    <glyph glyph-name="brokenbar" unicode="&#xa6;" horiz-adv-x="509" 
d="M134 -270v794h237v-794h-237zM371 698h-237v758h237v-758z" />
    <glyph glyph-name="section" unicode="&#xa7;" horiz-adv-x="1277" 
d="M686 264q109 0 169 50.5t60 130.5q0 52 -28.5 89t-96.5 69t-189 68q-148 41 -254 92t-163 130.5t-57 206.5q0 114 63 198.5t177.5 131.5t269.5 47q238 0 374.5 -110.5t136.5 -318.5h-257q0 62 -28.5 112t-85 80t-140.5 30q-132 0 -192.5 -49.5t-60.5 -118.5q0 -54 25 -89
t92 -63.5t192 -61.5q151 -40 258 -91.5t162.5 -130t55.5 -201.5q0 -163 -131.5 -249.5t-351.5 -86.5v135zM561 738q-109 0 -159.5 -50.5t-50.5 -127.5q0 -56 25 -93t92 -67t193 -67q152 -41 258 -91.5t162 -130t56 -206.5q0 -179 -139 -275.5t-369 -96.5q-100 0 -195.5 21
t-173 69.5t-123.5 130t-46 201.5l257 1q0 -64 24.5 -105.5t65.5 -66t91 -34.5t100 -10q122 0 186.5 45.5t64.5 117.5q0 50 -27.5 84.5t-95.5 65t-188 64.5q-148 40 -254.5 91.5t-163.5 130.5t-57 201q0 158 127.5 247.5t339.5 89.5v-139z" />
    <glyph glyph-name="dieresis" unicode="&#xa8;" horiz-adv-x="888" 
d="M678 1204q-58 0 -93.5 34.5t-35.5 85.5q0 50 35.5 85t93.5 35t94 -35t36 -85q0 -51 -36 -85.5t-94 -34.5zM210 1204q-59 0 -94.5 34.5t-35.5 85.5q0 50 35.5 85t94.5 35q58 0 93.5 -35t35.5 -85q0 -51 -35.5 -85.5t-93.5 -34.5z" />
    <glyph glyph-name="copyright" unicode="&#xa9;" horiz-adv-x="1607" 
d="M798 -21q-147 0 -275.5 57t-226.5 159.5t-153 238.5t-55 295t55 295t153 237.5t226.5 158t275.5 56.5t275.5 -56.5t226 -158t152.5 -237.5t55 -295t-55 -295t-152.5 -238.5t-226 -159.5t-275.5 -57zM784 283q-161 0 -255 107.5t-94 279.5v118q0 172 94 279.5t255 107.5
q154 0 244.5 -78.5t90.5 -235.5h-153q0 97 -46.5 139t-135.5 42q-64 0 -108 -32.5t-66 -89.5t-22 -131v-119q0 -113 49.5 -183.5t146.5 -70.5q89 0 135 41t46 140h153q0 -157 -90 -235.5t-244 -78.5zM798 103q122 0 228.5 47.5t187.5 132.5t126.5 199.5t45.5 246.5
q0 133 -45.5 246.5t-126.5 198t-187.5 132t-228.5 47.5t-229 -47.5t-188.5 -132.5t-127 -198t-45.5 -246q0 -132 45.5 -246.5t127 -199.5t188.5 -132.5t229 -47.5z" />
    <glyph glyph-name="ordfeminine" unicode="&#xaa;" horiz-adv-x="912" 
d="M585 1202q0 62 -29.5 95.5t-88.5 33.5q-66 0 -103.5 -26t-37.5 -75l-170 14q0 101 85 167t226 66q130 0 210 -69.5t80 -206.5v-314q0 -49 6 -93t20 -88h-174q-12 35 -18 75t-6 81v340zM628 1034h-146q-88 0 -128.5 -33t-40.5 -78q0 -42 29 -65.5t89 -23.5q42 0 84.5 18.5
t71 45.5t28.5 52l17 -115q-14 -32 -45.5 -65.5t-80 -55.5t-116.5 -22q-120 0 -184.5 61.5t-64.5 165.5q0 110 84.5 170.5t255.5 60.5h146z" />
    <glyph glyph-name="guillemotleft" unicode="&#xab;" horiz-adv-x="1003" 
d="M292 528l-209 1v13l285 390h173zM541 134h-173l-285 389v13l209 1zM661 528l-209 1v13l285 390h173zM910 134h-173l-285 389v13l209 1z" />
    <glyph glyph-name="logicalnot" unicode="&#xac;" horiz-adv-x="1140" 
d="M987 620h-834v184h834v-184zM987 374h-212v354h212v-354z" />
    <glyph glyph-name="registered" unicode="&#xae;" horiz-adv-x="1607" 
d="M797 -21q-147 0 -275 57t-226 159.5t-153 238.5t-55 295t55 295t153 237.5t226 158t275 56.5t275.5 -56.5t226.5 -158t153.5 -237.5t55.5 -295t-55.5 -295t-153.5 -238.5t-226.5 -159.5t-275.5 -57zM969 316q-10 26 -11.5 74t-1.5 70v54q0 71 -32.5 105t-111.5 34l21 104
q156 0 214 -68.5t58 -173.5v-56q0 -37 3.5 -70.5t13.5 -56.5v-16h-153zM797 103q123 0 229.5 47.5t187.5 132.5t126.5 199.5t45.5 246.5q0 133 -45.5 246.5t-126.5 198t-187.5 132t-229.5 47.5q-122 0 -228.5 -47.5t-188 -132.5t-127 -198t-45.5 -246q0 -132 45.5 -246.5
t127 -199.5t188 -132.5t228.5 -47.5zM504 316v850h280q149 0 236.5 -65.5t87.5 -194.5q0 -81 -56.5 -135t-161.5 -83q-3 0 -6.5 -6t-6.5 -8q-11 -7 -16 -11.5t-12 -7t-27 -2.5h-215v133h188q65 1 115.5 30.5t50.5 86.5q0 74 -39 103t-138 29h-131v-719h-149z" />
    <glyph glyph-name="macron" unicode="&#xaf;" horiz-adv-x="922" 
d="M791 1292h-685v159h685v-159z" />
    <glyph glyph-name="degree" unicode="&#xb0;" horiz-adv-x="786" 
d="M395 939q-73 0 -133.5 35.5t-97 96.5t-36.5 135t36.5 135.5t97 98.5t133.5 37q72 0 131.5 -37t95 -98.5t35.5 -135.5t-35.5 -135t-95 -96.5t-131.5 -35.5zM395 1080q52 0 87 36t35 90q0 55 -35 92t-87 37t-89.5 -37t-37.5 -92q0 -54 37.5 -90t89.5 -36z" />
    <glyph glyph-name="plusminus" unicode="&#xb1;" horiz-adv-x="1140" 
d="M1028 702h-344v-381h-227v381h-345v212h345v366h227v-366h344v-212zM997 1h-854v208h854v-208z" />
    <glyph glyph-name="uni00B2" unicode="&#xb2;" horiz-adv-x="760" 
d="M691 667h-614v129l288 261q59 53 84.5 96t25.5 69q0 42 -27 67.5t-78 25.5q-61 0 -90.5 -35t-29.5 -83h-191q0 75 37 136t105 97.5t162 36.5q143 0 222.5 -64.5t79.5 -179.5q0 -57 -24 -103t-70 -92.5t-114 -102.5l-132 -106h366v-152z" />
    <glyph glyph-name="uni00B3" unicode="&#xb3;" horiz-adv-x="760" 
d="M358 1134q62 0 92.5 26t30.5 69q0 33 -26.5 59.5t-87.5 26.5q-46 0 -78.5 -19t-32.5 -52h-191q0 72 41 121.5t108.5 75.5t147.5 26q137 0 223 -57t86 -168q0 -59 -36 -102t-99 -67t-147 -24h-119v85h88zM270 1088h119q93 0 159 -20t101.5 -64t35.5 -116
q0 -111 -92.5 -171.5t-230.5 -60.5q-74 0 -145.5 24.5t-117.5 78t-46 140.5h191q0 -37 34.5 -63.5t93.5 -26.5q63 0 92.5 27.5t29.5 67.5q0 55 -36 77.5t-100 22.5h-88v84z" />
    <glyph glyph-name="acute" unicode="&#xb4;" horiz-adv-x="642" 
d="M276 1501h286l-275 -303h-207z" />
    <glyph glyph-name="uni00B5" unicode="&#xb5;" horiz-adv-x="1141" 
d="M115 605h217l27 -1021h-271zM766 1082h257v-1082h-242l-15 256v826zM884 484q0 -145 -43 -259t-134 -179.5t-234 -65.5q-160 0 -259 94t-99 309v699h256v-701q0 -73 22.5 -114.5t61 -59t84.5 -17.5q99 0 156 38.5t81.5 105t24.5 148.5z" />
    <glyph glyph-name="paragraph" unicode="&#xb6;" horiz-adv-x="1003" 
d="M649 0v520h-84q-159 0 -268.5 60.5t-166.5 166.5t-57 241q0 134 57 240t166.5 167t268.5 61h293v-1456h-209z" />
    <glyph glyph-name="periodcentered" unicode="&#xb7;" horiz-adv-x="591" 
d="M290 568q-68 0 -108 40.5t-40 99.5q0 60 40 100.5t108 40.5q69 0 108.5 -40.5t39.5 -100.5q0 -59 -39.5 -99.5t-108.5 -40.5z" />
    <glyph glyph-name="cedilla" unicode="&#xb8;" horiz-adv-x="817" 
d="M274 5l-12 -56q57 -10 104 -48.5t47 -124.5q0 -104 -85 -166.5t-250 -62.5l-7 146q37 0 66.5 9t47 28.5t17.5 50.5q0 44 -35.5 60.5t-113.5 22.5l31 141h190z" />
    <glyph glyph-name="uni00B9" unicode="&#xb9;" horiz-adv-x="760" 
d="M518 667h-189v566l-197 -47v149l368 119h18v-787z" />
    <glyph glyph-name="ordmasculine" unicode="&#xba;" horiz-adv-x="935" 
d="M120 1122q0 155 93.5 255t251.5 100q160 0 253 -100t93 -255v-78q0 -155 -92.5 -254t-251.5 -99q-160 0 -253.5 99t-93.5 254v78zM292 1044q0 -90 43 -149.5t132 -59.5q87 0 129.5 59.5t42.5 149.5v78q0 88 -43 148.5t-131 60.5q-87 0 -130 -60.5t-43 -148.5v-78z" />
    <glyph glyph-name="guillemotright" unicode="&#xbb;" horiz-adv-x="1003" 
d="M339 537l209 -1v-13l-285 -389h-172zM263 932l285 -390v-13l-209 -1l-248 404h172zM719 537l209 -1v-13l-285 -389h-172zM643 932l285 -390v-13l-209 -1l-248 404h172z" />
    <glyph glyph-name="onequarter" unicode="&#xbc;" horiz-adv-x="1510" 
d="M521 109l-130 74l711 1138l130 -74zM518 546h-189v566l-197 -47v149l368 119h18v-787zM1453 163h-639l-10 124l363 502h150l-163 -259l-166 -212h465v-155zM1359 0h-191v789h191v-789z" />
    <glyph glyph-name="onehalf" unicode="&#xbd;" horiz-adv-x="1620" 
d="M511 109l-130 74l711 1138l130 -74zM518 546h-189v566l-197 -47v149l368 119h18v-787zM1551 0h-614v129l288 261q59 53 84.5 96t25.5 69q0 42 -27 67.5t-78 25.5q-61 0 -90.5 -35t-29.5 -83h-191q0 75 37 136t105 97.5t162 36.5q143 0 222.5 -64.5t79.5 -179.5
q0 -57 -24 -103t-70 -92.5t-114 -102.5l-132 -106h366v-152z" />
    <glyph glyph-name="threequarters" unicode="&#xbe;" horiz-adv-x="1608" 
d="M358 1006q62 0 92.5 26t30.5 69q0 33 -26.5 59.5t-87.5 26.5q-46 0 -78.5 -19t-32.5 -52h-191q0 72 41 121.5t108.5 75.5t147.5 26q137 0 223 -57t86 -168q0 -59 -36 -102t-99 -67t-147 -24h-119v85h88zM270 960h119q93 0 159 -20t101.5 -64t35.5 -116
q0 -111 -92.5 -171.5t-230.5 -60.5q-74 0 -145.5 24.5t-117.5 78t-46 140.5h191q0 -37 34.5 -63.5t93.5 -26.5q63 0 92.5 27.5t29.5 67.5q0 55 -36 77.5t-100 22.5h-88v84zM619 109l-130 74l711 1138l130 -74zM1551 163h-639l-10 124l363 502h150l-163 -259l-166 -212h465
v-155zM1457 0h-191v789h191v-789z" />
    <glyph glyph-name="questiondown" unicode="&#xbf;" horiz-adv-x="1004" 
d="M505 -386q-206 0 -321 101t-115 287q0 89 36 160.5t93 134t119 121.5q37 34 56 69.5t26.5 76.5t7.5 91h235q-1 -92 -15.5 -155t-48 -114.5t-92.5 -109.5q-43 -43 -80 -82.5t-58.5 -84t-21.5 -104.5q0 -89 46.5 -133.5t129.5 -44.5q74 0 130 43.5t57 137.5h257
q-1 -130 -60 -218t-158 -132t-223 -44zM524 828q-68 0 -107 40t-39 98t39 97t107 39q67 0 105.5 -39t38.5 -97t-38.5 -98t-105.5 -40z" />
    <glyph glyph-name="Agrave" unicode="&#xc0;" horiz-adv-x="1366" 
d="M295 0h-281l547 1456h177l-18 -217zM646 1239l-20 217h178l549 -1456h-281zM1056 326h-790v216h790v-216zM822 1572h-212l-271 303h288z" />
    <glyph glyph-name="Aacute" unicode="&#xc1;" horiz-adv-x="1366" 
d="M295 0h-281l547 1456h177l-18 -217zM646 1239l-20 217h178l549 -1456h-281zM1056 326h-790v216h790v-216zM775 1875h286l-275 -303h-207z" />
    <glyph glyph-name="Acircumflex" unicode="&#xc2;" horiz-adv-x="1366" 
d="M295 0h-281l547 1456h177l-18 -217zM646 1239l-20 217h178l549 -1456h-281zM1056 326h-790v216h790v-216zM1045 1598v-12h-205l-153 153l-152 -153h-202v14l280 275h149z" />
    <glyph glyph-name="Atilde" unicode="&#xc3;" horiz-adv-x="1366" 
d="M295 0h-281l547 1456h177l-18 -217zM646 1239l-20 217h178l549 -1456h-281zM1056 326h-790v216h790v-216zM472 1605l-154 9q0 72 29 131t79 94.5t115 35.5q40 0 74 -13.5t64.5 -31t62.5 -31t71 -13.5q37 0 63.5 27t26.5 74l153 -12q0 -73 -29 -131.5t-79.5 -92.5
t-114.5 -34q-49 0 -83 13.5t-62 31t-57.5 31t-69.5 13.5q-38 0 -63.5 -27.5t-25.5 -73.5z" />
    <glyph glyph-name="Adieresis" unicode="&#xc4;" horiz-adv-x="1366" 
d="M295 0h-281l547 1456h177l-18 -217zM646 1239l-20 217h178l549 -1456h-281zM1056 326h-790v216h790v-216zM921 1567q-58 0 -93.5 34.5t-35.5 85.5q0 50 35.5 85t93.5 35t94 -35t36 -85q0 -51 -36 -85.5t-94 -34.5zM453 1567q-59 0 -94.5 34.5t-35.5 85.5q0 50 35.5 85
t94.5 35q58 0 93.5 -35t35.5 -85q0 -51 -35.5 -85.5t-93.5 -34.5z" />
    <glyph glyph-name="Aring" unicode="&#xc5;" horiz-adv-x="1366" 
d="M295 0h-281l547 1456h177l-18 -217zM646 1239l-20 217h178l549 -1456h-281zM1056 326h-790v216h790v-216zM687 1571q-95 0 -158 58.5t-63 143.5t63 145.5t158 60.5q94 0 157 -60.5t63 -145.5t-63 -143.5t-157 -58.5zM687 1673q45 0 73 30t28 70q0 41 -28 72t-73 31
q-46 0 -73.5 -31t-27.5 -72q0 -40 27.5 -70t73.5 -30z" />
    <glyph glyph-name="AE" unicode="&#xc6;" horiz-adv-x="1923" 
d="M300 0h-304l817 1456h163l10 -155zM1106 340h-750v223h750v-223zM1871 0h-732v208h732v-208zM1234 0h-257l-61 1456h257zM1729 647h-631v208h631v-208zM1810 1248h-732v208h732v-208z" />
    <glyph glyph-name="Ccedilla" unicode="&#xc7;" horiz-adv-x="1338" 
d="M1263 478q-11 -144 -80 -257t-193 -177t-302 -64q-181 0 -314 84.5t-205 240.5t-72 367v111q0 212 73.5 367.5t208.5 240.5t317 85q177 0 298.5 -64.5t188.5 -179t81 -261.5h-266q-14 137 -80.5 212.5t-221.5 75.5q-109 0 -182.5 -54t-110.5 -159.5t-37 -260.5v-113
q0 -148 33 -254.5t104 -163.5t185 -57q104 0 168 32t97.5 94.5t43.5 154.5h266zM782 5l-12 -56q57 -10 104 -48.5t47 -124.5q0 -104 -85 -166.5t-250 -62.5l-7 146q37 0 66.5 9t47 28.5t17.5 50.5q0 44 -35.5 60.5t-113.5 22.5l31 141h190z" />
    <glyph glyph-name="Egrave" unicode="&#xc8;" horiz-adv-x="1156" 
d="M1102 0h-769v214h769v-214zM409 0h-266v1456h266v-1456zM1002 645h-669v210h669v-210zM1098 1241h-765v215h765v-215zM747 1572h-212l-271 303h288z" />
    <glyph glyph-name="Eacute" unicode="&#xc9;" horiz-adv-x="1156" 
d="M1102 0h-769v214h769v-214zM409 0h-266v1456h266v-1456zM1002 645h-669v210h669v-210zM1098 1241h-765v215h765v-215zM700 1875h286l-275 -303h-207z" />
    <glyph glyph-name="Ecircumflex" unicode="&#xca;" horiz-adv-x="1156" 
d="M1102 0h-769v214h769v-214zM409 0h-266v1456h266v-1456zM1002 645h-669v210h669v-210zM1098 1241h-765v215h765v-215zM970 1598v-12h-205l-153 153l-152 -153h-202v14l280 275h149z" />
    <glyph glyph-name="Edieresis" unicode="&#xcb;" horiz-adv-x="1156" 
d="M1102 0h-769v214h769v-214zM409 0h-266v1456h266v-1456zM1002 645h-669v210h669v-210zM1098 1241h-765v215h765v-215zM846 1567q-58 0 -93.5 34.5t-35.5 85.5q0 50 35.5 85t93.5 35t94 -35t36 -85q0 -51 -36 -85.5t-94 -34.5zM378 1567q-59 0 -94.5 34.5t-35.5 85.5
q0 50 35.5 85t94.5 35q58 0 93.5 -35t35.5 -85q0 -51 -35.5 -85.5t-93.5 -34.5z" />
    <glyph glyph-name="Igrave" unicode="&#xcc;" horiz-adv-x="585" 
d="M426 0h-266v1456h266v-1456zM427 1572h-212l-271 303h288z" />
    <glyph glyph-name="Iacute" unicode="&#xcd;" horiz-adv-x="585" 
d="M426 0h-266v1456h266v-1456zM380 1875h286l-275 -303h-207z" />
    <glyph glyph-name="Icircumflex" unicode="&#xce;" horiz-adv-x="585" 
d="M426 0h-266v1456h266v-1456zM651 1598v-12h-205l-153 153l-152 -153h-202v14l280 275h149z" />
    <glyph glyph-name="Idieresis" unicode="&#xcf;" horiz-adv-x="585" 
d="M426 0h-266v1456h266v-1456zM526 1567q-58 0 -93.5 34.5t-35.5 85.5q0 50 35.5 85t93.5 35t94 -35t36 -85q0 -51 -36 -85.5t-94 -34.5zM58 1567q-59 0 -94.5 34.5t-35.5 85.5q0 50 35.5 85t94.5 35q58 0 93.5 -35t35.5 -85q0 -51 -35.5 -85.5t-93.5 -34.5z" />
    <glyph glyph-name="Eth" unicode="&#xd0;" horiz-adv-x="1336" 
d="M669 649h-680v173h680v-173zM260 0v214h311q131 0 219.5 57t133.5 164t45 257v74q0 154 -45 259.5t-132 160.5t-213 55h-325v215h325q195 0 343 -86t231.5 -241.5t83.5 -364.5v-72q0 -209 -83.5 -364.5t-233 -241.5t-349.5 -86h-311zM409 0h-266v1456h266v-1456z" />
    <glyph glyph-name="Ntilde" unicode="&#xd1;" horiz-adv-x="1451" 
d="M1307 0h-267l-631 1012v-1012h-266v1456h266l633 -1014v1014h265v-1456zM510 1605l-154 9q0 72 29 131t79 94.5t115 35.5q40 0 74 -13.5t64.5 -31t62.5 -31t71 -13.5q37 0 63.5 27t26.5 74l153 -12q0 -73 -29 -131.5t-79.5 -92.5t-114.5 -34q-49 0 -83 13.5t-62 31
t-57.5 31t-69.5 13.5q-38 0 -63.5 -27.5t-25.5 -73.5z" />
    <glyph glyph-name="Ograve" unicode="&#xd2;" horiz-adv-x="1413" 
d="M1315 691q0 -221 -76.5 -380.5t-213 -245t-317.5 -85.5q-179 0 -317.5 85.5t-216.5 245t-78 380.5v73q0 221 77.5 380.5t215.5 245.5t317 86q181 0 318 -86t214 -245.5t77 -380.5v-73zM1047 766q0 160 -40.5 268.5t-116.5 164.5t-184 56q-107 0 -183.5 -56t-117 -164.5
t-40.5 -268.5v-75q0 -159 41 -268.5t118 -166t184 -56.5q108 0 184 56.5t115.5 166t39.5 268.5v75zM841 1572h-212l-271 303h288z" />
    <glyph glyph-name="Oacute" unicode="&#xd3;" horiz-adv-x="1413" 
d="M1315 691q0 -221 -76.5 -380.5t-213 -245t-317.5 -85.5q-179 0 -317.5 85.5t-216.5 245t-78 380.5v73q0 221 77.5 380.5t215.5 245.5t317 86q181 0 318 -86t214 -245.5t77 -380.5v-73zM1047 766q0 160 -40.5 268.5t-116.5 164.5t-184 56q-107 0 -183.5 -56t-117 -164.5
t-40.5 -268.5v-75q0 -159 41 -268.5t118 -166t184 -56.5q108 0 184 56.5t115.5 166t39.5 268.5v75zM794 1875h286l-275 -303h-207z" />
    <glyph glyph-name="Ocircumflex" unicode="&#xd4;" horiz-adv-x="1413" 
d="M1315 691q0 -221 -76.5 -380.5t-213 -245t-317.5 -85.5q-179 0 -317.5 85.5t-216.5 245t-78 380.5v73q0 221 77.5 380.5t215.5 245.5t317 86q181 0 318 -86t214 -245.5t77 -380.5v-73zM1047 766q0 160 -40.5 268.5t-116.5 164.5t-184 56q-107 0 -183.5 -56t-117 -164.5
t-40.5 -268.5v-75q0 -159 41 -268.5t118 -166t184 -56.5q108 0 184 56.5t115.5 166t39.5 268.5v75zM1065 1598v-12h-205l-153 153l-152 -153h-202v14l280 275h149z" />
    <glyph glyph-name="Otilde" unicode="&#xd5;" horiz-adv-x="1413" 
d="M1315 691q0 -221 -76.5 -380.5t-213 -245t-317.5 -85.5q-179 0 -317.5 85.5t-216.5 245t-78 380.5v73q0 221 77.5 380.5t215.5 245.5t317 86q181 0 318 -86t214 -245.5t77 -380.5v-73zM1047 766q0 160 -40.5 268.5t-116.5 164.5t-184 56q-107 0 -183.5 -56t-117 -164.5
t-40.5 -268.5v-75q0 -159 41 -268.5t118 -166t184 -56.5q108 0 184 56.5t115.5 166t39.5 268.5v75zM491 1605l-154 9q0 72 29 131t79 94.5t115 35.5q40 0 74 -13.5t64.5 -31t62.5 -31t71 -13.5q37 0 63.5 27t26.5 74l153 -12q0 -73 -29 -131.5t-79.5 -92.5t-114.5 -34
q-49 0 -83 13.5t-62 31t-57.5 31t-69.5 13.5q-38 0 -63.5 -27.5t-25.5 -73.5z" />
    <glyph glyph-name="Odieresis" unicode="&#xd6;" horiz-adv-x="1413" 
d="M1315 691q0 -221 -76.5 -380.5t-213 -245t-317.5 -85.5q-179 0 -317.5 85.5t-216.5 245t-78 380.5v73q0 221 77.5 380.5t215.5 245.5t317 86q181 0 318 -86t214 -245.5t77 -380.5v-73zM1047 766q0 160 -40.5 268.5t-116.5 164.5t-184 56q-107 0 -183.5 -56t-117 -164.5
t-40.5 -268.5v-75q0 -159 41 -268.5t118 -166t184 -56.5q108 0 184 56.5t115.5 166t39.5 268.5v75zM940 1567q-58 0 -93.5 34.5t-35.5 85.5q0 50 35.5 85t93.5 35t94 -35t36 -85q0 -51 -36 -85.5t-94 -34.5zM472 1567q-59 0 -94.5 34.5t-35.5 85.5q0 50 35.5 85t94.5 35
q58 0 93.5 -35t35.5 -85q0 -51 -35.5 -85.5t-93.5 -34.5z" />
    <glyph glyph-name="multiply" unicode="&#xd7;" horiz-adv-x="1140" 
d="M104 360l779 794l154 -154l-779 -794zM104 1000l154 154l779 -794l-154 -154z" />
    <glyph glyph-name="Oslash" unicode="&#xd8;" horiz-adv-x="1411" 
d="M327 -95h-174l971 1613h172zM1320 691q0 -221 -76.5 -380.5t-213 -245t-318.5 -85.5q-178 0 -316.5 85.5t-216.5 245t-78 380.5v73q0 221 77.5 380.5t215.5 245.5t316 86q182 0 319 -86t214 -245.5t77 -380.5v-73zM1052 766q0 160 -40.5 268.5t-117 164.5t-184.5 56
q-106 0 -182.5 -56t-117 -164.5t-40.5 -268.5v-75q0 -159 41 -268.5t118 -166t183 -56.5q109 0 185 56.5t115.5 166t39.5 268.5v75z" />
    <glyph glyph-name="Ugrave" unicode="&#xd9;" horiz-adv-x="1341" 
d="M1220 1456v-968q0 -167 -72.5 -280t-196.5 -170.5t-279 -57.5q-158 0 -282.5 57.5t-195 170.5t-70.5 280v968h266v-968q0 -102 34 -166.5t97.5 -96t150.5 -31.5q88 0 150.5 31.5t96.5 96t34 166.5v968h267zM806 1572h-212l-271 303h288z" />
    <glyph glyph-name="Uacute" unicode="&#xda;" horiz-adv-x="1341" 
d="M1220 1456v-968q0 -167 -72.5 -280t-196.5 -170.5t-279 -57.5q-158 0 -282.5 57.5t-195 170.5t-70.5 280v968h266v-968q0 -102 34 -166.5t97.5 -96t150.5 -31.5q88 0 150.5 31.5t96.5 96t34 166.5v968h267zM759 1875h286l-275 -303h-207z" />
    <glyph glyph-name="Ucircumflex" unicode="&#xdb;" horiz-adv-x="1341" 
d="M1220 1456v-968q0 -167 -72.5 -280t-196.5 -170.5t-279 -57.5q-158 0 -282.5 57.5t-195 170.5t-70.5 280v968h266v-968q0 -102 34 -166.5t97.5 -96t150.5 -31.5q88 0 150.5 31.5t96.5 96t34 166.5v968h267zM1029 1598v-12h-205l-153 153l-152 -153h-202v14l280 275h149z
" />
    <glyph glyph-name="Udieresis" unicode="&#xdc;" horiz-adv-x="1341" 
d="M1220 1456v-968q0 -167 -72.5 -280t-196.5 -170.5t-279 -57.5q-158 0 -282.5 57.5t-195 170.5t-70.5 280v968h266v-968q0 -102 34 -166.5t97.5 -96t150.5 -31.5q88 0 150.5 31.5t96.5 96t34 166.5v968h267zM904 1567q-58 0 -93.5 34.5t-35.5 85.5q0 50 35.5 85t93.5 35
t94 -35t36 -85q0 -51 -36 -85.5t-94 -34.5zM436 1567q-59 0 -94.5 34.5t-35.5 85.5q0 50 35.5 85t94.5 35q58 0 93.5 -35t35.5 -85q0 -51 -35.5 -85.5t-93.5 -34.5z" />
    <glyph glyph-name="Yacute" unicode="&#xdd;" horiz-adv-x="1255" 
d="M627 776l326 680h294l-486 -922v-534h-269v534l-486 922h295zM715 1875h286l-275 -303h-207z" />
    <glyph glyph-name="Thorn" unicode="&#xde;" horiz-adv-x="1234" 
d="M401 1456v-1456h-257v1456h257zM640 1181q169 0 285 -57t176 -157t60 -229q0 -128 -60 -228t-176 -157t-285 -57h-280v206h280q95 0 153 33.5t84.5 87t26.5 113.5q0 61 -26.5 116t-84.5 89t-153 34h-240l-156 206h396z" />
    <glyph glyph-name="germandbls" unicode="&#xdf;" horiz-adv-x="1268" 
d="M392 0h-255v1105q0 224 122 338.5t326 114.5q114 0 206 -39.5t146.5 -119.5t54.5 -200q0 -76 -17.5 -123.5t-39.5 -82.5t-39.5 -72t-17.5 -94q0 -45 32 -84t79 -78.5t94.5 -85t79 -103.5t31.5 -133q0 -118 -51 -199t-146 -122.5t-228 -41.5q-53 0 -109 8.5t-103 22
t-74 31.5l50 204q33 -18 93.5 -39t131.5 -21q61 0 101 19t59.5 53t19.5 78q0 52 -31.5 92t-79 77t-94.5 80t-79 99.5t-32 134.5q0 65 18 109t41.5 80t42 77t18.5 99q0 53 -22 90.5t-59.5 57.5t-86.5 20q-85 0 -133.5 -57.5t-48.5 -192.5v-1102z" />
    <glyph glyph-name="agrave" unicode="&#xe0;" horiz-adv-x="1104" 
d="M723 730q0 82 -44.5 130.5t-136.5 48.5q-55 0 -95.5 -18.5t-62.5 -50.5t-22 -74h-256q0 89 55.5 165.5t156.5 123.5t238 47q123 0 218.5 -41.5t150.5 -124.5t55 -208v-474q0 -79 11 -136.5t31 -100.5v-17h-261q-19 40 -28.5 103t-9.5 124v503zM760 503h-166
q-128 0 -192 -48.5t-64 -128.5q0 -62 42.5 -103t119.5 -41q72 0 125 29t83 70.5t31 78.5l79 -114q-13 -40 -41 -86t-73.5 -87t-108.5 -67t-146 -26q-105 0 -188.5 42t-131 115.5t-47.5 165.5q0 172 128.5 264.5t367.5 92.5h182v-157zM687 1198h-212l-271 303h288z" />
    <glyph glyph-name="aacute" unicode="&#xe1;" horiz-adv-x="1104" 
d="M723 730q0 82 -44.5 130.5t-136.5 48.5q-55 0 -95.5 -18.5t-62.5 -50.5t-22 -74h-256q0 89 55.5 165.5t156.5 123.5t238 47q123 0 218.5 -41.5t150.5 -124.5t55 -208v-474q0 -79 11 -136.5t31 -100.5v-17h-261q-19 40 -28.5 103t-9.5 124v503zM760 503h-166
q-128 0 -192 -48.5t-64 -128.5q0 -62 42.5 -103t119.5 -41q72 0 125 29t83 70.5t31 78.5l79 -114q-13 -40 -41 -86t-73.5 -87t-108.5 -67t-146 -26q-105 0 -188.5 42t-131 115.5t-47.5 165.5q0 172 128.5 264.5t367.5 92.5h182v-157zM640 1501h286l-275 -303h-207z" />
    <glyph glyph-name="acircumflex" unicode="&#xe2;" horiz-adv-x="1104" 
d="M723 730q0 82 -44.5 130.5t-136.5 48.5q-55 0 -95.5 -18.5t-62.5 -50.5t-22 -74h-256q0 89 55.5 165.5t156.5 123.5t238 47q123 0 218.5 -41.5t150.5 -124.5t55 -208v-474q0 -79 11 -136.5t31 -100.5v-17h-261q-19 40 -28.5 103t-9.5 124v503zM760 503h-166
q-128 0 -192 -48.5t-64 -128.5q0 -62 42.5 -103t119.5 -41q72 0 125 29t83 70.5t31 78.5l79 -114q-13 -40 -41 -86t-73.5 -87t-108.5 -67t-146 -26q-105 0 -188.5 42t-131 115.5t-47.5 165.5q0 172 128.5 264.5t367.5 92.5h182v-157zM910 1224v-12h-205l-153 153l-152 -153
h-202v14l280 275h149z" />
    <glyph glyph-name="atilde" unicode="&#xe3;" horiz-adv-x="1104" 
d="M723 730q0 82 -44.5 130.5t-136.5 48.5q-55 0 -95.5 -18.5t-62.5 -50.5t-22 -74h-256q0 89 55.5 165.5t156.5 123.5t238 47q123 0 218.5 -41.5t150.5 -124.5t55 -208v-474q0 -79 11 -136.5t31 -100.5v-17h-261q-19 40 -28.5 103t-9.5 124v503zM760 503h-166
q-128 0 -192 -48.5t-64 -128.5q0 -62 42.5 -103t119.5 -41q72 0 125 29t83 70.5t31 78.5l79 -114q-13 -40 -41 -86t-73.5 -87t-108.5 -67t-146 -26q-105 0 -188.5 42t-131 115.5t-47.5 165.5q0 172 128.5 264.5t367.5 92.5h182v-157zM337 1231l-154 9q0 72 29 131t79 94.5
t115 35.5q40 0 74 -13.5t64.5 -31t62.5 -31t71 -13.5q37 0 63.5 27t26.5 74l153 -12q0 -73 -29 -131.5t-79.5 -92.5t-114.5 -34q-49 0 -83 13.5t-62 31t-57.5 31t-69.5 13.5q-38 0 -63.5 -27.5t-25.5 -73.5z" />
    <glyph glyph-name="adieresis" unicode="&#xe4;" horiz-adv-x="1104" 
d="M723 730q0 82 -44.5 130.5t-136.5 48.5q-55 0 -95.5 -18.5t-62.5 -50.5t-22 -74h-256q0 89 55.5 165.5t156.5 123.5t238 47q123 0 218.5 -41.5t150.5 -124.5t55 -208v-474q0 -79 11 -136.5t31 -100.5v-17h-261q-19 40 -28.5 103t-9.5 124v503zM760 503h-166
q-128 0 -192 -48.5t-64 -128.5q0 -62 42.5 -103t119.5 -41q72 0 125 29t83 70.5t31 78.5l79 -114q-13 -40 -41 -86t-73.5 -87t-108.5 -67t-146 -26q-105 0 -188.5 42t-131 115.5t-47.5 165.5q0 172 128.5 264.5t367.5 92.5h182v-157zM785 1193q-58 0 -93.5 34.5t-35.5 85.5
q0 50 35.5 85t93.5 35t94 -35t36 -85q0 -51 -36 -85.5t-94 -34.5zM317 1193q-59 0 -94.5 34.5t-35.5 85.5q0 50 35.5 85t94.5 35q58 0 93.5 -35t35.5 -85q0 -51 -35.5 -85.5t-93.5 -34.5z" />
    <glyph glyph-name="aring" unicode="&#xe5;" horiz-adv-x="1104" 
d="M723 730q0 82 -44.5 130.5t-136.5 48.5q-55 0 -95.5 -18.5t-62.5 -50.5t-22 -74h-256q0 89 55.5 165.5t156.5 123.5t238 47q123 0 218.5 -41.5t150.5 -124.5t55 -208v-474q0 -79 11 -136.5t31 -100.5v-17h-261q-19 40 -28.5 103t-9.5 124v503zM760 503h-166
q-128 0 -192 -48.5t-64 -128.5q0 -62 42.5 -103t119.5 -41q72 0 125 29t83 70.5t31 78.5l79 -114q-13 -40 -41 -86t-73.5 -87t-108.5 -67t-146 -26q-105 0 -188.5 42t-131 115.5t-47.5 165.5q0 172 128.5 264.5t367.5 92.5h182v-157zM552 1197q-95 0 -158 58.5t-63 143.5
t63 145.5t158 60.5q94 0 157 -60.5t63 -145.5t-63 -143.5t-157 -58.5zM552 1299q45 0 73 30t28 70q0 41 -28 72t-73 31q-46 0 -73.5 -31t-27.5 -72q0 -40 27.5 -70t73.5 -30z" />
    <glyph glyph-name="ae" unicode="&#xe6;" horiz-adv-x="1730" 
d="M1252 -21q-166 0 -281 67.5t-174 186t-59 270.5v61q0 158 58.5 280t167 190.5t257.5 67.5q215 0 333 -132t118 -357v-147h-820v177h567v29q0 64 -20.5 114.5t-63.5 80t-114 29.5q-82 0 -134.5 -44t-77.5 -119.5t-25 -168.5v-61q0 -88 29.5 -160t93 -114.5t165.5 -42.5
q110 0 178 28.5t124 58.5l73 -172q-30 -24 -85.5 -52.5t-133.5 -49t-176 -20.5zM455 -21q-186 0 -285.5 91.5t-99.5 243.5q0 158 122.5 244.5t358.5 86.5h225l1 -172h-224q-75 0 -125 -23t-75.5 -60t-25.5 -80q0 -60 43 -99t135 -39q46 0 94 17t89 43.5t66 56.5t25 57
l123 -153q-26 -48 -84 -97.5t-148 -83t-215 -33.5zM733 183v528q0 85 -45 135t-130 50q-93 0 -146.5 -43.5t-53.5 -102.5l-255 19q0 97 56.5 172t159.5 118t241 43q190 0 306 -98.5t116 -294.5v-491z" />
    <glyph glyph-name="ccedilla" unicode="&#xe7;" horiz-adv-x="1071" 
d="M569 -20q-166 0 -276 73.5t-164 197t-54 273.5v33q0 151 54.5 274.5t164 197t274.5 73.5q131 0 230.5 -51.5t155.5 -144t58 -217.5h-241q-2 57 -27 104t-70.5 75t-109.5 28q-93 0 -143.5 -49t-70 -126.5t-19.5 -163.5v-33q0 -86 19 -163.5t70 -126t146 -48.5
q57 0 102.5 22.5t73 62.5t29.5 93h241q-2 -108 -62 -195t-159.5 -138t-221.5 -51zM608 5l-12 -56q57 -10 104 -48.5t47 -124.5q0 -104 -85 -166.5t-250 -62.5l-7 146q37 0 66.5 9t47 28.5t17.5 50.5q0 44 -35.5 60.5t-113.5 22.5l31 141h190z" />
    <glyph glyph-name="egrave" unicode="&#xe8;" horiz-adv-x="1101" 
d="M604 -20q-163 0 -280.5 69.5t-181 188.5t-63.5 265v41q0 168 64 293.5t176 195t255 69.5q156 0 259.5 -67.5t155.5 -187t52 -276.5v-110h-841v182h588v20q-2 62 -24 115t-68.5 85.5t-122.5 32.5q-79 0 -131.5 -44t-79 -123t-26.5 -185v-41q0 -90 33.5 -162t97 -113.5
t152.5 -41.5q85 0 152.5 33.5t116.5 96.5l133 -135q-51 -76 -154.5 -138.5t-262.5 -62.5zM710 1198h-212l-271 303h288z" />
    <glyph glyph-name="eacute" unicode="&#xe9;" horiz-adv-x="1101" 
d="M604 -20q-163 0 -280.5 69.5t-181 188.5t-63.5 265v41q0 168 64 293.5t176 195t255 69.5q156 0 259.5 -67.5t155.5 -187t52 -276.5v-110h-841v182h588v20q-2 62 -24 115t-68.5 85.5t-122.5 32.5q-79 0 -131.5 -44t-79 -123t-26.5 -185v-41q0 -90 33.5 -162t97 -113.5
t152.5 -41.5q85 0 152.5 33.5t116.5 96.5l133 -135q-51 -76 -154.5 -138.5t-262.5 -62.5zM663 1501h286l-275 -303h-207z" />
    <glyph glyph-name="ecircumflex" unicode="&#xea;" horiz-adv-x="1101" 
d="M604 -20q-163 0 -280.5 69.5t-181 188.5t-63.5 265v41q0 168 64 293.5t176 195t255 69.5q156 0 259.5 -67.5t155.5 -187t52 -276.5v-110h-841v182h588v20q-2 62 -24 115t-68.5 85.5t-122.5 32.5q-79 0 -131.5 -44t-79 -123t-26.5 -185v-41q0 -90 33.5 -162t97 -113.5
t152.5 -41.5q85 0 152.5 33.5t116.5 96.5l133 -135q-51 -76 -154.5 -138.5t-262.5 -62.5zM933 1224v-12h-205l-153 153l-152 -153h-202v14l280 275h149z" />
    <glyph glyph-name="edieresis" unicode="&#xeb;" horiz-adv-x="1101" 
d="M604 -20q-163 0 -280.5 69.5t-181 188.5t-63.5 265v41q0 168 64 293.5t176 195t255 69.5q156 0 259.5 -67.5t155.5 -187t52 -276.5v-110h-841v182h588v20q-2 62 -24 115t-68.5 85.5t-122.5 32.5q-79 0 -131.5 -44t-79 -123t-26.5 -185v-41q0 -90 33.5 -162t97 -113.5
t152.5 -41.5q85 0 152.5 33.5t116.5 96.5l133 -135q-51 -76 -154.5 -138.5t-262.5 -62.5zM809 1193q-58 0 -93.5 34.5t-35.5 85.5q0 50 35.5 85t93.5 35t94 -35t36 -85q0 -51 -36 -85.5t-94 -34.5zM341 1193q-59 0 -94.5 34.5t-35.5 85.5q0 50 35.5 85t94.5 35
q58 0 93.5 -35t35.5 -85q0 -51 -35.5 -85.5t-93.5 -34.5z" />
    <glyph glyph-name="igrave" unicode="&#xec;" horiz-adv-x="544" 
d="M398 0h-257v1082h257v-1082zM407 1198h-212l-271 303h288z" />
    <glyph glyph-name="iacute" unicode="&#xed;" horiz-adv-x="544" 
d="M398 0h-257v1082h257v-1082zM360 1501h286l-275 -303h-207z" />
    <glyph glyph-name="icircumflex" unicode="&#xee;" horiz-adv-x="544" 
d="M398 0h-257v1082h257v-1082zM630 1224v-12h-205l-153 153l-152 -153h-202v14l280 275h149z" />
    <glyph glyph-name="idieresis" unicode="&#xef;" horiz-adv-x="544" 
d="M398 0h-257v1082h257v-1082zM506 1193q-58 0 -93.5 34.5t-35.5 85.5q0 50 35.5 85t93.5 35t94 -35t36 -85q0 -51 -36 -85.5t-94 -34.5zM38 1193q-59 0 -94.5 34.5t-35.5 85.5q0 50 35.5 85t94.5 35q58 0 93.5 -35t35.5 -85q0 -51 -35.5 -85.5t-93.5 -34.5z" />
    <glyph glyph-name="eth" unicode="&#xf0;" horiz-adv-x="1186" 
d="M320 1580q228 -48 402.5 -174.5t273 -319.5t98.5 -441v-82q0 -172 -65 -304t-178.5 -205.5t-258.5 -73.5q-147 0 -258 65.5t-173.5 176t-62.5 246.5q0 151 55 264t156.5 175.5t239.5 62.5q113 0 203 -51t144.5 -136t59.5 -186l-92 1q0 28 -16 58.5t-47.5 57t-80 43
t-113.5 16.5q-82 0 -138 -37t-85.5 -105.5t-29.5 -162.5q0 -73 28.5 -137.5t82.5 -104t131 -39.5q78 0 131.5 46.5t81.5 127.5t28 183v103q0 163 -48 286t-132 211t-191.5 145.5t-225.5 87.5zM432 1039l-77 110l558 363l75 -110z" />
    <glyph glyph-name="ntilde" unicode="&#xf1;" horiz-adv-x="1142" 
d="M373 0h-256v1082h241l15 -231v-851zM250 578q1 158 54.5 275.5t150.5 183t226 65.5q104 0 181 -39.5t119.5 -128.5t42.5 -239v-695h-257v697q0 74 -21 117t-62.5 61t-101.5 18q-61 0 -107.5 -24t-79 -67t-49 -100t-16.5 -123zM356 1231l-154 9q0 72 29 131t79 94.5
t115 35.5q40 0 74 -13.5t64.5 -31t62.5 -31t71 -13.5q37 0 63.5 27t26.5 74l153 -12q0 -73 -29 -131.5t-79.5 -92.5t-114.5 -34q-49 0 -83 13.5t-62 31t-57.5 31t-69.5 13.5q-38 0 -63.5 -27.5t-25.5 -73.5z" />
    <glyph glyph-name="ograve" unicode="&#xf2;" horiz-adv-x="1162" 
d="M75 551q0 158 60 282t172.5 196.5t271.5 72.5q161 0 275 -72.5t173.5 -196.5t59.5 -282v-21q0 -157 -59.5 -281.5t-173 -196.5t-273.5 -72t-273 72t-173 196.5t-60 281.5v21zM331 530q0 -94 26 -172.5t81 -125t143 -46.5t143 46.5t80.5 125t25.5 172.5v21
q0 93 -25.5 171.5t-81 126t-144.5 47.5q-87 0 -142 -47.5t-80.5 -126t-25.5 -171.5v-21zM716 1198h-212l-271 303h288z" />
    <glyph glyph-name="oacute" unicode="&#xf3;" horiz-adv-x="1162" 
d="M75 551q0 158 60 282t172.5 196.5t271.5 72.5q161 0 275 -72.5t173.5 -196.5t59.5 -282v-21q0 -157 -59.5 -281.5t-173 -196.5t-273.5 -72t-273 72t-173 196.5t-60 281.5v21zM331 530q0 -94 26 -172.5t81 -125t143 -46.5t143 46.5t80.5 125t25.5 172.5v21
q0 93 -25.5 171.5t-81 126t-144.5 47.5q-87 0 -142 -47.5t-80.5 -126t-25.5 -171.5v-21zM669 1501h286l-275 -303h-207z" />
    <glyph glyph-name="ocircumflex" unicode="&#xf4;" horiz-adv-x="1162" 
d="M75 551q0 158 60 282t172.5 196.5t271.5 72.5q161 0 275 -72.5t173.5 -196.5t59.5 -282v-21q0 -157 -59.5 -281.5t-173 -196.5t-273.5 -72t-273 72t-173 196.5t-60 281.5v21zM331 530q0 -94 26 -172.5t81 -125t143 -46.5t143 46.5t80.5 125t25.5 172.5v21
q0 93 -25.5 171.5t-81 126t-144.5 47.5q-87 0 -142 -47.5t-80.5 -126t-25.5 -171.5v-21zM939 1224v-12h-205l-153 153l-152 -153h-202v14l280 275h149z" />
    <glyph glyph-name="otilde" unicode="&#xf5;" horiz-adv-x="1162" 
d="M75 551q0 158 60 282t172.5 196.5t271.5 72.5q161 0 275 -72.5t173.5 -196.5t59.5 -282v-21q0 -157 -59.5 -281.5t-173 -196.5t-273.5 -72t-273 72t-173 196.5t-60 281.5v21zM331 530q0 -94 26 -172.5t81 -125t143 -46.5t143 46.5t80.5 125t25.5 172.5v21
q0 93 -25.5 171.5t-81 126t-144.5 47.5q-87 0 -142 -47.5t-80.5 -126t-25.5 -171.5v-21zM366 1231l-154 9q0 72 29 131t79 94.5t115 35.5q40 0 74 -13.5t64.5 -31t62.5 -31t71 -13.5q37 0 63.5 27t26.5 74l153 -12q0 -73 -29 -131.5t-79.5 -92.5t-114.5 -34q-49 0 -83 13.5
t-62 31t-57.5 31t-69.5 13.5q-38 0 -63.5 -27.5t-25.5 -73.5z" />
    <glyph glyph-name="odieresis" unicode="&#xf6;" horiz-adv-x="1162" 
d="M75 551q0 158 60 282t172.5 196.5t271.5 72.5q161 0 275 -72.5t173.5 -196.5t59.5 -282v-21q0 -157 -59.5 -281.5t-173 -196.5t-273.5 -72t-273 72t-173 196.5t-60 281.5v21zM331 530q0 -94 26 -172.5t81 -125t143 -46.5t143 46.5t80.5 125t25.5 172.5v21
q0 93 -25.5 171.5t-81 126t-144.5 47.5q-87 0 -142 -47.5t-80.5 -126t-25.5 -171.5v-21zM814 1193q-58 0 -93.5 34.5t-35.5 85.5q0 50 35.5 85t93.5 35t94 -35t36 -85q0 -51 -36 -85.5t-94 -34.5zM346 1193q-59 0 -94.5 34.5t-35.5 85.5q0 50 35.5 85t94.5 35q58 0 93.5 -35
t35.5 -85q0 -51 -35.5 -85.5t-93.5 -34.5z" />
    <glyph glyph-name="divide" unicode="&#xf7;" horiz-adv-x="1140" 
d="M61 580v216h1018v-216h-1018zM572 142q-69 0 -108 39t-39 98q0 60 39 99t108 39t109 -39t40 -99q0 -59 -40 -98t-109 -39zM572 955q-69 0 -108 39t-39 98q0 61 39 100.5t108 39.5t109 -39.5t40 -100.5q0 -59 -40 -98t-109 -39z" />
    <glyph glyph-name="oslash" unicode="&#xf8;" horiz-adv-x="1158" 
d="M328 -140h-149l663 1354h149zM75 551q0 158 60 282t172.5 196.5t271.5 72.5q161 0 275 -72.5t173.5 -196.5t59.5 -282v-21q0 -157 -59.5 -281.5t-173 -196.5t-273.5 -72t-273 72t-173 196.5t-60 281.5v21zM331 530q0 -94 26 -172.5t81 -125t143 -46.5t143 46.5t80.5 125
t25.5 172.5v21q0 93 -25.5 171.5t-81 126t-144.5 47.5q-87 0 -142 -47.5t-80.5 -126t-25.5 -171.5v-21z" />
    <glyph glyph-name="ugrave" unicode="&#xf9;" horiz-adv-x="1141" 
d="M766 1082h257v-1082h-242l-15 256v826zM884 484q0 -145 -43 -259t-134 -179.5t-234 -65.5q-160 0 -259 94t-99 309v699h256v-701q0 -73 22.5 -114.5t61 -59t84.5 -17.5q99 0 156 38.5t81.5 105t24.5 148.5zM705 1198h-212l-271 303h288z" />
    <glyph glyph-name="uacute" unicode="&#xfa;" horiz-adv-x="1141" 
d="M766 1082h257v-1082h-242l-15 256v826zM884 484q0 -145 -43 -259t-134 -179.5t-234 -65.5q-160 0 -259 94t-99 309v699h256v-701q0 -73 22.5 -114.5t61 -59t84.5 -17.5q99 0 156 38.5t81.5 105t24.5 148.5zM658 1501h286l-275 -303h-207z" />
    <glyph glyph-name="ucircumflex" unicode="&#xfb;" horiz-adv-x="1141" 
d="M766 1082h257v-1082h-242l-15 256v826zM884 484q0 -145 -43 -259t-134 -179.5t-234 -65.5q-160 0 -259 94t-99 309v699h256v-701q0 -73 22.5 -114.5t61 -59t84.5 -17.5q99 0 156 38.5t81.5 105t24.5 148.5zM929 1224v-12h-205l-153 153l-152 -153h-202v14l280 275h149z
" />
    <glyph glyph-name="udieresis" unicode="&#xfc;" horiz-adv-x="1141" 
d="M766 1082h257v-1082h-242l-15 256v826zM884 484q0 -145 -43 -259t-134 -179.5t-234 -65.5q-160 0 -259 94t-99 309v699h256v-701q0 -73 22.5 -114.5t61 -59t84.5 -17.5q99 0 156 38.5t81.5 105t24.5 148.5zM804 1193q-58 0 -93.5 34.5t-35.5 85.5q0 50 35.5 85t93.5 35
t94 -35t36 -85q0 -51 -36 -85.5t-94 -34.5zM336 1193q-59 0 -94.5 34.5t-35.5 85.5q0 50 35.5 85t94.5 35q58 0 93.5 -35t35.5 -85q0 -51 -35.5 -85.5t-93.5 -34.5z" />
    <glyph glyph-name="yacute" unicode="&#xfd;" horiz-adv-x="1009" 
d="M725 1082h273l-432 -1246q-15 -40 -39.5 -87t-63 -89.5t-96.5 -69.5t-140 -27q-22 0 -42.5 2.5t-39.5 6.5t-38 9v197q9 -1 23 -2t23 -1q89 0 133.5 31t69.5 105l78 209zM533 287l44 -278l-177 -35l-390 1108h276zM592 1501h286l-275 -303h-207z" />
    <glyph glyph-name="thorn" unicode="&#xfe;" horiz-adv-x="1169" 
d="M661 -20q-102 0 -177 38.5t-127 108.5t-82.5 164.5t-44.5 206.5v70q18 158 67.5 278t138 188t222.5 68q137 0 231 -69t143 -192.5t49 -288.5v-21q0 -158 -48.5 -282.5t-142.5 -196.5t-229 -72zM125 -416v1952h257v-1952h-257zM591 186q84 0 135 47t74.5 125.5t23.5 172.5
v21q0 96 -24 173t-75.5 122.5t-135.5 45.5q-61 0 -105.5 -20t-74.5 -56.5t-46.5 -87t-21.5 -111.5v-170q10 -73 37 -132.5t79 -94.5t134 -35z" />
    <glyph glyph-name="ydieresis" unicode="&#xff;" horiz-adv-x="1009" 
d="M725 1082h273l-432 -1246q-15 -40 -39.5 -87t-63 -89.5t-96.5 -69.5t-140 -27q-22 0 -42.5 2.5t-39.5 6.5t-38 9v197q9 -1 23 -2t23 -1q89 0 133.5 31t69.5 105l78 209zM533 287l44 -278l-177 -35l-390 1108h276zM738 1193q-58 0 -93.5 34.5t-35.5 85.5q0 50 35.5 85
t93.5 35t94 -35t36 -85q0 -51 -36 -85.5t-94 -34.5zM270 1193q-59 0 -94.5 34.5t-35.5 85.5q0 50 35.5 85t94.5 35q58 0 93.5 -35t35.5 -85q0 -51 -35.5 -85.5t-93.5 -34.5z" />
    <glyph glyph-name="Amacron" unicode="&#x100;" horiz-adv-x="1366" 
d="M295 0h-281l547 1456h177l-18 -217zM646 1239l-20 217h178l549 -1456h-281zM1056 326h-790v216h790v-216zM1030 1666h-685v159h685v-159z" />
    <glyph glyph-name="amacron" unicode="&#x101;" horiz-adv-x="1104" 
d="M723 730q0 82 -44.5 130.5t-136.5 48.5q-55 0 -95.5 -18.5t-62.5 -50.5t-22 -74h-256q0 89 55.5 165.5t156.5 123.5t238 47q123 0 218.5 -41.5t150.5 -124.5t55 -208v-474q0 -79 11 -136.5t31 -100.5v-17h-261q-19 40 -28.5 103t-9.5 124v503zM760 503h-166
q-128 0 -192 -48.5t-64 -128.5q0 -62 42.5 -103t119.5 -41q72 0 125 29t83 70.5t31 78.5l79 -114q-13 -40 -41 -86t-73.5 -87t-108.5 -67t-146 -26q-105 0 -188.5 42t-131 115.5t-47.5 165.5q0 172 128.5 264.5t367.5 92.5h182v-157zM895 1292h-685v159h685v-159z" />
    <glyph glyph-name="Abreve" unicode="&#x102;" horiz-adv-x="1366" 
d="M295 0h-281l547 1456h177l-18 -217zM646 1239l-20 217h178l549 -1456h-281zM1056 326h-790v216h790v-216zM687 1571q-97 0 -163 34.5t-99 94.5t-33 137v17.5t1 16.5h153q-1 -6 -1 -12.5v-13.5q0 -39 14 -71t45.5 -51t82.5 -19q52 0 83 19t45 51t14 71v13.5t-1 12.5h152
q1 -6 1 -16.5v-17.5q0 -77 -33 -137t-98 -94.5t-163 -34.5z" />
    <glyph glyph-name="abreve" unicode="&#x103;" horiz-adv-x="1104" 
d="M723 730q0 82 -44.5 130.5t-136.5 48.5q-55 0 -95.5 -18.5t-62.5 -50.5t-22 -74h-256q0 89 55.5 165.5t156.5 123.5t238 47q123 0 218.5 -41.5t150.5 -124.5t55 -208v-474q0 -79 11 -136.5t31 -100.5v-17h-261q-19 40 -28.5 103t-9.5 124v503zM760 503h-166
q-128 0 -192 -48.5t-64 -128.5q0 -62 42.5 -103t119.5 -41q72 0 125 29t83 70.5t31 78.5l79 -114q-13 -40 -41 -86t-73.5 -87t-108.5 -67t-146 -26q-105 0 -188.5 42t-131 115.5t-47.5 165.5q0 172 128.5 264.5t367.5 92.5h182v-157zM552 1197q-97 0 -163 34.5t-99 94.5
t-33 137v17.5t1 16.5h153q-1 -6 -1 -12.5v-13.5q0 -39 14 -71t45.5 -51t82.5 -19q52 0 83 19t45 51t14 71v13.5t-1 12.5h152q1 -6 1 -16.5v-17.5q0 -77 -33 -137t-98 -94.5t-163 -34.5z" />
    <glyph glyph-name="Aogonek" unicode="&#x104;" horiz-adv-x="1366" 
d="M295 0h-281l547 1456h177l-18 -217zM646 1239l-20 217h178l549 -1456h-281zM1056 326h-790v216h790v-216zM1177 -383q-105 0 -155.5 45t-50.5 101q0 63 40 112.5t96.5 84.5t104.5 55l141 -15q-19 -12 -37 -23.5t-34 -23.5q-39 -29 -64.5 -61t-25.5 -69q0 -25 19.5 -38
t52.5 -13q21 0 44.5 5t49.5 15v-149q-42 -10 -86 -18t-95 -8z" />
    <glyph glyph-name="aogonek" unicode="&#x105;" horiz-adv-x="1104" 
d="M723 730q0 82 -44.5 130.5t-136.5 48.5q-55 0 -95.5 -18.5t-62.5 -50.5t-22 -74h-256q0 89 55.5 165.5t156.5 123.5t238 47q123 0 218.5 -41.5t150.5 -124.5t55 -208v-474q0 -79 11 -136.5t31 -100.5v-17h-261q-19 40 -28.5 103t-9.5 124v503zM760 503h-166
q-128 0 -192 -48.5t-64 -128.5q0 -62 42.5 -103t119.5 -41q72 0 125 29t83 70.5t31 78.5l79 -114q-13 -40 -41 -86t-73.5 -87t-108.5 -67t-146 -26q-105 0 -188.5 42t-131 115.5t-47.5 165.5q0 172 128.5 264.5t367.5 92.5h182v-157zM846 -383q-105 0 -155.5 45t-50.5 101
q0 63 40 112.5t96.5 84.5t104.5 55l141 -15q-19 -12 -37 -23.5t-34 -23.5q-39 -29 -64.5 -61t-25.5 -69q0 -25 19.5 -38t52.5 -13q21 0 44.5 5t49.5 15v-149q-42 -10 -86 -18t-95 -8z" />
    <glyph glyph-name="Cacute" unicode="&#x106;" horiz-adv-x="1338" 
d="M1263 478q-11 -144 -80 -257t-193 -177t-302 -64q-181 0 -314 84.5t-205 240.5t-72 367v111q0 212 73.5 367.5t208.5 240.5t317 85q177 0 298.5 -64.5t188.5 -179t81 -261.5h-266q-14 137 -80.5 212.5t-221.5 75.5q-109 0 -182.5 -54t-110.5 -159.5t-37 -260.5v-113
q0 -148 33 -254.5t104 -163.5t185 -57q104 0 168 32t97.5 94.5t43.5 154.5h266zM757 1875h286l-275 -303h-207z" />
    <glyph glyph-name="cacute" unicode="&#x107;" horiz-adv-x="1071" 
d="M569 -20q-166 0 -276 73.5t-164 197t-54 273.5v33q0 151 54.5 274.5t164 197t274.5 73.5q131 0 230.5 -51.5t155.5 -144t58 -217.5h-241q-2 57 -27 104t-70.5 75t-109.5 28q-93 0 -143.5 -49t-70 -126.5t-19.5 -163.5v-33q0 -86 19 -163.5t70 -126t146 -48.5
q57 0 102.5 22.5t73 62.5t29.5 93h241q-2 -108 -62 -195t-159.5 -138t-221.5 -51zM654 1501h286l-275 -303h-207z" />
    <glyph glyph-name="Cdotaccent" unicode="&#x10a;" horiz-adv-x="1338" 
d="M1263 478q-11 -144 -80 -257t-193 -177t-302 -64q-181 0 -314 84.5t-205 240.5t-72 367v111q0 212 73.5 367.5t208.5 240.5t317 85q177 0 298.5 -64.5t188.5 -179t81 -261.5h-266q-14 137 -80.5 212.5t-221.5 75.5q-109 0 -182.5 -54t-110.5 -159.5t-37 -260.5v-113
q0 -148 33 -254.5t104 -163.5t185 -57q104 0 168 32t97.5 94.5t43.5 154.5h266zM669 1567q-68 0 -106.5 38.5t-38.5 95.5q0 59 38.5 97.5t106.5 38.5t107 -38.5t39 -97.5q0 -57 -39 -95.5t-107 -38.5z" />
    <glyph glyph-name="cdotaccent" unicode="&#x10b;" horiz-adv-x="1071" 
d="M569 -20q-166 0 -276 73.5t-164 197t-54 273.5v33q0 151 54.5 274.5t164 197t274.5 73.5q131 0 230.5 -51.5t155.5 -144t58 -217.5h-241q-2 57 -27 104t-70.5 75t-109.5 28q-93 0 -143.5 -49t-70 -126.5t-19.5 -163.5v-33q0 -86 19 -163.5t70 -126t146 -48.5
q57 0 102.5 22.5t73 62.5t29.5 93h241q-2 -108 -62 -195t-159.5 -138t-221.5 -51zM566 1193q-68 0 -106.5 38.5t-38.5 95.5q0 59 38.5 97.5t106.5 38.5t107 -38.5t39 -97.5q0 -57 -39 -95.5t-107 -38.5z" />
    <glyph glyph-name="Ccaron" unicode="&#x10c;" horiz-adv-x="1338" 
d="M1263 478q-11 -144 -80 -257t-193 -177t-302 -64q-181 0 -314 84.5t-205 240.5t-72 367v111q0 212 73.5 367.5t208.5 240.5t317 85q177 0 298.5 -64.5t188.5 -179t81 -261.5h-266q-14 137 -80.5 212.5t-221.5 75.5q-109 0 -182.5 -54t-110.5 -159.5t-37 -260.5v-113
q0 -148 33 -254.5t104 -163.5t185 -57q104 0 168 32t97.5 94.5t43.5 154.5h266zM1026 1858l-284 -277h-149l-280 275v14h202l152 -153l153 153h206v-12z" />
    <glyph glyph-name="ccaron" unicode="&#x10d;" horiz-adv-x="1071" 
d="M569 -20q-166 0 -276 73.5t-164 197t-54 273.5v33q0 151 54.5 274.5t164 197t274.5 73.5q131 0 230.5 -51.5t155.5 -144t58 -217.5h-241q-2 57 -27 104t-70.5 75t-109.5 28q-93 0 -143.5 -49t-70 -126.5t-19.5 -163.5v-33q0 -86 19 -163.5t70 -126t146 -48.5
q57 0 102.5 22.5t73 62.5t29.5 93h241q-2 -108 -62 -195t-159.5 -138t-221.5 -51zM922 1484l-283 -277h-149l-280 275v14h202l152 -153l153 153h205v-12z" />
    <glyph glyph-name="Dcaron" unicode="&#x10e;" horiz-adv-x="1336" 
d="M260 0v214h311q131 0 219.5 57t133.5 164t45 257v74q0 154 -45 259.5t-132 160.5t-213 55h-325v215h325q195 0 343 -86t231.5 -241.5t83.5 -364.5v-72q0 -209 -83.5 -364.5t-233 -241.5t-349.5 -86h-311zM409 0h-266v1456h266v-1456zM1024 1858l-283 -277h-150l-279 275
v14h202l152 -153l153 153h205v-12z" />
    <glyph glyph-name="dcaron" unicode="&#x10f;" horiz-adv-x="1206" 
d="M499 -20q-131 0 -226 71.5t-146 195.5t-51 282v21q0 164 51 288.5t146 194t228 69.5q131 0 218.5 -68.5t138 -189t67.5 -278.5v-59q-17 -152 -67 -271t-138 -187.5t-221 -68.5zM564 190q80 0 131.5 35t80 95t38.5 136v160q-6 60 -23.5 111t-47 88t-73.5 57.5t-104 20.5
q-84 0 -135.5 -46t-75 -124t-23.5 -173v-21q0 -94 23 -171t74 -122.5t135 -45.5zM799 0l-25 229v1307h257v-1536h-232zM1232 1536h249l-156 -421h-179z" />
    <glyph glyph-name="Dcroat" unicode="&#x110;" horiz-adv-x="1336" 
d="M669 649h-680v173h680v-173zM260 0v214h311q131 0 219.5 57t133.5 164t45 257v74q0 154 -45 259.5t-132 160.5t-213 55h-325v215h325q195 0 343 -86t231.5 -241.5t83.5 -364.5v-72q0 -209 -83.5 -364.5t-233 -241.5t-349.5 -86h-311zM409 0h-266v1456h266v-1456z" />
    <glyph glyph-name="dcroat" unicode="&#x111;" horiz-adv-x="1159" 
d="M353 1231v162h826v-162h-826zM499 -20q-131 0 -226 71.5t-146 195.5t-51 282v21q0 164 51 288.5t146 194t228 69.5q131 0 218.5 -68.5t138 -189t67.5 -278.5v-59q-17 -152 -67 -271t-138 -187.5t-221 -68.5zM564 190q80 0 131.5 35t80 95t38.5 136v160q-6 60 -23.5 111
t-47 88t-73.5 57.5t-104 20.5q-84 0 -135.5 -46t-75 -124t-23.5 -173v-21q0 -94 23 -171t74 -122.5t135 -45.5zM799 0l-25 229v1307h257v-1536h-232z" />
    <glyph glyph-name="Emacron" unicode="&#x112;" horiz-adv-x="1156" 
d="M1102 0h-769v214h769v-214zM409 0h-266v1456h266v-1456zM1002 645h-669v210h669v-210zM1098 1241h-765v215h765v-215zM955 1666h-685v159h685v-159z" />
    <glyph glyph-name="emacron" unicode="&#x113;" horiz-adv-x="1101" 
d="M604 -20q-163 0 -280.5 69.5t-181 188.5t-63.5 265v41q0 168 64 293.5t176 195t255 69.5q156 0 259.5 -67.5t155.5 -187t52 -276.5v-110h-841v182h588v20q-2 62 -24 115t-68.5 85.5t-122.5 32.5q-79 0 -131.5 -44t-79 -123t-26.5 -185v-41q0 -90 33.5 -162t97 -113.5
t152.5 -41.5q85 0 152.5 33.5t116.5 96.5l133 -135q-51 -76 -154.5 -138.5t-262.5 -62.5zM918 1292h-685v159h685v-159z" />
    <glyph glyph-name="Edotaccent" unicode="&#x116;" horiz-adv-x="1156" 
d="M1102 0h-769v214h769v-214zM409 0h-266v1456h266v-1456zM1002 645h-669v210h669v-210zM1098 1241h-765v215h765v-215zM611 1567q-68 0 -106.5 38.5t-38.5 95.5q0 59 38.5 97.5t106.5 38.5t107 -38.5t39 -97.5q0 -57 -39 -95.5t-107 -38.5z" />
    <glyph glyph-name="edotaccent" unicode="&#x117;" horiz-adv-x="1101" 
d="M604 -20q-163 0 -280.5 69.5t-181 188.5t-63.5 265v41q0 168 64 293.5t176 195t255 69.5q156 0 259.5 -67.5t155.5 -187t52 -276.5v-110h-841v182h588v20q-2 62 -24 115t-68.5 85.5t-122.5 32.5q-79 0 -131.5 -44t-79 -123t-26.5 -185v-41q0 -90 33.5 -162t97 -113.5
t152.5 -41.5q85 0 152.5 33.5t116.5 96.5l133 -135q-51 -76 -154.5 -138.5t-262.5 -62.5zM575 1193q-68 0 -106.5 38.5t-38.5 95.5q0 59 38.5 97.5t106.5 38.5t107 -38.5t39 -97.5q0 -57 -39 -95.5t-107 -38.5z" />
    <glyph glyph-name="Eogonek" unicode="&#x118;" horiz-adv-x="1156" 
d="M1102 0h-769v214h769v-214zM409 0h-266v1456h266v-1456zM1002 645h-669v210h669v-210zM1098 1241h-765v215h765v-215zM926 -383q-105 0 -155.5 45t-50.5 101q0 63 40 112.5t96.5 84.5t104.5 55l141 -15q-19 -12 -37 -23.5t-34 -23.5q-39 -29 -64.5 -61t-25.5 -69
q0 -25 19.5 -38t52.5 -13q21 0 44.5 5t49.5 15v-149q-42 -10 -86 -18t-95 -8z" />
    <glyph glyph-name="eogonek" unicode="&#x119;" horiz-adv-x="1101" 
d="M604 -20q-163 0 -280.5 69.5t-181 188.5t-63.5 265v41q0 168 64 293.5t176 195t255 69.5q156 0 259.5 -67.5t155.5 -187t52 -276.5v-110h-841v182h588v20q-2 62 -24 115t-68.5 85.5t-122.5 32.5q-79 0 -131.5 -44t-79 -123t-26.5 -185v-41q0 -90 33.5 -162t97 -113.5
t152.5 -41.5q85 0 152.5 33.5t116.5 96.5l133 -135q-51 -76 -154.5 -138.5t-262.5 -62.5zM677 -346q-105 0 -155.5 45t-50.5 101q0 63 40 112.5t96.5 84.5t104.5 55l141 -15q-19 -12 -37 -23.5t-34 -23.5q-39 -29 -64.5 -61t-25.5 -69q0 -25 19.5 -38t52.5 -13q21 0 44.5 5
t49.5 15v-149q-42 -10 -86 -18t-95 -8z" />
    <glyph glyph-name="Ecaron" unicode="&#x11a;" horiz-adv-x="1156" 
d="M1102 0h-769v214h769v-214zM409 0h-266v1456h266v-1456zM1002 645h-669v210h669v-210zM1098 1241h-765v215h765v-215zM968 1858l-283 -277h-150l-279 275v14h202l152 -153l153 153h205v-12z" />
    <glyph glyph-name="ecaron" unicode="&#x11b;" horiz-adv-x="1101" 
d="M604 -20q-163 0 -280.5 69.5t-181 188.5t-63.5 265v41q0 168 64 293.5t176 195t255 69.5q156 0 259.5 -67.5t155.5 -187t52 -276.5v-110h-841v182h588v20q-2 62 -24 115t-68.5 85.5t-122.5 32.5q-79 0 -131.5 -44t-79 -123t-26.5 -185v-41q0 -90 33.5 -162t97 -113.5
t152.5 -41.5q85 0 152.5 33.5t116.5 96.5l133 -135q-51 -76 -154.5 -138.5t-262.5 -62.5zM932 1484l-284 -277h-149l-280 275v14h202l152 -153l153 153h206v-12z" />
    <glyph glyph-name="Gbreve" unicode="&#x11e;" horiz-adv-x="1395" 
d="M1271 187q-32 -41 -98 -89t-175 -83t-271 -35q-184 0 -325 82t-220 239t-79 379v96q0 222 73.5 379t208.5 239t320 82q183 0 302 -60t183 -166.5t80 -244.5h-261q-11 76 -44.5 133.5t-95 90.5t-158.5 33q-112 0 -187.5 -56.5t-113 -164.5t-37.5 -263v-98q0 -157 43 -265
t125 -164.5t198 -56.5q82 0 134 13.5t83.5 33t47.5 36.5v276h-292v200h559v-566zM698 1571q-97 0 -163 34.5t-99 94.5t-33 137v17.5t1 16.5h153q-1 -6 -1 -12.5v-13.5q0 -39 14 -71t45.5 -51t82.5 -19q52 0 83 19t45 51t14 71v13.5t-1 12.5h152q1 -6 1 -16.5v-17.5
q0 -77 -33 -137t-98 -94.5t-163 -34.5z" />
    <glyph glyph-name="gbreve" unicode="&#x11f;" horiz-adv-x="1163" 
d="M543 -426q-63 0 -138.5 17.5t-146 56.5t-118.5 101l118 155q56 -65 125.5 -97t146.5 -32q120 0 188 65.5t68 188.5v806l25 247h232v-1049q0 -147 -63 -250t-176 -156t-261 -53zM511 -20q-133 0 -230 71.5t-150 195.5t-53 282v21q0 164 52.5 288.5t150.5 194t232 69.5
q107 0 181.5 -39t123.5 -110.5t77 -170t42 -216.5v-59q-18 -152 -67 -271t-136.5 -187.5t-222.5 -68.5zM576 190q83 0 135 35t81 95t39 136v160q-6 60 -23 111t-47.5 88t-76 57.5t-106.5 20.5q-84 0 -138 -46t-80 -124t-26 -173v-21q0 -94 25.5 -171t79 -122.5t137.5 -45.5z
M582 1197q-97 0 -163 34.5t-99 94.5t-33 137v17.5t1 16.5h153q-1 -6 -1 -12.5v-13.5q0 -39 14 -71t45.5 -51t82.5 -19q52 0 83 19t45 51t14 71v13.5t-1 12.5h152q1 -6 1 -16.5v-17.5q0 -77 -33 -137t-98 -94.5t-163 -34.5z" />
    <glyph glyph-name="Gdotaccent" unicode="&#x120;" horiz-adv-x="1395" 
d="M1271 187q-32 -41 -98 -89t-175 -83t-271 -35q-184 0 -325 82t-220 239t-79 379v96q0 222 73.5 379t208.5 239t320 82q183 0 302 -60t183 -166.5t80 -244.5h-261q-11 76 -44.5 133.5t-95 90.5t-158.5 33q-112 0 -187.5 -56.5t-113 -164.5t-37.5 -263v-98q0 -157 43 -265
t125 -164.5t198 -56.5q82 0 134 13.5t83.5 33t47.5 36.5v276h-292v200h559v-566zM697 1567q-68 0 -106.5 38.5t-38.5 95.5q0 59 38.5 97.5t106.5 38.5t107 -38.5t39 -97.5q0 -57 -39 -95.5t-107 -38.5z" />
    <glyph glyph-name="gdotaccent" unicode="&#x121;" horiz-adv-x="1163" 
d="M543 -426q-63 0 -138.5 17.5t-146 56.5t-118.5 101l118 155q56 -65 125.5 -97t146.5 -32q120 0 188 65.5t68 188.5v806l25 247h232v-1049q0 -147 -63 -250t-176 -156t-261 -53zM511 -20q-133 0 -230 71.5t-150 195.5t-53 282v21q0 164 52.5 288.5t150.5 194t232 69.5
q107 0 181.5 -39t123.5 -110.5t77 -170t42 -216.5v-59q-18 -152 -67 -271t-136.5 -187.5t-222.5 -68.5zM576 190q83 0 135 35t81 95t39 136v160q-6 60 -23 111t-47.5 88t-76 57.5t-106.5 20.5q-84 0 -138 -46t-80 -124t-26 -173v-21q0 -94 25.5 -171t79 -122.5t137.5 -45.5z
M581 1193q-68 0 -106.5 38.5t-38.5 95.5q0 59 38.5 97.5t106.5 38.5t107 -38.5t39 -97.5q0 -57 -39 -95.5t-107 -38.5z" />
    <glyph glyph-name="uni0122" unicode="&#x122;" horiz-adv-x="1395" 
d="M1271 187q-32 -41 -98 -89t-175 -83t-271 -35q-184 0 -325 82t-220 239t-79 379v96q0 222 73.5 379t208.5 239t320 82q183 0 302 -60t183 -166.5t80 -244.5h-261q-11 76 -44.5 133.5t-95 90.5t-158.5 33q-112 0 -187.5 -56.5t-113 -164.5t-37.5 -263v-98q0 -157 43 -265
t125 -164.5t198 -56.5q82 0 134 13.5t83.5 33t47.5 36.5v276h-292v200h559v-566zM843 -315q0 -106 -35 -176.5t-121 -142.5l-136 77q20 33 33.5 55.5t20.5 43.5t10 51.5t3 80.5v157h225v-146z" />
    <glyph glyph-name="uni0123" unicode="&#x123;" horiz-adv-x="1163" 
d="M543 -426q-63 0 -138.5 17.5t-146 56.5t-118.5 101l118 155q56 -65 125.5 -97t146.5 -32q120 0 188 65.5t68 188.5v806l25 247h232v-1049q0 -147 -63 -250t-176 -156t-261 -53zM511 -20q-133 0 -230 71.5t-150 195.5t-53 282v21q0 164 52.5 288.5t150.5 194t232 69.5
q107 0 181.5 -39t123.5 -110.5t77 -170t42 -216.5v-59q-18 -152 -67 -271t-136.5 -187.5t-222.5 -68.5zM576 190q83 0 135 35t81 95t39 136v160q-6 60 -23 111t-47.5 88t-76 57.5t-106.5 20.5q-84 0 -138 -46t-80 -124t-26 -173v-21q0 -94 25.5 -171t79 -122.5t137.5 -45.5z
M453 1428q0 107 35 177.5t121 141.5l136 -77q-21 -33 -34 -55.5t-20 -43.5t-10.5 -51.5t-3.5 -80.5v-157h-224v146z" />
    <glyph glyph-name="Hbar" unicode="&#x126;" horiz-adv-x="1452" 
d="M-11 1073v162h1490v-162h-1490zM1114 640h-764v215h764v-215zM418 0h-266v1456h266v-1456zM1316 0h-266v1456h266v-1456z" />
    <glyph glyph-name="hbar" unicode="&#x127;" horiz-adv-x="1148" 
d="M-26 1231v162h826v-162h-826zM380 0h-256v1536h256v-1536zM257 578q1 152 53.5 270t147 186t220.5 68q107 0 186.5 -40.5t123.5 -130.5t44 -240v-691h-257v693q0 75 -21.5 118.5t-63 62.5t-101.5 19q-64 0 -111 -24t-78.5 -67t-47 -100t-15.5 -123z" />
    <glyph glyph-name="Imacron" unicode="&#x12a;" horiz-adv-x="585" 
d="M426 0h-266v1456h266v-1456zM635 1666h-685v159h685v-159z" />
    <glyph glyph-name="imacron" unicode="&#x12b;" horiz-adv-x="544" 
d="M398 0h-257v1082h257v-1082zM615 1292h-685v159h685v-159z" />
    <glyph glyph-name="Iogonek" unicode="&#x12e;" horiz-adv-x="585" 
d="M426 0h-266v1456h266v-1456zM250 -383q-105 0 -155.5 45t-50.5 101q0 63 40 112.5t96.5 84.5t104.5 55l141 -15q-19 -12 -37 -23.5t-34 -23.5q-39 -29 -64.5 -61t-25.5 -69q0 -25 19.5 -38t52.5 -13q21 0 44.5 5t49.5 15v-149q-42 -10 -86 -18t-95 -8z" />
    <glyph glyph-name="iogonek" unicode="&#x12f;" horiz-adv-x="544" 
d="M398 0h-257v1082h257v-1082zM271 1193q-68 0 -106.5 38.5t-38.5 95.5q0 59 38.5 97.5t106.5 38.5t107 -38.5t39 -97.5q0 -57 -39 -95.5t-107 -38.5zM221 -383q-105 0 -155.5 45t-50.5 101q0 63 40 112.5t96.5 84.5t104.5 55l141 -15q-19 -12 -37 -23.5t-34 -23.5
q-39 -29 -64.5 -61t-25.5 -69q0 -25 19.5 -38t52.5 -13q21 0 44.5 5t49.5 15v-149q-42 -10 -86 -18t-95 -8z" />
    <glyph glyph-name="Idotaccent" unicode="&#x130;" horiz-adv-x="585" 
d="M426 0h-266v1456h266v-1456zM292 1567q-68 0 -106.5 38.5t-38.5 95.5q0 59 38.5 97.5t106.5 38.5t107 -38.5t39 -97.5q0 -57 -39 -95.5t-107 -38.5z" />
    <glyph glyph-name="dotlessi" unicode="&#x131;" horiz-adv-x="544" 
d="M398 0h-257v1082h257v-1082z" />
    <glyph glyph-name="IJ" unicode="&#x132;" horiz-adv-x="1724" 
d="M426 0h-266v1456h266v-1456zM1322 1456h266v-1015q0 -145 -62 -248t-170.5 -158t-246.5 -55q-139 0 -247.5 47.5t-170 145.5t-61.5 248h267q0 -124 58 -175.5t154 -51.5q63 0 111 29t75 83.5t27 134.5v1015z" />
    <glyph glyph-name="ij" unicode="&#x133;" horiz-adv-x="1087" 
d="M267 1499q68 0 107 -38.5t39 -96.5t-39 -96.5t-107 -38.5t-106.5 38.5t-38.5 96.5t38.5 96.5t106.5 38.5zM396 0h-257v1082h257v-1082zM925 1082v-1165q0 -171 -87.5 -262.5t-252.5 -91.5q-33 0 -68 4.5t-67 12.5v203q22 -4 45 -6.5t45 -2.5q62 0 95 33.5t33 109.5v1165
h257zM797 1193q-68 0 -106.5 38.5t-38.5 95.5q0 59 38.5 97.5t106.5 38.5t107 -38.5t39 -97.5q0 -57 -39 -95.5t-107 -38.5z" />
    <glyph glyph-name="uni0136" unicode="&#x136;" horiz-adv-x="1295" 
d="M409 0h-266v1456h266v-1456zM697 747l-337 -358l-47 265l235 302l409 500h326zM528 682l186 179l594 -861h-317zM764 -315q0 -106 -35 -176.5t-121 -142.5l-136 77q20 33 33.5 55.5t20.5 43.5t10 51.5t3 80.5v157h225v-146z" />
    <glyph glyph-name="uni0137" unicode="&#x137;" horiz-adv-x="1077" 
d="M378 0h-257v1536h257v-1536zM582 555l-260 -264l-72 209l197 247l295 335h308zM454 503l165 173l471 -676h-297zM655 -315q0 -106 -35 -176.5t-121 -142.5l-136 77q20 33 33.5 55.5t20.5 43.5t10 51.5t3 80.5v157h225v-146z" />
    <glyph glyph-name="Lacute" unicode="&#x139;" horiz-adv-x="1107" 
d="M1063 0h-730v214h730v-214zM409 0h-266v1456h266v-1456zM362 1875h286l-275 -303h-207z" />
    <glyph glyph-name="lacute" unicode="&#x13a;" horiz-adv-x="529" 
d="M393 0h-257v1536h257v-1536zM352 1955h286l-275 -303h-207z" />
    <glyph glyph-name="uni013B" unicode="&#x13b;" horiz-adv-x="1107" 
d="M1063 0h-730v214h730v-214zM409 0h-266v1456h266v-1456zM730 -315q0 -106 -35 -176.5t-121 -142.5l-136 77q20 33 33.5 55.5t20.5 43.5t10 51.5t3 80.5v157h225v-146z" />
    <glyph glyph-name="uni013C" unicode="&#x13c;" horiz-adv-x="529" 
d="M393 0h-257v1536h257v-1536zM381 -315q0 -106 -35 -176.5t-121 -142.5l-136 77q20 33 33.5 55.5t20.5 43.5t10 51.5t3 80.5v157h225v-146z" />
    <glyph glyph-name="Lcaron" unicode="&#x13d;" horiz-adv-x="1107" 
d="M1063 0h-730v214h730v-214zM409 0h-266v1456h266v-1456zM868 1456h249l-156 -421h-179z" />
    <glyph glyph-name="lcaron" unicode="&#x13e;" horiz-adv-x="573" 
d="M393 0h-257v1536h257v-1536zM593 1536h249l-156 -421h-179z" />
    <glyph glyph-name="Lslash" unicode="&#x141;" horiz-adv-x="1150" 
d="M42 379l-106 120l764 589l106 -120zM1106 0h-730v214h730v-214zM452 0h-267v1456h267v-1456z" />
    <glyph glyph-name="lslash" unicode="&#x142;" horiz-adv-x="774" 
d="M10 445l-104 122l764 589l104 -122zM433 0h-257v1536h257v-1536z" />
    <glyph glyph-name="Nacute" unicode="&#x143;" horiz-adv-x="1451" 
d="M1307 0h-267l-631 1012v-1012h-266v1456h266l633 -1014v1014h265v-1456zM813 1875h286l-275 -303h-207z" />
    <glyph glyph-name="nacute" unicode="&#x144;" horiz-adv-x="1142" 
d="M373 0h-256v1082h241l15 -231v-851zM250 578q1 158 54.5 275.5t150.5 183t226 65.5q104 0 181 -39.5t119.5 -128.5t42.5 -239v-695h-257v697q0 74 -21 117t-62.5 61t-101.5 18q-61 0 -107.5 -24t-79 -67t-49 -100t-16.5 -123zM659 1501h286l-275 -303h-207z" />
    <glyph glyph-name="uni0145" unicode="&#x145;" horiz-adv-x="1451" 
d="M1307 0h-267l-631 1012v-1012h-266v1456h266l633 -1014v1014h265v-1456zM842 -315q0 -106 -35 -176.5t-121 -142.5l-136 77q20 33 33.5 55.5t20.5 43.5t10 51.5t3 80.5v157h225v-146z" />
    <glyph glyph-name="uni0146" unicode="&#x146;" horiz-adv-x="1142" 
d="M373 0h-256v1082h241l15 -231v-851zM250 578q1 158 54.5 275.5t150.5 183t226 65.5q104 0 181 -39.5t119.5 -128.5t42.5 -239v-695h-257v697q0 74 -21 117t-62.5 61t-101.5 18q-61 0 -107.5 -24t-79 -67t-49 -100t-16.5 -123zM688 -315q0 -106 -35 -176.5t-121 -142.5
l-136 77q20 33 33.5 55.5t20.5 43.5t10 51.5t3 80.5v157h225v-146z" />
    <glyph glyph-name="Ncaron" unicode="&#x147;" horiz-adv-x="1451" 
d="M1307 0h-267l-631 1012v-1012h-266v1456h266l633 -1014v1014h265v-1456zM1082 1858l-283 -277h-150l-280 275v14h203l151 -153l154 153h205v-12z" />
    <glyph glyph-name="ncaron" unicode="&#x148;" horiz-adv-x="1142" 
d="M373 0h-256v1082h241l15 -231v-851zM250 578q1 158 54.5 275.5t150.5 183t226 65.5q104 0 181 -39.5t119.5 -128.5t42.5 -239v-695h-257v697q0 74 -21 117t-62.5 61t-101.5 18q-61 0 -107.5 -24t-79 -67t-49 -100t-16.5 -123zM927 1484l-283 -277h-149l-280 275v14h202
l152 -153l153 153h205v-12z" />
    <glyph glyph-name="Eng" unicode="&#x14a;" horiz-adv-x="1451" 
d="M966 -437q-33 0 -68 4.5t-67 12.5v203q22 -4 45.5 -6.5t44.5 -2.5q62 0 95.5 33.5t33.5 109.5v83h-10l-631 1012v-1012h-266v1456h266l633 -1014v1014h265v-1539q0 -171 -88 -262.5t-253 -91.5z" />
    <glyph glyph-name="eng" unicode="&#x14b;" horiz-adv-x="1142" 
d="M684 -437q-33 0 -68 4.5t-67 12.5v203q22 -4 45.5 -6.5t44.5 -2.5q62 0 95 33.5t33 109.5v780q0 74 -21 117t-62.5 61t-101.5 18q-61 0 -107.5 -24t-79 -67t-49 -100t-16.5 -123l-80 -1q1 158 54.5 275.5t150.5 183t226 65.5q104 0 181 -39.5t119.5 -128.5t42.5 -239
v-778q0 -171 -87.5 -262.5t-252.5 -91.5zM117 0v1082h241l15 -231v-851h-256z" />
    <glyph glyph-name="Omacron" unicode="&#x14c;" horiz-adv-x="1413" 
d="M1315 691q0 -221 -76.5 -380.5t-213 -245t-317.5 -85.5q-179 0 -317.5 85.5t-216.5 245t-78 380.5v73q0 221 77.5 380.5t215.5 245.5t317 86q181 0 318 -86t214 -245.5t77 -380.5v-73zM1047 766q0 160 -40.5 268.5t-116.5 164.5t-184 56q-107 0 -183.5 -56t-117 -164.5
t-40.5 -268.5v-75q0 -159 41 -268.5t118 -166t184 -56.5q108 0 184 56.5t115.5 166t39.5 268.5v75zM1049 1666h-685v159h685v-159z" />
    <glyph glyph-name="omacron" unicode="&#x14d;" horiz-adv-x="1162" 
d="M75 551q0 158 60 282t172.5 196.5t271.5 72.5q161 0 275 -72.5t173.5 -196.5t59.5 -282v-21q0 -157 -59.5 -281.5t-173 -196.5t-273.5 -72t-273 72t-173 196.5t-60 281.5v21zM331 530q0 -94 26 -172.5t81 -125t143 -46.5t143 46.5t80.5 125t25.5 172.5v21
q0 93 -25.5 171.5t-81 126t-144.5 47.5q-87 0 -142 -47.5t-80.5 -126t-25.5 -171.5v-21zM924 1292h-685v159h685v-159z" />
    <glyph glyph-name="Ohungarumlaut" unicode="&#x150;" horiz-adv-x="1413" 
d="M1315 691q0 -221 -76.5 -380.5t-213 -245t-317.5 -85.5q-179 0 -317.5 85.5t-216.5 245t-78 380.5v73q0 221 77.5 380.5t215.5 245.5t317 86q181 0 318 -86t214 -245.5t77 -380.5v-73zM1047 766q0 160 -40.5 268.5t-116.5 164.5t-184 56q-107 0 -183.5 -56t-117 -164.5
t-40.5 -268.5v-75q0 -159 41 -268.5t118 -166t184 -56.5q108 0 184 56.5t115.5 166t39.5 268.5v75zM566 1875h258l-193 -303h-179zM906 1875h258l-193 -303h-179z" />
    <glyph glyph-name="ohungarumlaut" unicode="&#x151;" horiz-adv-x="1162" 
d="M75 551q0 158 60 282t172.5 196.5t271.5 72.5q161 0 275 -72.5t173.5 -196.5t59.5 -282v-21q0 -157 -59.5 -281.5t-173 -196.5t-273.5 -72t-273 72t-173 196.5t-60 281.5v21zM331 530q0 -94 26 -172.5t81 -125t143 -46.5t143 46.5t80.5 125t25.5 172.5v21
q0 93 -25.5 171.5t-81 126t-144.5 47.5q-87 0 -142 -47.5t-80.5 -126t-25.5 -171.5v-21zM441 1501h258l-193 -303h-179zM781 1501h258l-193 -303h-179z" />
    <glyph glyph-name="OE" unicode="&#x152;" horiz-adv-x="1974" 
d="M689 -21q-175 0 -307.5 75.5t-207.5 210.5t-75 311v304q0 177 74.5 311.5t206.5 210t307 75.5q76 0 150.5 -6.5t140.5 -14.5v-213q-65 11 -138.5 19t-152.5 8q-102 0 -176 -43.5t-114.5 -129.5t-40.5 -215v-306q0 -128 41 -215.5t115.5 -131t176.5 -43.5q78 0 151.5 7.5
t137.5 19.5v-213q-66 -7 -139.5 -14t-149.5 -7zM1852 0h-769v214h769v-214zM1159 0h-267v1456h267v-1456zM1751 645h-668v210h668v-210zM1847 1241h-764v215h764v-215z" />
    <glyph glyph-name="oe" unicode="&#x153;" horiz-adv-x="1851" 
d="M590 -21q-160 0 -272 72.5t-171 197t-59 281.5v21q0 158 59 282t170.5 196.5t270.5 72.5q161 0 273 -72.5t170.5 -196.5t58.5 -282v-21q0 -157 -58.5 -281.5t-170 -197t-271.5 -72.5zM590 186q88 0 141.5 47t78 125t24.5 172v21q0 93 -24.5 171.5t-78.5 126t-143 47.5
q-87 0 -141 -47.5t-78.5 -126t-24.5 -171.5v-21q0 -94 25 -172t78.5 -125t142.5 -47zM1350 -21q-156 0 -269.5 70t-175 191t-61.5 273v41q0 158 61 282.5t169 195.5t249 70q150 0 251 -61t152.5 -170.5t51.5 -255.5v-149h-813v182h560v26q0 62 -21 112.5t-65.5 80
t-115.5 29.5q-72 0 -122 -46.5t-75 -124.5t-25 -171v-41q0 -88 29.5 -162.5t89.5 -119.5t150 -45q109 0 177.5 25t126.5 63l77 -167q-55 -48 -156 -88t-245 -40z" />
    <glyph glyph-name="Racute" unicode="&#x154;" horiz-adv-x="1291" 
d="M665 1456q167 0 285.5 -50t181 -148t62.5 -241q0 -112 -39.5 -195t-112.5 -139t-173 -88l-81 -43h-462v215h340q88 0 146 30t86.5 83t28.5 121q0 110 -63 175t-199 65h-256v-1241h-266v1456h522zM628 654h281l343 -640v-14h-286zM733 1875h286l-275 -303h-207z" />
    <glyph glyph-name="racute" unicode="&#x155;" horiz-adv-x="730" 
d="M377 0h-256v1082h243l13 -218v-864zM702 845q-23 4 -49.5 6t-51.5 2q-81 0 -135 -28.5t-81.5 -82t-32.5 -127.5l-57 4q0 137 36 246.5t107.5 173t178.5 63.5q21 0 47 -3.5t40 -9.5zM453 1501h286l-275 -303h-207z" />
    <glyph glyph-name="uni0156" unicode="&#x156;" horiz-adv-x="1291" 
d="M665 1456q167 0 285.5 -50t181 -148t62.5 -241q0 -112 -39.5 -195t-112.5 -139t-173 -88l-81 -43h-462v215h340q88 0 146 30t86.5 83t28.5 121q0 110 -63 175t-199 65h-256v-1241h-266v1456h522zM628 654h281l343 -640v-14h-286zM762 -315q0 -106 -35 -176.5t-121 -142.5
l-136 77q20 33 33.5 55.5t20.5 43.5t10 51.5t3 80.5v157h225v-146z" />
    <glyph glyph-name="uni0157" unicode="&#x157;" horiz-adv-x="730" 
d="M377 0h-256v1082h243l13 -218v-864zM702 845q-23 4 -49.5 6t-51.5 2q-81 0 -135 -28.5t-81.5 -82t-32.5 -127.5l-57 4q0 137 36 246.5t107.5 173t178.5 63.5q21 0 47 -3.5t40 -9.5zM367 -315q0 -106 -35 -176.5t-121 -142.5l-136 77q20 33 33.5 55.5t20.5 43.5t10 51.5
t3 80.5v157h225v-146z" />
    <glyph glyph-name="Rcaron" unicode="&#x158;" horiz-adv-x="1291" 
d="M665 1456q167 0 285.5 -50t181 -148t62.5 -241q0 -112 -39.5 -195t-112.5 -139t-173 -88l-81 -43h-462v215h340q88 0 146 30t86.5 83t28.5 121q0 110 -63 175t-199 65h-256v-1241h-266v1456h522zM628 654h281l343 -640v-14h-286zM1002 1858l-283 -277h-150l-280 275v14
h203l151 -153l154 153h205v-12z" />
    <glyph glyph-name="rcaron" unicode="&#x159;" horiz-adv-x="730" 
d="M377 0h-256v1082h243l13 -218v-864zM702 845q-23 4 -49.5 6t-51.5 2q-81 0 -135 -28.5t-81.5 -82t-32.5 -127.5l-57 4q0 137 36 246.5t107.5 173t178.5 63.5q21 0 47 -3.5t40 -9.5zM721 1484l-283 -277h-150l-279 275v14h202l152 -153l153 153h205v-12z" />
    <glyph glyph-name="Sacute" unicode="&#x15a;" horiz-adv-x="1245" 
d="M649 -20q-106 0 -208 28.5t-185.5 86.5t-133 145.5t-49.5 206.5h267q0 -69 23.5 -117.5t65.5 -79.5t98 -45t122 -14q86 0 142 24t84.5 66t28.5 97q0 57 -24 97.5t-89.5 76t-190.5 73.5q-102 31 -189.5 71t-153.5 93t-102.5 122.5t-36.5 161.5q0 119 66.5 210t184.5 142
t272 51q164 0 282.5 -59.5t182.5 -160.5t64 -226h-267q0 68 -28.5 121t-87 82.5t-149.5 29.5q-85 0 -141.5 -25t-84 -68t-27.5 -97q0 -53 33.5 -93t101.5 -72.5t169 -63.5q162 -47 269 -110.5t160 -150t53 -203.5q0 -124 -64.5 -214t-181.5 -138t-276 -48zM710 1875h286
l-275 -303h-207z" />
    <glyph glyph-name="sacute" unicode="&#x15b;" horiz-adv-x="1055" 
d="M528 -20q-149 0 -251.5 53.5t-155 136.5t-52.5 171h246q4 -62 35.5 -100.5t80 -55.5t101.5 -17q62 0 104 16.5t63.5 45t21.5 66.5q0 34 -17.5 61t-67 50t-145.5 43q-114 24 -201 64t-136.5 103.5t-49.5 154.5q0 89 51 164t146 120.5t225 45.5q137 0 235.5 -45.5
t151.5 -123t53 -176.5h-256q0 64 -46 110.5t-139 46.5q-56 0 -95 -18t-58 -47.5t-19 -64.5q0 -34 19.5 -59.5t66.5 -45t131 -37.5q122 -25 212.5 -64.5t140 -104t49.5 -165.5q0 -95 -54.5 -169.5t-154.5 -116.5t-235 -42zM616 1501h286l-275 -303h-207z" />
    <glyph glyph-name="Scedilla" unicode="&#x15e;" horiz-adv-x="1245" 
d="M649 -20q-106 0 -208 28.5t-185.5 86.5t-133 145.5t-49.5 206.5h267q0 -69 23.5 -117.5t65.5 -79.5t98 -45t122 -14q86 0 142 24t84.5 66t28.5 97q0 57 -24 97.5t-89.5 76t-190.5 73.5q-102 31 -189.5 71t-153.5 93t-102.5 122.5t-36.5 161.5q0 119 66.5 210t184.5 142
t272 51q164 0 282.5 -59.5t182.5 -160.5t64 -226h-267q0 68 -28.5 121t-87 82.5t-149.5 29.5q-85 0 -141.5 -25t-84 -68t-27.5 -97q0 -53 33.5 -93t101.5 -72.5t169 -63.5q162 -47 269 -110.5t160 -150t53 -203.5q0 -124 -64.5 -214t-181.5 -138t-276 -48zM735 5l-12 -56
q57 -10 104 -48.5t47 -124.5q0 -104 -85 -166.5t-250 -62.5l-7 146q37 0 66.5 9t47 28.5t17.5 50.5q0 44 -35.5 60.5t-113.5 22.5l31 141h190z" />
    <glyph glyph-name="scedilla" unicode="&#x15f;" horiz-adv-x="1055" 
d="M528 -20q-149 0 -251.5 53.5t-155 136.5t-52.5 171h246q4 -62 35.5 -100.5t80 -55.5t101.5 -17q62 0 104 16.5t63.5 45t21.5 66.5q0 34 -17.5 61t-67 50t-145.5 43q-114 24 -201 64t-136.5 103.5t-49.5 154.5q0 89 51 164t146 120.5t225 45.5q137 0 235.5 -45.5
t151.5 -123t53 -176.5h-256q0 64 -46 110.5t-139 46.5q-56 0 -95 -18t-58 -47.5t-19 -64.5q0 -34 19.5 -59.5t66.5 -45t131 -37.5q122 -25 212.5 -64.5t140 -104t49.5 -165.5q0 -95 -54.5 -169.5t-154.5 -116.5t-235 -42zM601 5l-12 -56q57 -10 104 -48.5t47 -124.5
q0 -104 -85 -166.5t-250 -62.5l-7 146q37 0 66.5 9t47 28.5t17.5 50.5q0 44 -35.5 60.5t-113.5 22.5l31 141h190z" />
    <glyph glyph-name="Scaron" unicode="&#x160;" horiz-adv-x="1245" 
d="M649 -20q-106 0 -208 28.5t-185.5 86.5t-133 145.5t-49.5 206.5h267q0 -69 23.5 -117.5t65.5 -79.5t98 -45t122 -14q86 0 142 24t84.5 66t28.5 97q0 57 -24 97.5t-89.5 76t-190.5 73.5q-102 31 -189.5 71t-153.5 93t-102.5 122.5t-36.5 161.5q0 119 66.5 210t184.5 142
t272 51q164 0 282.5 -59.5t182.5 -160.5t64 -226h-267q0 68 -28.5 121t-87 82.5t-149.5 29.5q-85 0 -141.5 -25t-84 -68t-27.5 -97q0 -53 33.5 -93t101.5 -72.5t169 -63.5q162 -47 269 -110.5t160 -150t53 -203.5q0 -124 -64.5 -214t-181.5 -138t-276 -48zM979 1858
l-284 -277h-149l-280 275v14h202l152 -153l153 153h206v-12z" />
    <glyph glyph-name="scaron" unicode="&#x161;" horiz-adv-x="1055" 
d="M528 -20q-149 0 -251.5 53.5t-155 136.5t-52.5 171h246q4 -62 35.5 -100.5t80 -55.5t101.5 -17q62 0 104 16.5t63.5 45t21.5 66.5q0 34 -17.5 61t-67 50t-145.5 43q-114 24 -201 64t-136.5 103.5t-49.5 154.5q0 89 51 164t146 120.5t225 45.5q137 0 235.5 -45.5
t151.5 -123t53 -176.5h-256q0 64 -46 110.5t-139 46.5q-56 0 -95 -18t-58 -47.5t-19 -64.5q0 -34 19.5 -59.5t66.5 -45t131 -37.5q122 -25 212.5 -64.5t140 -104t49.5 -165.5q0 -95 -54.5 -169.5t-154.5 -116.5t-235 -42zM884 1484l-283 -277h-150l-279 275v14h202l152 -153
l153 153h205v-12z" />
    <glyph glyph-name="Tcaron" unicode="&#x164;" horiz-adv-x="1252" 
d="M757 0h-265v1456h265v-1456zM1209 1241h-1165v215h1165v-215zM982 1858l-283 -277h-149l-280 275v14h202l152 -153l153 153h205v-12z" />
    <glyph glyph-name="tcaron" unicode="&#x165;" horiz-adv-x="685" 
d="M627 893h-617v189h617v-189zM437 1347v-1037q0 -49 14 -74.5t39.5 -34.5t60.5 -9q25 0 48 3t36 6v-197q-31 -10 -71 -17t-93 -7q-85 0 -151 30.5t-102.5 98.5t-36.5 181v1057h256zM635 1628h249l-156 -421h-179z" />
    <glyph glyph-name="Umacron" unicode="&#x16a;" horiz-adv-x="1341" 
d="M1220 1456v-968q0 -167 -72.5 -280t-196.5 -170.5t-279 -57.5q-158 0 -282.5 57.5t-195 170.5t-70.5 280v968h266v-968q0 -102 34 -166.5t97.5 -96t150.5 -31.5q88 0 150.5 31.5t96.5 96t34 166.5v968h267zM1014 1666h-685v159h685v-159z" />
    <glyph glyph-name="umacron" unicode="&#x16b;" horiz-adv-x="1141" 
d="M766 1082h257v-1082h-242l-15 256v826zM884 484q0 -145 -43 -259t-134 -179.5t-234 -65.5q-160 0 -259 94t-99 309v699h256v-701q0 -73 22.5 -114.5t61 -59t84.5 -17.5q99 0 156 38.5t81.5 105t24.5 148.5zM913 1292h-685v159h685v-159z" />
    <glyph glyph-name="Ubreve" unicode="&#x16c;" horiz-adv-x="1341" 
d="M1220 1456v-968q0 -167 -72.5 -280t-196.5 -170.5t-279 -57.5q-158 0 -282.5 57.5t-195 170.5t-70.5 280v968h266v-968q0 -102 34 -166.5t97.5 -96t150.5 -31.5q88 0 150.5 31.5t96.5 96t34 166.5v968h267zM671 1571q-97 0 -163 34.5t-99 94.5t-33 137v17.5t1 16.5h153
q-1 -6 -1 -12.5v-13.5q0 -39 14 -71t45.5 -51t82.5 -19q52 0 83 19t45 51t14 71v13.5t-1 12.5h152q1 -6 1 -16.5v-17.5q0 -77 -33 -137t-98 -94.5t-163 -34.5z" />
    <glyph glyph-name="ubreve" unicode="&#x16d;" horiz-adv-x="1141" 
d="M766 1082h257v-1082h-242l-15 256v826zM884 484q0 -145 -43 -259t-134 -179.5t-234 -65.5q-160 0 -259 94t-99 309v699h256v-701q0 -73 22.5 -114.5t61 -59t84.5 -17.5q99 0 156 38.5t81.5 105t24.5 148.5zM570 1197q-97 0 -163 34.5t-99 94.5t-33 137v17.5t1 16.5h153
q-1 -6 -1 -12.5v-13.5q0 -39 14 -71t45.5 -51t82.5 -19q52 0 83 19t45 51t14 71v13.5t-1 12.5h152q1 -6 1 -16.5v-17.5q0 -77 -33 -137t-98 -94.5t-163 -34.5z" />
    <glyph glyph-name="Uring" unicode="&#x16e;" horiz-adv-x="1341" 
d="M1220 1456v-968q0 -167 -72.5 -280t-196.5 -170.5t-279 -57.5q-158 0 -282.5 57.5t-195 170.5t-70.5 280v968h266v-968q0 -102 34 -166.5t97.5 -96t150.5 -31.5q88 0 150.5 31.5t96.5 96t34 166.5v968h267zM671 1571q-95 0 -158 58.5t-63 143.5t63 145.5t158 60.5
q94 0 157 -60.5t63 -145.5t-63 -143.5t-157 -58.5zM671 1673q45 0 73 30t28 70q0 41 -28 72t-73 31q-46 0 -73.5 -31t-27.5 -72q0 -40 27.5 -70t73.5 -30z" />
    <glyph glyph-name="uring" unicode="&#x16f;" horiz-adv-x="1141" 
d="M766 1082h257v-1082h-242l-15 256v826zM884 484q0 -145 -43 -259t-134 -179.5t-234 -65.5q-160 0 -259 94t-99 309v699h256v-701q0 -73 22.5 -114.5t61 -59t84.5 -17.5q99 0 156 38.5t81.5 105t24.5 148.5zM571 1197q-95 0 -158 58.5t-63 143.5t63 145.5t158 60.5
q94 0 157 -60.5t63 -145.5t-63 -143.5t-157 -58.5zM571 1299q45 0 73 30t28 70q0 41 -28 72t-73 31q-46 0 -73.5 -31t-27.5 -72q0 -40 27.5 -70t73.5 -30z" />
    <glyph glyph-name="Uhungarumlaut" unicode="&#x170;" horiz-adv-x="1341" 
d="M1220 1456v-968q0 -167 -72.5 -280t-196.5 -170.5t-279 -57.5q-158 0 -282.5 57.5t-195 170.5t-70.5 280v968h266v-968q0 -102 34 -166.5t97.5 -96t150.5 -31.5q88 0 150.5 31.5t96.5 96t34 166.5v968h267zM531 1875h258l-193 -303h-179zM871 1875h258l-193 -303h-179z
" />
    <glyph glyph-name="uhungarumlaut" unicode="&#x171;" horiz-adv-x="1141" 
d="M766 1082h257v-1082h-242l-15 256v826zM884 484q0 -145 -43 -259t-134 -179.5t-234 -65.5q-160 0 -259 94t-99 309v699h256v-701q0 -73 22.5 -114.5t61 -59t84.5 -17.5q99 0 156 38.5t81.5 105t24.5 148.5zM430 1501h258l-193 -303h-179zM770 1501h258l-193 -303h-179z
" />
    <glyph glyph-name="Uogonek" unicode="&#x172;" horiz-adv-x="1341" 
d="M1220 1456v-968q0 -167 -72.5 -280t-196.5 -170.5t-279 -57.5q-158 0 -282.5 57.5t-195 170.5t-70.5 280v968h266v-968q0 -102 34 -166.5t97.5 -96t150.5 -31.5q88 0 150.5 31.5t96.5 96t34 166.5v968h267zM801 -333q-105 0 -155.5 45t-50.5 101q0 63 40 112.5t96.5 84.5
t104.5 55l141 -15q-19 -12 -37 -23.5t-34 -23.5q-39 -29 -64.5 -61t-25.5 -69q0 -25 19.5 -38t52.5 -13q21 0 44.5 5t49.5 15v-149q-42 -10 -86 -18t-95 -8z" />
    <glyph glyph-name="uogonek" unicode="&#x173;" horiz-adv-x="1141" 
d="M766 1082h257v-1082h-242l-15 256v826zM884 484q0 -145 -43 -259t-134 -179.5t-234 -65.5q-160 0 -259 94t-99 309v699h256v-701q0 -73 22.5 -114.5t61 -59t84.5 -17.5q99 0 156 38.5t81.5 105t24.5 148.5zM847 -383q-105 0 -155.5 45t-50.5 101q0 63 40 112.5t96.5 84.5
t104.5 55l141 -15q-19 -12 -37 -23.5t-34 -23.5q-39 -29 -64.5 -61t-25.5 -69q0 -25 19.5 -38t52.5 -13q21 0 44.5 5t49.5 15v-149q-42 -10 -86 -18t-95 -8z" />
    <glyph glyph-name="Wcircumflex" unicode="&#x174;" horiz-adv-x="1800" 
d="M794 1456h157l-5 -259l-308 -1197h-165l33 291zM543 296l10 -296h-177l-332 1456h265zM1498 1456h266l-332 -1456h-177l13 300zM1304 287l31 -287h-165l-304 1197l-3 259h155zM1264 1598v-12h-205l-153 153l-152 -153h-202v14l280 275h149z" />
    <glyph glyph-name="wcircumflex" unicode="&#x175;" horiz-adv-x="1516" 
d="M661 1082h163l-44 -275l-247 -807h-143l26 254zM470 252l13 -252h-162l-288 1082h249zM1230 1082h249l-288 -1082h-162l19 262zM1094 262l28 -262h-144l-249 807l-43 275h165zM1116 1224v-12h-205l-153 153l-152 -153h-202v14l280 275h149z" />
    <glyph glyph-name="Ycircumflex" unicode="&#x176;" horiz-adv-x="1255" 
d="M627 776l326 680h294l-486 -922v-534h-269v534l-486 922h295zM985 1598v-12h-205l-153 153l-152 -153h-202v14l280 275h149z" />
    <glyph glyph-name="ycircumflex" unicode="&#x177;" horiz-adv-x="1009" 
d="M725 1082h273l-432 -1246q-15 -40 -39.5 -87t-63 -89.5t-96.5 -69.5t-140 -27q-22 0 -42.5 2.5t-39.5 6.5t-38 9v197q9 -1 23 -2t23 -1q89 0 133.5 31t69.5 105l78 209zM533 287l44 -278l-177 -35l-390 1108h276zM862 1224v-12h-205l-153 153l-152 -153h-202v14l280 275
h149z" />
    <glyph glyph-name="Ydieresis" unicode="&#x178;" horiz-adv-x="1255" 
d="M627 776l326 680h294l-486 -922v-534h-269v534l-486 922h295zM861 1567q-58 0 -93.5 34.5t-35.5 85.5q0 50 35.5 85t93.5 35t94 -35t36 -85q0 -51 -36 -85.5t-94 -34.5zM393 1567q-59 0 -94.5 34.5t-35.5 85.5q0 50 35.5 85t94.5 35q58 0 93.5 -35t35.5 -85
q0 -51 -35.5 -85.5t-93.5 -34.5z" />
    <glyph glyph-name="Zacute" unicode="&#x179;" horiz-adv-x="1237" 
d="M1170 0h-1014v214h1014v-214zM259 0h-181v166l894 1290h177v-161zM1052 1241h-970v215h970v-215zM706 1875h286l-275 -303h-207z" />
    <glyph glyph-name="zacute" unicode="&#x17a;" horiz-adv-x="1034" 
d="M964 0h-808v206h808v-206zM247 0h-168v163l695 919h170v-158zM848 875h-756v207h756v-207zM605 1501h286l-275 -303h-207z" />
    <glyph glyph-name="Zdotaccent" unicode="&#x17b;" horiz-adv-x="1237" 
d="M1170 0h-1014v214h1014v-214zM259 0h-181v166l894 1290h177v-161zM1052 1241h-970v215h970v-215zM618 1567q-68 0 -106.5 38.5t-38.5 95.5q0 59 38.5 97.5t106.5 38.5t107 -38.5t39 -97.5q0 -57 -39 -95.5t-107 -38.5z" />
    <glyph glyph-name="zdotaccent" unicode="&#x17c;" horiz-adv-x="1034" 
d="M964 0h-808v206h808v-206zM247 0h-168v163l695 919h170v-158zM848 875h-756v207h756v-207zM517 1193q-68 0 -106.5 38.5t-38.5 95.5q0 59 38.5 97.5t106.5 38.5t107 -38.5t39 -97.5q0 -57 -39 -95.5t-107 -38.5z" />
    <glyph glyph-name="Zcaron" unicode="&#x17d;" horiz-adv-x="1237" 
d="M1170 0h-1014v214h1014v-214zM259 0h-181v166l894 1290h177v-161zM1052 1241h-970v215h970v-215zM974 1858l-283 -277h-149l-280 275v14h202l152 -153l153 153h205v-12z" />
    <glyph glyph-name="zcaron" unicode="&#x17e;" horiz-adv-x="1034" 
d="M964 0h-808v206h808v-206zM247 0h-168v163l695 919h170v-158zM848 875h-756v207h756v-207zM873 1484l-283 -277h-149l-280 275v14h202l152 -153l153 153h205v-12z" />
    <glyph glyph-name="longs" unicode="&#x17f;" horiz-adv-x="525" 
d="M131 0v1183q0 181 101 277.5t279 96.5q39 0 77 -6t77 -15l-24 -196q-20 5 -42 8t-52 3q-77 0 -118.5 -44.5t-41.5 -123.5v-1183h-256z" />
    <glyph glyph-name="uni0218" unicode="&#x218;" horiz-adv-x="1245" 
d="M649 -20q-106 0 -208 28.5t-185.5 86.5t-133 145.5t-49.5 206.5h267q0 -69 23.5 -117.5t65.5 -79.5t98 -45t122 -14q86 0 142 24t84.5 66t28.5 97q0 57 -24 97.5t-89.5 76t-190.5 73.5q-102 31 -189.5 71t-153.5 93t-102.5 122.5t-36.5 161.5q0 119 66.5 210t184.5 142
t272 51q164 0 282.5 -59.5t182.5 -160.5t64 -226h-267q0 68 -28.5 121t-87 82.5t-149.5 29.5q-85 0 -141.5 -25t-84 -68t-27.5 -97q0 -53 33.5 -93t101.5 -72.5t169 -63.5q162 -47 269 -110.5t160 -150t53 -203.5q0 -124 -64.5 -214t-181.5 -138t-276 -48zM739 -315
q0 -106 -35 -176.5t-121 -142.5l-136 77q20 33 33.5 55.5t20.5 43.5t10 51.5t3 80.5v157h225v-146z" />
    <glyph glyph-name="uni0219" unicode="&#x219;" horiz-adv-x="1055" 
d="M528 -20q-149 0 -251.5 53.5t-155 136.5t-52.5 171h246q4 -62 35.5 -100.5t80 -55.5t101.5 -17q62 0 104 16.5t63.5 45t21.5 66.5q0 34 -17.5 61t-67 50t-145.5 43q-114 24 -201 64t-136.5 103.5t-49.5 154.5q0 89 51 164t146 120.5t225 45.5q137 0 235.5 -45.5
t151.5 -123t53 -176.5h-256q0 64 -46 110.5t-139 46.5q-56 0 -95 -18t-58 -47.5t-19 -64.5q0 -34 19.5 -59.5t66.5 -45t131 -37.5q122 -25 212.5 -64.5t140 -104t49.5 -165.5q0 -95 -54.5 -169.5t-154.5 -116.5t-235 -42zM644 -315q0 -106 -35 -176.5t-121 -142.5l-136 77
q20 33 33.5 55.5t20.5 43.5t10 51.5t3 80.5v157h225v-146z" />
    <glyph glyph-name="uni021A" unicode="&#x21a;" horiz-adv-x="1252" 
d="M757 0h-265v1456h265v-1456zM1209 1241h-1165v215h1165v-215zM743 -315q0 -106 -35 -176.5t-121 -142.5l-136 77q20 33 33.5 55.5t20.5 43.5t10 51.5t3 80.5v157h225v-146z" />
    <glyph glyph-name="uni021B" unicode="&#x21b;" horiz-adv-x="685" 
d="M627 893h-617v189h617v-189zM437 1347v-1037q0 -49 14 -74.5t39.5 -34.5t60.5 -9q25 0 48 3t36 6v-197q-31 -10 -71 -17t-93 -7q-85 0 -151 30.5t-102.5 98.5t-36.5 181v1057h256zM537 -315q0 -106 -35 -176.5t-121 -142.5l-136 77q20 33 33.5 55.5t20.5 43.5t10 51.5
t3 80.5v157h225v-146z" />
    <glyph glyph-name="uni0237" unicode="&#x237;" horiz-adv-x="552" 
d="M390 1082v-1165q0 -171 -87.5 -262.5t-252.5 -91.5q-33 0 -68 4.5t-67 12.5v203q22 -4 45 -6.5t45 -2.5q62 0 95 33.5t33 109.5v1165h257z" />
    <glyph glyph-name="circumflex" unicode="&#x2c6;" horiz-adv-x="872" 
d="M792 1224v-12h-205l-153 153l-152 -153h-202v14l280 275h149z" />
    <glyph glyph-name="caron" unicode="&#x2c7;" horiz-adv-x="920" 
d="M792 1484l-283 -277h-149l-280 275v14h202l152 -153l153 153h205v-12z" />
    <glyph glyph-name="breve" unicode="&#x2d8;" horiz-adv-x="920" 
d="M395 1197q-97 0 -163 34.5t-99 94.5t-33 137v17.5t1 16.5h153q-1 -6 -1 -12.5v-13.5q0 -39 14 -71t45.5 -51t82.5 -19q52 0 83 19t45 51t14 71v13.5t-1 12.5h152q1 -6 1 -16.5v-17.5q0 -77 -33 -137t-98 -94.5t-163 -34.5z" />
    <glyph glyph-name="dotaccent" unicode="&#x2d9;" horiz-adv-x="920" 
d="M179 1193q-68 0 -106.5 38.5t-38.5 95.5q0 59 38.5 97.5t106.5 38.5t107 -38.5t39 -97.5q0 -57 -39 -95.5t-107 -38.5z" />
    <glyph glyph-name="ring" unicode="&#x2da;" horiz-adv-x="823" 
d="M314 1197q-95 0 -158 58.5t-63 143.5t63 145.5t158 60.5q94 0 157 -60.5t63 -145.5t-63 -143.5t-157 -58.5zM314 1299q45 0 73 30t28 70q0 41 -28 72t-73 31q-46 0 -73.5 -31t-27.5 -72q0 -40 27.5 -70t73.5 -30z" />
    <glyph glyph-name="ogonek" unicode="&#x2db;" horiz-adv-x="487" 
d="M256 -383q-105 0 -155.5 45t-50.5 101q0 63 40 112.5t96.5 84.5t104.5 55l141 -15q-19 -12 -37 -23.5t-34 -23.5q-39 -29 -64.5 -61t-25.5 -69q0 -25 19.5 -38t52.5 -13q21 0 44.5 5t49.5 15v-149q-42 -10 -86 -18t-95 -8z" />
    <glyph glyph-name="tilde" unicode="&#x2dc;" horiz-adv-x="898" 
d="M234 1231l-154 9q0 72 29 131t79 94.5t115 35.5q40 0 74 -13.5t64.5 -31t62.5 -31t71 -13.5q37 0 63.5 27t26.5 74l153 -12q0 -73 -29 -131.5t-79.5 -92.5t-114.5 -34q-49 0 -83 13.5t-62 31t-57.5 31t-69.5 13.5q-38 0 -63.5 -27.5t-25.5 -73.5z" />
    <glyph glyph-name="hungarumlaut" unicode="&#x2dd;" horiz-adv-x="920" 
d="M164 1501h258l-193 -303h-179zM504 1501h258l-193 -303h-179z" />
    <glyph glyph-name="gravecomb" unicode="&#x300;" 
d="M563 1198h-212l-271 303h288z" />
    <glyph glyph-name="acutecomb" unicode="&#x301;" 
d="M276 1501h286l-275 -303h-207z" />
    <glyph glyph-name="uni0302" unicode="&#x302;" 
d="M792 1224v-12h-205l-153 153l-152 -153h-202v14l280 275h149z" />
    <glyph glyph-name="tildecomb" unicode="&#x303;" 
d="M234 1231l-154 9q0 72 29 131t79 94.5t115 35.5q40 0 74 -13.5t64.5 -31t62.5 -31t71 -13.5q37 0 63.5 27t26.5 74l153 -12q0 -73 -29 -131.5t-79.5 -92.5t-114.5 -34q-49 0 -83 13.5t-62 31t-57.5 31t-69.5 13.5q-38 0 -63.5 -27.5t-25.5 -73.5z" />
    <glyph glyph-name="uni0304" unicode="&#x304;" 
d="M791 1292h-685v159h685v-159z" />
    <glyph glyph-name="uni0306" unicode="&#x306;" 
d="M395 1197q-97 0 -163 34.5t-99 94.5t-33 137v17.5t1 16.5h153q-1 -6 -1 -12.5v-13.5q0 -39 14 -71t45.5 -51t82.5 -19q52 0 83 19t45 51t14 71v13.5t-1 12.5h152q1 -6 1 -16.5v-17.5q0 -77 -33 -137t-98 -94.5t-163 -34.5z" />
    <glyph glyph-name="uni0307" unicode="&#x307;" 
d="M179 1193q-68 0 -106.5 38.5t-38.5 95.5q0 59 38.5 97.5t106.5 38.5t107 -38.5t39 -97.5q0 -57 -39 -95.5t-107 -38.5z" />
    <glyph glyph-name="uni0308" unicode="&#x308;" 
d="M678 1204q-58 0 -93.5 34.5t-35.5 85.5q0 50 35.5 85t93.5 35t94 -35t36 -85q0 -51 -36 -85.5t-94 -34.5zM210 1204q-59 0 -94.5 34.5t-35.5 85.5q0 50 35.5 85t94.5 35q58 0 93.5 -35t35.5 -85q0 -51 -35.5 -85.5t-93.5 -34.5z" />
    <glyph glyph-name="uni030A" unicode="&#x30a;" 
d="M314 1197q-95 0 -158 58.5t-63 143.5t63 145.5t158 60.5q94 0 157 -60.5t63 -145.5t-63 -143.5t-157 -58.5zM314 1299q45 0 73 30t28 70q0 41 -28 72t-73 31q-46 0 -73.5 -31t-27.5 -72q0 -40 27.5 -70t73.5 -30z" />
    <glyph glyph-name="uni030B" unicode="&#x30b;" 
d="M164 1501h258l-193 -303h-179zM504 1501h258l-193 -303h-179z" />
    <glyph glyph-name="uni030C" unicode="&#x30c;" 
d="M792 1484l-283 -277h-149l-280 275v14h202l152 -153l153 153h205v-12z" />
    <glyph glyph-name="uni0312" unicode="&#x312;" 
d="M120 1428q0 107 35 177.5t121 141.5l136 -77q-21 -33 -34 -55.5t-20 -43.5t-10.5 -51.5t-3.5 -80.5v-157h-224v146z" />
    <glyph glyph-name="uni0326" unicode="&#x326;" 
d="M442 -315q0 -106 -35 -176.5t-121 -142.5l-136 77q20 33 33.5 55.5t20.5 43.5t10 51.5t3 80.5v157h225v-146z" />
    <glyph glyph-name="uni0327" unicode="&#x327;" 
d="M274 5l-12 -56q57 -10 104 -48.5t47 -124.5q0 -104 -85 -166.5t-250 -62.5l-7 146q37 0 66.5 9t47 28.5t17.5 50.5q0 44 -35.5 60.5t-113.5 22.5l31 141h190z" />
    <glyph glyph-name="uni0328" unicode="&#x328;" 
d="M256 -383q-105 0 -155.5 45t-50.5 101q0 63 40 112.5t96.5 84.5t104.5 55l141 -15q-19 -12 -37 -23.5t-34 -23.5q-39 -29 -64.5 -61t-25.5 -69q0 -25 19.5 -38t52.5 -13q21 0 44.5 5t49.5 15v-149q-42 -10 -86 -18t-95 -8z" />
    <glyph glyph-name="alpha" unicode="&#x3b1;" horiz-adv-x="1156" 
d="M82 530q0 168 49 297t143.5 202t231.5 73q124 0 205 -70t126.5 -192.5t62.5 -282.5v-51q-17 -154 -62.5 -272.5t-127 -186.5t-206.5 -68q-135 0 -229.5 68t-143.5 188t-49 274v21zM339 509q0 -91 22.5 -164.5t72.5 -116t134 -42.5q83 0 133.5 40.5t78.5 110t42 155.5v69
q-9 69 -26.5 130t-47 107t-73.5 72t-105 26q-84 0 -134.5 -50t-73.5 -133t-23 -183v-21zM1023 1082v-749q0 -82 21 -110.5t54 -28.5q8 0 14 1.5t11 2.5l24 -191q-32 -18 -62 -23t-63 -5q-110 0 -176.5 73t-78.5 236v561l36 233h220z" />
    <glyph glyph-name="uni05B0" unicode="&#x5b0;" 
d="M619 -331q-39 0 -65.5 24t-26.5 60q0 37 26.5 60.5t65.5 23.5q40 0 66 -23.5t26 -60.5q0 -36 -26 -60t-66 -24zM619 -587q-39 0 -65.5 24t-26.5 60t26.5 60t65.5 24q40 0 66 -24t26 -60t-26 -60t-66 -24z" />
    <glyph glyph-name="uni05B1" unicode="&#x5b1;" 
d="M361 -331q-39 0 -65.5 24t-26.5 60q0 37 26.5 60.5t65.5 23.5q40 0 66 -23.5t26 -60.5q0 -36 -26 -60t-66 -24zM619 -331q-39 0 -65.5 24t-26.5 60q0 37 26.5 60.5t65.5 23.5q40 0 66 -23.5t26 -60.5q0 -36 -26 -60t-66 -24zM880 -331q-40 0 -66.5 24t-26.5 60
q0 37 26.5 60.5t66.5 23.5t65.5 -23.5t25.5 -60.5q0 -36 -25.5 -60t-65.5 -24zM491 -549q-40 0 -66.5 23.5t-26.5 59.5t26.5 60t66.5 24q39 0 65 -24t26 -60t-26 -59.5t-65 -23.5zM880 -587q-40 0 -66.5 24t-26.5 60t26.5 60t66.5 24t65.5 -24t25.5 -60t-25.5 -60t-65.5 -24
z" />
    <glyph glyph-name="uni05B2" unicode="&#x5b2;" 
d="M275 -305v118h428v-118h-428zM875 -587q-40 0 -66.5 24t-26.5 60t26.5 60t66.5 24q39 0 65 -24t26 -60t-26 -60t-65 -24zM875 -331q-40 0 -66.5 24t-26.5 60q0 37 26.5 60.5t66.5 23.5q39 0 65 -23.5t26 -60.5q0 -36 -26 -60t-65 -24z" />
    <glyph glyph-name="uni05B3" unicode="&#x5b3;" 
d="M490 -578q-39 0 -65.5 24.5t-26.5 59.5q0 27 12 45.5t25.5 49.5t17.5 94h-179v118h431v-118h-178q4 -63 17.5 -94t25 -49.5t11.5 -45.5q0 -36 -25.5 -60t-65.5 -24zM875 -587q-40 0 -66.5 24t-26.5 60t26.5 60t66.5 24q39 0 65 -24t26 -60t-26 -60t-65 -24zM875 -331
q-40 0 -66.5 24t-26.5 60q0 37 26.5 60.5t66.5 23.5q39 0 65 -23.5t26 -60.5q0 -36 -26 -60t-65 -24z" />
    <glyph glyph-name="uni05B4" unicode="&#x5b4;" 
d="M619 -331q-39 0 -65.5 25t-26.5 59q0 37 26.5 60.5t65.5 23.5q40 0 66 -23.5t26 -60.5q0 -36 -26 -60t-66 -24z" />
    <glyph glyph-name="uni05B5" unicode="&#x5b5;" 
d="M747 -331q-39 0 -66 25t-27 59q0 37 27 60.5t66 23.5q40 0 66 -23.5t26 -60.5q0 -36 -26 -60t-66 -24zM491 -331q-40 0 -66.5 25t-26.5 59q0 37 26.5 60.5t66.5 23.5q39 0 65 -23.5t26 -60.5q0 -36 -26 -60t-65 -24z" />
    <glyph glyph-name="uni05B6" unicode="&#x5b6;" 
d="M747 -331q-39 0 -66 25t-27 59q0 37 27 60.5t66 23.5q40 0 66 -23.5t26 -60.5q0 -36 -26 -60t-66 -24zM619 -549q-39 0 -65.5 23.5t-26.5 59.5t26.5 60t65.5 24q40 0 66 -24t26 -60t-26 -59.5t-66 -23.5zM491 -331q-40 0 -66.5 25t-26.5 59q0 37 26.5 60.5t66.5 23.5
q39 0 65 -23.5t26 -60.5q0 -36 -26 -60t-65 -24z" />
    <glyph glyph-name="uni05B7" unicode="&#x5b7;" 
d="M395 -305v118h448v-118h-448z" />
    <glyph glyph-name="uni05B8" unicode="&#x5b8;" 
d="M620 -566q-39 0 -65.5 25t-26.5 59q0 27 12 45t25.5 46.5t17.5 85.5h-166v118h405v-118h-165q5 -57 18.5 -85.5t25 -46.5t11.5 -45q0 -36 -26 -60t-66 -24z" />
    <glyph glyph-name="uni05B9" unicode="&#x5b9;" 
d="M286 1344q-40 0 -66.5 24.5t-26.5 58.5q0 37 26.5 60.5t66.5 23.5q41 0 67 -24t26 -60t-26 -59.5t-67 -23.5z" />
    <glyph glyph-name="uni05BA" unicode="&#x5ba;" 
d="M286 1344q-40 0 -66.5 24.5t-26.5 58.5q0 37 26.5 60.5t66.5 23.5q41 0 67 -24t26 -60t-26 -59.5t-67 -23.5z" />
    <glyph glyph-name="uni05BB" unicode="&#x5bb;" 
d="M619 -331q-39 0 -65.5 25t-26.5 59q0 37 26.5 60.5t65.5 23.5q41 0 66.5 -23.5t25.5 -60.5q0 -36 -25.5 -60t-66.5 -24zM889 -757q-39 0 -65.5 24.5t-26.5 58.5q0 37 26.5 61t65.5 24q40 0 66 -24t26 -61q0 -35 -26 -59t-66 -24zM755 -543q-40 0 -66.5 24t-26.5 58
q0 37 26.5 61t66.5 24q39 0 65 -25t26 -60t-26 -58.5t-65 -23.5z" />
    <glyph glyph-name="uni05BC" unicode="&#x5bc;" 
d="M327 517q-40 0 -66.5 24.5t-26.5 59.5q0 36 26.5 60t66.5 24t66 -24t26 -60t-26 -60t-66 -24z" />
    <glyph glyph-name="uni05BE" unicode="&#x5be;" horiz-adv-x="561" 
d="M501 985h-441v206h441v-206z" />
    <glyph glyph-name="uni05BF" unicode="&#x5bf;" 
d="M228 1363v138h545v-138h-545z" />
    <glyph glyph-name="uni05C1" unicode="&#x5c1;" 
d="M1385 1344q-39 0 -66 24.5t-27 58.5q0 36 27 60t66 24q40 0 66 -24t26 -60t-26 -59.5t-66 -23.5z" />
    <glyph glyph-name="uni05C2" unicode="&#x5c2;" 
d="M271 1344q-40 0 -66.5 24.5t-26.5 58.5q0 37 26.5 60.5t65.5 23.5q41 0 67 -24t26 -60t-26 -59.5t-66 -23.5z" />
    <glyph glyph-name="uni05C7" unicode="&#x5c7;" 
d="M620 -600q-39 0 -65.5 25t-26.5 59q0 31 15.5 54t28.5 64q5 14 8 42t3 51h-166v118h405v-118h-165q0 -21 4 -49.5t8 -43.5q13 -41 28 -64t15 -54q0 -36 -26 -60t-66 -24z" />
    <glyph glyph-name="uni05D0" unicode="&#x5d0;" horiz-adv-x="1352" 
d="M967 0l-841 1191h294l839 -1191h-292zM172 0v409q0 177 62.5 280t200.5 152l96 -133q-105 -56 -105 -191v-517h-254zM1269 1191l-400 -739l-171 206l276 533h295z" />
    <glyph glyph-name="uni05D1" unicode="&#x5d1;" horiz-adv-x="1101" 
d="M56 0v207h603l262 9l141 -18v-198h-1006zM659 60v700q0 116 -55.5 170.5t-175.5 54.5h-307v206h325q229 0 352 -113.5t123 -327.5v-690h-262z" />
    <glyph glyph-name="uni05D2" unicode="&#x5d2;" horiz-adv-x="862" 
d="M80 -11q-15 0 -32 1t-33 3v239q21 -3 41.5 -5t38.5 -2q86 2 149.5 32t105.5 84t63 125v519h-263v206h522v-608q0 -96 20 -187l81 -396h-244l-70 314h-7q-14 -89 -66 -163t-131 -118t-175 -44z" />
    <glyph glyph-name="uni05D3" unicode="&#x5d3;" horiz-adv-x="1123" 
d="M60 1191h997v-206h-205v-985h-264v985h-528v206z" />
    <glyph glyph-name="uni05D4" unicode="&#x5d4;" horiz-adv-x="1248" 
d="M845 0v760q0 116 -56 170.5t-175 54.5h-468v206h485q230 0 353.5 -113.5t123.5 -327.5v-750h-263zM144 0v408q0 115 23.5 171t40.5 83h211q-9 -42 -15 -97t-6 -133v-432h-254z" />
    <glyph glyph-name="uni05D5" unicode="&#x5d5;" horiz-adv-x="637" 
d="M203 0v985h-117v206h381v-1191h-264z" />
    <glyph glyph-name="uni05D6" unicode="&#x5d6;" horiz-adv-x="767" 
d="M289 0l-144 975l-74 17v199h628v-206h-296l156 -985h-270z" />
    <glyph glyph-name="uni05D7" unicode="&#x5d7;" horiz-adv-x="1276" 
d="M171 0l1 1191h490q235 0 353 -113.5t119 -339.5v-738h-261l-1 758q0 117 -51 172t-158 55h-230v-985h-262z" />
    <glyph glyph-name="uni05D8" unicode="&#x5d8;" horiz-adv-x="1291" 
d="M673 -23q-151 0 -264 62.5t-175.5 175t-62.5 261.5v715h262v-742q0 -120 66 -194.5t173 -74.5t172.5 74.5t65.5 194.5v365q0 85 -37 129.5t-110 44.5q-27 0 -58 -6.5t-64 -17.5l-30 170q52 32 117 50.5t123 18.5q150 0 236 -98t86 -270v-359q0 -149 -62.5 -261.5
t-175 -175t-262.5 -62.5z" />
    <glyph glyph-name="uni05D9" unicode="&#x5d9;" horiz-adv-x="670" 
d="M252 517v468h-199v206h462v-674h-263z" />
    <glyph glyph-name="kafFinalhb" unicode="&#x5da;" horiz-adv-x="1047" 
d="M618 -416v1401h-550v206h809v-1607h-259z" />
    <glyph glyph-name="uni05DB" unicode="&#x5db;" horiz-adv-x="1119" 
d="M414 -18q-78 0 -164 12.5t-179 36.5l40 193q159 -38 272 -38q154 3 229 74t75 205v520h-572v206h834v-677q0 -185 -66 -303t-186 -173.5t-283 -55.5z" />
    <glyph glyph-name="uni05DC" unicode="&#x5dc;" horiz-adv-x="1090" 
d="M72 985v551h263v-345h590v-206h-853zM1018 1023l-411 -1023h-279l491 1191h199v-168z" />
    <glyph glyph-name="memFinalhb" unicode="&#x5dd;" horiz-adv-x="1330" 
d="M170 0v1191h990v-1191h-990zM433 207h464v778h-464v-778z" />
    <glyph glyph-name="uni05DE" unicode="&#x5de;" horiz-adv-x="1337" 
d="M161 0l83 704q10 82 43 155t78 113q3 3 7.5 6.5t8.5 6.5l-2 3q-41 -6 -101 -22.5t-105 -33.5l-57 193q77 28 170.5 48.5t192 32.5t186.5 12q259 0 394.5 -134.5t136.5 -395.5v-688h-509v206h247l-1 516q0 135 -57.5 207.5t-163.5 72.5q-90 0 -144.5 -70t-68.5 -196
l-78 -736h-260z" />
    <glyph glyph-name="nunFinalhb" unicode="&#x5df;" horiz-adv-x="628" 
d="M199 -416v1401h-121v206h380v-1607h-259z" />
    <glyph glyph-name="uni05E0" unicode="&#x5e0;" horiz-adv-x="789" 
d="M274 -20q-57 0 -106 6.5t-108 19.5l3 199q69 -11 145 -11q74 0 110.5 41.5t36.5 128.5v621h-219v206h482v-848q0 -175 -90 -269t-254 -94z" />
    <glyph glyph-name="uni05E1" unicode="&#x5e1;" horiz-adv-x="1317" 
d="M676 -23q-154 0 -271 69t-183 194t-68 291l-1 92q0 66 18 134.5t49.5 126t69.5 89.5q4 3 7.5 6.5t7.5 5.5l-2 4q-33 -5 -84.5 -18t-92.5 -24l-49 193q79 24 175.5 41.5t197 27t188.5 9.5q178 0 303 -65.5t191 -190t66 -304.5v-127q0 -166 -65 -291t-182.5 -194
t-274.5 -69zM675 195q78 0 136.5 42t91.5 117t33 175v125q0 110 -31.5 188t-91.5 119t-143 41q-79 0 -135 -42.5t-86.5 -123.5t-32.5 -197v-110q0 -100 32.5 -175t91 -117t135.5 -42z" />
    <glyph glyph-name="uni05E2" unicode="&#x5e2;" horiz-adv-x="1244" 
d="M514 -28q-100 0 -214 19.5t-240 66.5l58 193q104 -40 193.5 -59.5t165.5 -20.5q152 0 243 79.5t91 233.5v707h263v-695q0 -171 -71 -288t-197 -176.5t-292 -59.5zM118 1191h264l182 -856q14 -64 34 -113t59 -88l-200 2q-48 32 -91 89.5t-60 132.5z" />
    <glyph glyph-name="peFinalhb" unicode="&#x5e3;" horiz-adv-x="1257" 
d="M1087 1191v-1607h-260v1401h-333q-17 -38 -29 -83.5t-18.5 -93.5t-6.5 -94v-115q22 -7 54.5 -10t71.5 -2v-192q-78 -7 -146 -2.5t-126 21.5t-108 46l-2 172q0 66 9.5 131.5t29 123t45.5 98.5h-132v206h951z" />
    <glyph glyph-name="uni05E4" unicode="&#x5e4;" horiz-adv-x="1330" 
d="M601 -24q-94 0 -206 18.5t-214 54.5l50 193q96 -28 191.5 -42t163.5 -14q152 2 231 73t79 206v520h-402q-26 -57 -40 -124t-14 -136v-71q22 -7 54 -10t72 -2v-192q-79 -7 -146.5 -3t-125.5 21.5t-108 46.5l-2 128q0 98 22 189.5t62 152.5h-132v206h1023v-685
q0 -185 -74 -302.5t-200 -172.5t-284 -55z" />
    <glyph glyph-name="tsadiFinalhb" unicode="&#x5e5;" horiz-adv-x="1150" 
d="M581 -416v743q0 67 -38 123l-502 741h293l326 -519l105 -152q35 -50 50 -102t15 -118v-716h-249zM723 463l-162 210l260 518h294z" />
    <glyph glyph-name="uni05E6" unicode="&#x5e6;" horiz-adv-x="1171" 
d="M129 0v207h580l-668 984h293l335 -523l377 -546v-122h-917zM723 463l-162 210l260 518h294z" />
    <glyph glyph-name="uni05E7" unicode="&#x5e7;" horiz-adv-x="1312" 
d="M590 0v202q134 5 211.5 83t77.5 223v477h-709v206h972v-677q0 -160 -67 -273.5t-191 -174.5t-294 -66zM185 -416v845q0 114 23 170t41 83h211q-11 -42 -16 -96.5t-5 -132.5v-869h-254z" />
    <glyph glyph-name="uni05E8" unicode="&#x5e8;" horiz-adv-x="1013" 
d="M609 0v804q0 86 -49.5 133.5t-139.5 47.5h-375v206h392q204 0 319.5 -106t115.5 -296v-789h-263z" />
    <glyph glyph-name="uni05E9" unicode="&#x5e9;" horiz-adv-x="1715" 
d="M425 1191v-934q88 -38 190 -60.5t192 -22.5q139 0 248 39.5t172 122.5t63 212v643h255v-671q0 -140 -57.5 -244t-158 -173t-231.5 -102.5t-280 -33.5q-156 0 -325 37.5t-322 110.5v1076h254zM671 359q27 39 40.5 109t13.5 155v568h255v-515q0 -101 -24 -185t-70 -134z
" />
    <glyph glyph-name="uni05EA" unicode="&#x5ea;" horiz-adv-x="1305" 
d="M692 1191q235 0 354 -113.5t119 -339.5v-738h-262l-2 758q0 117 -50 172t-157 55h-160q-22 -56 -35 -129t-13 -143v-365q0 -175 -89 -268.5t-250 -93.5q-37 0 -69.5 3t-67.5 8v205q17 -1 33.5 -2t33.5 -1q77 0 115 40.5t38 126.5v324q0 72 19.5 155t57.5 140h-200v206
h585z" />
    <glyph glyph-name="uni05F0" unicode="&#x5f0;" horiz-adv-x="1273" 
d="M840 0v985h-117v206h381v-1191h-264zM203 0v985h-117v206h381v-1191h-264z" />
    <glyph glyph-name="uni05F1" unicode="&#x5f1;" horiz-adv-x="1307" 
d="M873 0v985h-117v206h381v-1191h-264zM252 517v468h-199v206h462v-674h-263z" />
    <glyph glyph-name="uni05F2" unicode="&#x5f2;" horiz-adv-x="1340" 
d="M922 517v468h-199v206h462v-674h-263zM252 517v468h-199v206h462v-674h-263z" />
    <glyph glyph-name="uni05F3" unicode="&#x5f3;" horiz-adv-x="416" 
d="M176 876l-158 66q46 64 73 142t27 154v202h236l-1 -180q0 -71 -23 -142.5t-63 -133.5t-91 -108z" />
    <glyph glyph-name="uni05F4" unicode="&#x5f4;" horiz-adv-x="830" 
d="M197 876l-159 66q47 64 73.5 142t26.5 154v202h236l-1 -180q0 -71 -23 -142.5t-62.5 -133.5t-90.5 -108zM574 876l-159 66q47 64 73.5 142t26.5 154v202h236l-2 -180q0 -71 -22.5 -142.5t-62 -133.5t-90.5 -108z" />
    <glyph glyph-name="Wgrave" unicode="&#x1e80;" horiz-adv-x="1800" 
d="M794 1456h157l-5 -259l-308 -1197h-165l33 291zM543 296l10 -296h-177l-332 1456h265zM1498 1456h266l-332 -1456h-177l13 300zM1304 287l31 -287h-165l-304 1197l-3 259h155zM1040 1572h-212l-271 303h288z" />
    <glyph glyph-name="wgrave" unicode="&#x1e81;" horiz-adv-x="1516" 
d="M661 1082h163l-44 -275l-247 -807h-143l26 254zM470 252l13 -252h-162l-288 1082h249zM1230 1082h249l-288 -1082h-162l19 262zM1094 262l28 -262h-144l-249 807l-43 275h165zM893 1198h-212l-271 303h288z" />
    <glyph glyph-name="Wacute" unicode="&#x1e82;" horiz-adv-x="1800" 
d="M794 1456h157l-5 -259l-308 -1197h-165l33 291zM543 296l10 -296h-177l-332 1456h265zM1498 1456h266l-332 -1456h-177l13 300zM1304 287l31 -287h-165l-304 1197l-3 259h155zM993 1875h286l-275 -303h-207z" />
    <glyph glyph-name="wacute" unicode="&#x1e83;" horiz-adv-x="1516" 
d="M661 1082h163l-44 -275l-247 -807h-143l26 254zM470 252l13 -252h-162l-288 1082h249zM1230 1082h249l-288 -1082h-162l19 262zM1094 262l28 -262h-144l-249 807l-43 275h165zM846 1501h286l-275 -303h-207z" />
    <glyph glyph-name="Wdieresis" unicode="&#x1e84;" horiz-adv-x="1800" 
d="M794 1456h157l-5 -259l-308 -1197h-165l33 291zM543 296l10 -296h-177l-332 1456h265zM1498 1456h266l-332 -1456h-177l13 300zM1304 287l31 -287h-165l-304 1197l-3 259h155zM1139 1567q-58 0 -93.5 34.5t-35.5 85.5q0 50 35.5 85t93.5 35t94 -35t36 -85
q0 -51 -36 -85.5t-94 -34.5zM671 1567q-59 0 -94.5 34.5t-35.5 85.5q0 50 35.5 85t94.5 35q58 0 93.5 -35t35.5 -85q0 -51 -35.5 -85.5t-93.5 -34.5z" />
    <glyph glyph-name="wdieresis" unicode="&#x1e85;" horiz-adv-x="1516" 
d="M661 1082h163l-44 -275l-247 -807h-143l26 254zM470 252l13 -252h-162l-288 1082h249zM1230 1082h249l-288 -1082h-162l19 262zM1094 262l28 -262h-144l-249 807l-43 275h165zM992 1193q-58 0 -93.5 34.5t-35.5 85.5q0 50 35.5 85t93.5 35t94 -35t36 -85q0 -51 -36 -85.5
t-94 -34.5zM524 1193q-59 0 -94.5 34.5t-35.5 85.5q0 50 35.5 85t94.5 35q58 0 93.5 -35t35.5 -85q0 -51 -35.5 -85.5t-93.5 -34.5z" />
    <glyph glyph-name="uni1E9E" unicode="&#x1e9e;" horiz-adv-x="1367" 
d="M366 0h-257v959h257v-959zM109 957q0 172 54 287.5t162.5 173.5t271.5 58q177 0 316.5 -66.5t267.5 -173.5l-431 -511h-163v123l280 328q-50 38 -114 66t-156 28q-83 0 -134 -37t-74 -107t-23 -169h-257zM541 234q36 -16 93 -32t127 -16q125 0 193.5 62.5t68.5 164.5
q0 95 -33.5 152t-99.5 83t-164 26h-139v169l168 11q249 0 386.5 -112.5t137.5 -326.5q0 -142 -66 -239.5t-178 -147t-253 -49.5q-94 0 -171 15t-143 41z" />
    <glyph glyph-name="Ygrave" unicode="&#x1ef2;" horiz-adv-x="1255" 
d="M627 776l326 680h294l-486 -922v-534h-269v534l-486 922h295zM762 1572h-212l-271 303h288z" />
    <glyph glyph-name="ygrave" unicode="&#x1ef3;" horiz-adv-x="1009" 
d="M725 1082h273l-432 -1246q-15 -40 -39.5 -87t-63 -89.5t-96.5 -69.5t-140 -27q-22 0 -42.5 2.5t-39.5 6.5t-38 9v197q9 -1 23 -2t23 -1q89 0 133.5 31t69.5 105l78 209zM533 287l44 -278l-177 -35l-390 1108h276zM639 1198h-212l-271 303h288z" />
    <glyph glyph-name="uni200C" unicode="&#x200c;" 
d="M-668 1226h173v-1426h-173v1426z" />
    <glyph glyph-name="uni200D" unicode="&#x200d;" 
d="M-89 -200v1204l-84 -85l-129 124l177 180l-177 180l128 125l173 -177l174 177l127 -125l-176 -180l176 -180l-128 -124l-88 90v-1209h-173z" />
    <glyph glyph-name="uni200E" unicode="&#x200e;" 
d="M-859 1331h556v-164h-556v164zM-606 1006l297 302l132 -59l-224 -243h-205zM-395 1502l218 -253l-134 -56l-290 309h206zM-859 1290h174v-1490h-174v1490z" />
    <glyph glyph-name="uni200F" unicode="&#x200f;" 
d="M-447 -200v1490h174v-1490h-174zM-731 1006l-223 243l132 59l297 -302h-206zM-820 1193l-134 56l218 253h206zM-829 1167v164h556v-164h-556z" />
    <glyph glyph-name="endash" unicode="&#x2013;" horiz-adv-x="1311" 
d="M1167 614h-1024v208h1024v-208z" />
    <glyph glyph-name="emdash" unicode="&#x2014;" horiz-adv-x="1575" 
d="M1470 614h-1367v208h1367v-208z" />
    <glyph glyph-name="quoteleft" unicode="&#x2018;" horiz-adv-x="457" 
d="M101 1197q0 65 23.5 133t64.5 130t93 106l127 -77q-40 -62 -66 -131.5t-26 -158.5v-143h-216v141z" />
    <glyph glyph-name="quoteright" unicode="&#x2019;" horiz-adv-x="451" 
d="M362 1390q0 -64 -23.5 -132.5t-64 -130t-92.5 -106.5l-127 77q40 62 65.5 132t25.5 159v147h216v-146z" />
    <glyph glyph-name="quotesinglbase" unicode="&#x201a;" horiz-adv-x="476" 
d="M363 70q0 -63 -23.5 -131.5t-64 -130.5t-93.5 -106l-126 77q41 62 63.5 131.5t22.5 158.5v145h222z" />
    <glyph glyph-name="quotedblleft" unicode="&#x201c;" horiz-adv-x="798" 
d="M110 1197q0 65 23.5 133t64.5 130t93 106l127 -77q-40 -62 -66 -131.5t-26 -158.5v-143h-216v141zM445 1197q0 65 23.5 133t64.5 130t93 106l127 -77q-40 -62 -66 -131.5t-26 -158.5v-143h-216v141z" />
    <glyph glyph-name="quotedblright" unicode="&#x201d;" horiz-adv-x="805" 
d="M375 1390q0 -64 -23.5 -132.5t-64 -130t-92.5 -106.5l-127 77q40 62 65.5 132t25.5 159v147h216v-146zM710 1390q0 -64 -23.5 -132.5t-64 -130t-92.5 -106.5l-127 77q40 62 65.5 132t25.5 159v147h216v-146z" />
    <glyph glyph-name="quotedblbase" unicode="&#x201e;" horiz-adv-x="789" 
d="M363 70q0 -66 -22 -138.5t-61.5 -137.5t-91.5 -112l-132 77q41 66 63.5 140.5t22.5 169.5v189h222zM693 70q0 -66 -23.5 -138.5t-64.5 -137.5t-93 -112l-131 77q40 66 65 140.5t25 169.5v189h222v-188z" />
    <glyph glyph-name="bullet" unicode="&#x2022;" horiz-adv-x="722" 
d="M137 768q0 97 60.5 158.5t164.5 61.5q107 0 167.5 -61.5t60.5 -158.5v-38q0 -96 -60.5 -157t-165.5 -61t-166 61t-61 157v38z" />
    <glyph glyph-name="ellipsis" unicode="&#x2026;" horiz-adv-x="1468" 
d="M285 -11q-69 0 -108.5 40t-39.5 99q0 60 39.5 100.5t108.5 40.5t108.5 -40.5t39.5 -100.5q0 -59 -39.5 -99t-108.5 -40zM747 -11q-69 0 -108.5 40t-39.5 99q0 60 39.5 100.5t108.5 40.5t108.5 -40.5t39.5 -100.5q0 -59 -39.5 -99t-108.5 -40zM1196 -11q-69 0 -108.5 40
t-39.5 99q0 60 39.5 100.5t108.5 40.5t108.5 -40.5t39.5 -100.5q0 -59 -39.5 -99t-108.5 -40z" />
    <glyph glyph-name="guilsinglleft" unicode="&#x2039;" horiz-adv-x="631" 
d="M317 529l-209 1v13l285 390h173zM566 135h-173l-285 389v13l209 1z" />
    <glyph glyph-name="guilsinglright" unicode="&#x203a;" horiz-adv-x="618" 
d="M332 537l209 -1v-13l-285 -389h-172zM256 932l285 -390v-13l-209 -1l-248 404h172z" />
    <glyph glyph-name="fraction" unicode="&#x2044;" horiz-adv-x="919" 
d="M170 109l-130 74l711 1138l130 -74z" />
    <glyph glyph-name="uni2070" unicode="&#x2070;" horiz-adv-x="760" 
d="M684 982q0 -167 -84.5 -246.5t-218.5 -79.5q-136 0 -221.5 79.5t-85.5 246.5v157q0 167 84.5 247.5t220.5 80.5q135 0 220 -80.5t85 -247.5v-157zM494 1149q0 88 -30.5 126t-84.5 38t-84 -38t-30 -126v-176q0 -90 30.5 -127t85.5 -37q53 0 83 37t30 127v176z" />
    <glyph glyph-name="uni2074" unicode="&#x2074;" horiz-adv-x="760" 
d="M703 830h-639l-10 124l363 502h150l-163 -259l-166 -212h465v-155zM609 667h-191v789h191v-789z" />
    <glyph glyph-name="uni2075" unicode="&#x2075;" horiz-adv-x="760" 
d="M96 1051l52 405h495v-152h-339l-22 -146q16 6 53.5 16.5t80.5 10.5q131 0 201 -66.5t70 -188.5q0 -70 -33 -132.5t-100 -102t-171 -39.5q-77 0 -146.5 28t-113.5 80t-46 124h189q3 -43 34.5 -61t82.5 -18q65 0 89 36.5t24 85.5q0 55 -32 88.5t-97 33.5q-52 0 -78 -14
t-42 -26z" />
    <glyph glyph-name="uni2076" unicode="&#x2076;" horiz-adv-x="760" 
d="M565 1470v-156h-11q-86 0 -151 -21.5t-101 -75.5t-36 -152v-118q0 -71 33 -104.5t92 -33.5q53 0 86 35t33 86q0 55 -31.5 83t-88.5 28q-41 0 -71.5 -14t-47 -34.5t-17.5 -39.5l-50 31q1 46 29.5 94t82.5 81.5t132 33.5q124 0 188 -74.5t64 -189.5q0 -78 -38.5 -140
t-106.5 -97.5t-159 -35.5q-94 0 -166 35.5t-113 106.5t-41 177v53q0 115 34.5 198.5t96.5 137.5t145.5 80t182.5 26h30z" />
    <glyph glyph-name="uni2077" unicode="&#x2077;" horiz-adv-x="760" 
d="M687 1349l-337 -682h-201l338 636h-433v153h633v-107z" />
    <glyph glyph-name="uni2078" unicode="&#x2078;" horiz-adv-x="760" 
d="M380 656q-130 0 -218 57.5t-88 171.5q0 105 87.5 163t217.5 58q132 0 219 -58t87 -163q0 -114 -86.5 -171.5t-218.5 -57.5zM380 809q52 0 83.5 25t31.5 68q0 45 -32 68t-84 23q-51 0 -82.5 -23t-31.5 -68q0 -43 32 -68t83 -25zM380 1037q-125 0 -206 56.5t-81 151.5
q0 109 80.5 165.5t205.5 56.5t206 -56.5t81 -165.5q0 -95 -80 -151.5t-206 -56.5zM380 1147q47 0 71.5 23.5t24.5 61.5q0 39 -25 61t-72 22q-46 0 -71 -22t-25 -61q0 -38 25.5 -61.5t71.5 -23.5z" />
    <glyph glyph-name="uni2079" unicode="&#x2079;" horiz-adv-x="760" 
d="M227 808q88 0 146 19t87 67t29 133v155q0 69 -32 100.5t-84 31.5t-82.5 -39.5t-30.5 -94.5q0 -54 30 -86t90 -32q40 0 66.5 13.5t40.5 33t15 36.5l57 -26q0 -51 -31 -96.5t-83 -74t-114 -28.5q-82 0 -140.5 30.5t-90 89.5t-31.5 142q0 78 39 142.5t107 103.5t158 39
q88 0 157.5 -34.5t109 -106.5t39.5 -182v-54q0 -118 -31.5 -201t-91 -134t-142.5 -75t-185 -24h-16v152h14z" />
    <glyph glyph-name="uni2080" unicode="&#x2080;" horiz-adv-x="760" 
d="M684 -49q0 -167 -84.5 -246.5t-218.5 -79.5q-136 0 -221.5 79.5t-85.5 246.5v157q0 167 84.5 247.5t220.5 80.5q135 0 220 -80.5t85 -247.5v-157zM494 118q0 88 -30.5 126t-84.5 38t-84 -38t-30 -126v-176q0 -90 30.5 -127t85.5 -37q53 0 83 37t30 127v176z" />
    <glyph glyph-name="uni2081" unicode="&#x2081;" horiz-adv-x="760" 
d="M518 -364h-189v566l-197 -47v149l368 119h18v-787z" />
    <glyph glyph-name="uni2082" unicode="&#x2082;" horiz-adv-x="760" 
d="M691 -364h-614v129l288 261q59 53 84.5 96t25.5 69q0 42 -27 67.5t-78 25.5q-61 0 -90.5 -35t-29.5 -83h-191q0 75 37 136t105 97.5t162 36.5q143 0 222.5 -64.5t79.5 -179.5q0 -57 -24 -103t-70 -92.5t-114 -102.5l-132 -106h366v-152z" />
    <glyph glyph-name="uni2083" unicode="&#x2083;" horiz-adv-x="760" 
d="M358 103q62 0 92.5 26t30.5 69q0 33 -26.5 59.5t-87.5 26.5q-46 0 -78.5 -19t-32.5 -52h-191q0 72 41 121.5t108.5 75.5t147.5 26q137 0 223 -57t86 -168q0 -59 -36 -102t-99 -67t-147 -24h-119v85h88zM270 57h119q93 0 159 -20t101.5 -64t35.5 -116q0 -111 -92.5 -171.5
t-230.5 -60.5q-74 0 -145.5 24.5t-117.5 78t-46 140.5h191q0 -37 34.5 -63.5t93.5 -26.5q63 0 92.5 27.5t29.5 67.5q0 55 -36 77.5t-100 22.5h-88v84z" />
    <glyph glyph-name="uni2084" unicode="&#x2084;" horiz-adv-x="760" 
d="M703 -201h-639l-10 124l363 502h150l-163 -259l-166 -212h465v-155zM609 -364h-191v789h191v-789z" />
    <glyph glyph-name="uni2085" unicode="&#x2085;" horiz-adv-x="760" 
d="M96 20l52 405h495v-152h-339l-22 -146q16 6 53.5 16.5t80.5 10.5q131 0 201 -66.5t70 -188.5q0 -70 -33 -132.5t-100 -102t-171 -39.5q-77 0 -146.5 28t-113.5 80t-46 124h189q3 -43 34.5 -61t82.5 -18q65 0 89 36.5t24 85.5q0 55 -32 88.5t-97 33.5q-52 0 -78 -14
t-42 -26z" />
    <glyph glyph-name="uni2086" unicode="&#x2086;" horiz-adv-x="760" 
d="M565 439v-156h-11q-86 0 -151 -21.5t-101 -75.5t-36 -152v-118q0 -71 33 -104.5t92 -33.5q53 0 86 35t33 86q0 55 -31.5 83t-88.5 28q-41 0 -71.5 -14t-47 -34.5t-17.5 -39.5l-50 31q1 46 29.5 94t82.5 81.5t132 33.5q124 0 188 -74.5t64 -189.5q0 -78 -38.5 -140
t-106.5 -97.5t-159 -35.5q-94 0 -166 35.5t-113 106.5t-41 177v53q0 115 34.5 198.5t96.5 137.5t145.5 80t182.5 26h30z" />
    <glyph glyph-name="uni2087" unicode="&#x2087;" horiz-adv-x="760" 
d="M687 318l-337 -682h-201l338 636h-433v153h633v-107z" />
    <glyph glyph-name="uni2088" unicode="&#x2088;" horiz-adv-x="760" 
d="M380 -375q-130 0 -218 57.5t-88 171.5q0 105 87.5 163t217.5 58q132 0 219 -58t87 -163q0 -114 -86.5 -171.5t-218.5 -57.5zM380 -222q52 0 83.5 25t31.5 68q0 45 -32 68t-84 23q-51 0 -82.5 -23t-31.5 -68q0 -43 32 -68t83 -25zM380 6q-125 0 -206 56.5t-81 151.5
q0 109 80.5 165.5t205.5 56.5t206 -56.5t81 -165.5q0 -95 -80 -151.5t-206 -56.5zM380 116q47 0 71.5 23.5t24.5 61.5q0 39 -25 61t-72 22q-46 0 -71 -22t-25 -61q0 -38 25.5 -61.5t71.5 -23.5z" />
    <glyph glyph-name="uni2089" unicode="&#x2089;" horiz-adv-x="760" 
d="M227 -223q88 0 146 19t87 67t29 133v155q0 69 -32 100.5t-84 31.5t-82.5 -39.5t-30.5 -94.5q0 -54 30 -86t90 -32q40 0 66.5 13.5t40.5 33t15 36.5l57 -26q0 -51 -31 -96.5t-83 -74t-114 -28.5q-82 0 -140.5 30.5t-90 89.5t-31.5 142q0 78 39 142.5t107 103.5t158 39
q88 0 157.5 -34.5t109 -106.5t39.5 -182v-54q0 -118 -31.5 -201t-91 -134t-142.5 -75t-185 -24h-16v152h14z" />
    <glyph glyph-name="uni20AA" unicode="&#x20aa;" horiz-adv-x="1845" 
d="M578 0v792h243v-579h279q143 -1 238 79t95 226v674h242v-668q1 -163 -68 -280.5t-199.5 -180.5t-315.5 -63h-514zM141 0v1192h1097v-526q0 -40 -5.5 -85t-16 -89t-27.5 -83l-210 -33l-13 10q14 59 21.5 126.5t7.5 132.5v335h-612v-980h-242z" />
    <glyph glyph-name="Euro" unicode="&#x20ac;" horiz-adv-x="1167" 
d="M829 -20q-165 0 -292.5 63.5t-200.5 189.5t-73 313v342q0 194 73.5 324.5t204 197t301.5 66.5q61 0 119.5 -8.5t117.5 -22.5l-30 -217q-43 15 -94 24t-102 9q-151 0 -236.5 -88t-85.5 -283v-344q0 -128 39.5 -205.5t111.5 -112t167 -34.5q54 0 104 8t96 24l30 -216
q-57 -14 -121 -22t-129 -8zM92 524v143h789v-143h-789zM92 796v143h789v-143h-789z" />
    <glyph glyph-name="trademark" unicode="&#x2122;" horiz-adv-x="1969" 
d="M531 1068h-168v923h168v-923zM818 1854h-739v137h739v-137zM1155 1991l258 -697l257 697h149l-348 -923h-117l-347 923h148zM1079 1991l26 -635v-288h-169v923h143zM1890 1991v-923h-168v288l24 635h144z" />
    <glyph glyph-name="minus" unicode="&#x2212;" horiz-adv-x="1140" 
d="M997 614h-854v208h854v-208z" />
    <glyph glyph-name="uni2215" unicode="&#x2215;" horiz-adv-x="754" 
d="M194 -125h-197l560 1581h197z" />
    <glyph glyph-name="uniFB1D" unicode="&#xfb1d;" horiz-adv-x="676" 
d="M384 -331q-39 0 -65.5 25t-26.5 59q0 37 26.5 60.5t65.5 23.5q40 0 66 -23.5t26 -60.5q0 -36 -26 -60t-66 -24zM252 517v468h-199v206h462v-674h-263z" />
    <glyph glyph-name="uniFB1F" unicode="&#xfb1f;" horiz-adv-x="1340" 
d="M922 517v468h-199v206h462v-674h-263zM252 517v468h-199v206h462v-674h-263zM483 -305v118h448v-118h-448z" />
    <glyph glyph-name="uniFB20" unicode="&#xfb20;" horiz-adv-x="1276" 
d="M514 -39q-203 0 -454 92l58 194q104 -40 193.5 -60t165.5 -21q152 0 240 79.5t94 233.5l32 712h262l-32 -700q-12 -257 -161 -393.5t-398 -136.5zM135 1191h264l182 -856q15 -64 35 -112.5t58 -88.5l-200 2q-47 31 -90 88.5t-60 133.5z" />
    <glyph glyph-name="alefWidehb" unicode="&#xfb21;" horiz-adv-x="1856" 
d="M1383 0l-1257 1191h348l1267 -1191h-358zM206 0v511q0 177 62.5 280t200.5 152l96 -133q-105 -56 -105 -191v-619h-254zM1293 291l-171 205l356 695h294z" />
    <glyph glyph-name="daletWidehb" unicode="&#xfb22;" horiz-adv-x="1403" 
d="M60 1191h1277v-195l-251 -26v-970h-262v985h-764v206z" />
    <glyph glyph-name="heWidehb" unicode="&#xfb23;" horiz-adv-x="1650" 
d="M144 0v397q0 92 16.5 150.5t24.5 81.5l234 33l12 -12q-5 -25 -12 -67.5t-12 -92t-5 -97.5v-393h-258zM1246 0v804q0 86 -49 133.5t-138 47.5h-912v206h926q206 0 321 -106t115 -296v-789h-263z" />
    <glyph glyph-name="kafWidehb" unicode="&#xfb24;" horiz-adv-x="1557" 
d="M673 -37q-126 0 -284 19t-318 55l38 206q159 -32 304.5 -48.5t250.5 -16.5q240 0 349.5 81t110.5 234v492h-1012v206h1275v-700q-1 -177 -87 -294.5t-245.5 -175.5t-381.5 -58z" />
    <glyph glyph-name="lamedWidehb" unicode="&#xfb25;" horiz-adv-x="1441" 
d="M1085 985h-1013v494h263v-288h994zM1370 1023l-593 -1023h-279l672 1191h200v-168z" />
    <glyph glyph-name="memFinalWidehb" unicode="&#xfb26;" horiz-adv-x="1798" 
d="M136 0v1191h1507v-1191h-1507zM398 207h983v778h-983v-778z" />
    <glyph glyph-name="reshWidehb" unicode="&#xfb27;" horiz-adv-x="1407" 
d="M1003 0v804q0 86 -49 133.5t-139 47.5h-770v206h785q206 0 321 -106t115 -296v-789h-263z" />
    <glyph glyph-name="tavWidehb" unicode="&#xfb28;" horiz-adv-x="1793" 
d="M1181 1191q234 0 353 -113.5t119 -339.5v-738h-262l-1 758q0 117 -50.5 172t-157.5 55h-648q-22 -56 -35 -129t-13 -143v-365q0 -175 -89 -268.5t-250 -93.5q-37 0 -69.5 3t-67.5 8v205q17 -1 33.5 -2t33.5 -1q77 0 115 40.5t38 126.5v324q0 72 19.5 155t57.5 140h-200
v206h1074z" />
    <glyph glyph-name="uniFB29" unicode="&#xfb29;" horiz-adv-x="1114" 
d="M435 1206h237v-416h383v-219h-998v219h378v416z" />
    <glyph glyph-name="uniFB2A" unicode="&#xfb2a;" horiz-adv-x="1715" 
d="M425 1191v-934q88 -38 190 -60.5t192 -22.5q139 0 248 39.5t172 122.5t63 212v643h255v-671q0 -140 -57.5 -244t-158 -173t-231.5 -102.5t-280 -33.5q-156 0 -325 37.5t-322 110.5v1076h254zM671 359q27 39 40.5 109t13.5 155v568h255v-515q0 -101 -24 -185t-70 -134z
M1406 1344q-39 0 -66 24.5t-27 58.5q0 36 27 60t66 24q40 0 66 -24t26 -60t-26 -59.5t-66 -23.5z" />
    <glyph glyph-name="uniFB2B" unicode="&#xfb2b;" horiz-adv-x="1715" 
d="M425 1191v-934q88 -38 190 -60.5t192 -22.5q139 0 248 39.5t172 122.5t63 212v643h255v-671q0 -140 -57.5 -244t-158 -173t-231.5 -102.5t-280 -33.5q-156 0 -325 37.5t-322 110.5v1076h254zM671 359q27 39 40.5 109t13.5 155v568h255v-515q0 -101 -24 -185t-70 -134z
M292 1344q-40 0 -66.5 24.5t-26.5 58.5q0 37 26.5 60.5t65.5 23.5q41 0 67 -24t26 -60t-26 -59.5t-66 -23.5z" />
    <glyph glyph-name="uniFB2C" unicode="&#xfb2c;" horiz-adv-x="1715" 
d="M425 1191v-934q88 -38 190 -60.5t192 -22.5q139 0 248 39.5t172 122.5t63 212v643h255v-671q0 -140 -57.5 -244t-158 -173t-231.5 -102.5t-280 -33.5q-156 0 -325 37.5t-322 110.5v1076h254zM671 359q27 39 40.5 109t13.5 155v568h255v-515q0 -101 -24 -185t-70 -134z
M1133 519q-40 0 -66.5 24.5t-26.5 59.5q0 36 26.5 60t66.5 24t66 -24t26 -60t-26 -60t-66 -24zM1406 1344q-39 0 -66 24.5t-27 58.5q0 36 27 60t66 24q40 0 66 -24t26 -60t-26 -59.5t-66 -23.5z" />
    <glyph glyph-name="uniFB2D" unicode="&#xfb2d;" horiz-adv-x="1715" 
d="M425 1191v-934q88 -38 190 -60.5t192 -22.5q139 0 248 39.5t172 122.5t63 212v643h255v-671q0 -140 -57.5 -244t-158 -173t-231.5 -102.5t-280 -33.5q-156 0 -325 37.5t-322 110.5v1076h254zM671 359q27 39 40.5 109t13.5 155v568h255v-515q0 -101 -24 -185t-70 -134z
M1133 519q-40 0 -66.5 24.5t-26.5 59.5q0 36 26.5 60t66.5 24t66 -24t26 -60t-26 -60t-66 -24zM292 1344q-40 0 -66.5 24.5t-26.5 58.5q0 37 26.5 60.5t65.5 23.5q41 0 67 -24t26 -60t-26 -59.5t-66 -23.5z" />
    <glyph glyph-name="uniFB2E" unicode="&#xfb2e;" horiz-adv-x="1352" 
d="M967 0l-841 1191h294l839 -1191h-292zM172 0v409q0 177 62.5 280t200.5 152l96 -133q-105 -56 -105 -191v-517h-254zM1269 1191l-400 -739l-171 206l276 533h295zM467 -305v118h448v-118h-448z" />
    <glyph glyph-name="uniFB2F" unicode="&#xfb2f;" horiz-adv-x="1352" 
d="M967 0l-841 1191h294l839 -1191h-292zM172 0v409q0 177 62.5 280t200.5 152l96 -133q-105 -56 -105 -191v-517h-254zM1269 1191l-400 -739l-171 206l276 533h295zM692 -566q-39 0 -65.5 25t-26.5 59q0 27 12 45t25.5 46.5t17.5 85.5h-166v118h405v-118h-165
q5 -57 18.5 -85.5t25 -46.5t11.5 -45q0 -36 -26 -60t-66 -24z" />
    <glyph glyph-name="uniFB30" unicode="&#xfb30;" horiz-adv-x="1352" 
d="M967 0l-841 1191h294l839 -1191h-292zM172 0v409q0 177 62.5 280t200.5 152l96 -133q-105 -56 -105 -191v-517h-254zM1269 1191l-400 -739l-171 206l276 533h295zM607 102q-40 0 -66.5 24.5t-26.5 59.5q0 36 26.5 60t66.5 24t66 -24t26 -60t-26 -60t-66 -24z" />
    <glyph glyph-name="uniFB31" unicode="&#xfb31;" horiz-adv-x="1101" 
d="M56 0v207h603l262 9l141 -18v-198h-1006zM659 60v700q0 116 -55.5 170.5t-175.5 54.5h-307v206h325q229 0 352 -113.5t123 -327.5v-690h-262zM361 519q-40 0 -66.5 24.5t-26.5 59.5q0 36 26.5 60t66.5 24t66 -24t26 -60t-26 -60t-66 -24z" />
    <glyph glyph-name="uniFB32" unicode="&#xfb32;" horiz-adv-x="862" 
d="M80 -11q-15 0 -32 1t-33 3v239q21 -3 41.5 -5t38.5 -2q86 2 149.5 32t105.5 84t63 125v519h-263v206h522v-608q0 -96 20 -187l81 -396h-244l-70 314h-7q-14 -89 -66 -163t-131 -118t-175 -44zM182 519q-40 0 -66.5 24.5t-26.5 59.5q0 36 26.5 60t66.5 24t66 -24t26 -60
t-26 -60t-66 -24z" />
    <glyph glyph-name="uniFB33" unicode="&#xfb33;" horiz-adv-x="1123" 
d="M60 1191h997v-206h-205v-985h-264v985h-528v206zM303 519q-40 0 -66.5 24.5t-26.5 59.5q0 36 26.5 60t66.5 24t66 -24t26 -60t-26 -60t-66 -24z" />
    <glyph glyph-name="uniFB34" unicode="&#xfb34;" horiz-adv-x="1248" 
d="M845 0v760q0 116 -56 170.5t-175 54.5h-468v206h485q230 0 353.5 -113.5t123.5 -327.5v-750h-263zM144 0v408q0 115 23.5 171t40.5 83h211q-9 -42 -15 -97t-6 -133v-432h-254zM622 519q-40 0 -66.5 24.5t-26.5 59.5q0 36 26.5 60t66.5 24t66 -24t26 -60t-26 -60t-66 -24z
" />
    <glyph glyph-name="uniFB35" unicode="&#xfb35;" horiz-adv-x="637" 
d="M203 0v985h-117v206h381v-1191h-264zM43 519q-40 0 -66.5 24.5t-26.5 59.5q0 36 26.5 60t66.5 24t66 -24t26 -60t-26 -60t-66 -24z" />
    <glyph glyph-name="uniFB36" unicode="&#xfb36;" horiz-adv-x="767" 
d="M289 0l-144 975l-74 17v199h628v-206h-296l156 -985h-270zM614 519q-40 0 -66.5 24.5t-26.5 59.5q0 36 26.5 60t66.5 24t66 -24t26 -60t-26 -60t-66 -24z" />
    <glyph glyph-name="uniFB38" unicode="&#xfb38;" horiz-adv-x="1291" 
d="M673 -23q-151 0 -264 62.5t-175.5 175t-62.5 261.5v715h262v-742q0 -120 66 -194.5t173 -74.5t172.5 74.5t65.5 194.5v365q0 85 -37 129.5t-110 44.5q-27 0 -58 -6.5t-64 -17.5l-30 170q52 32 117 50.5t123 18.5q150 0 236 -98t86 -270v-359q0 -149 -62.5 -261.5
t-175 -175t-262.5 -62.5zM673 519q-40 0 -66.5 24.5t-26.5 59.5q0 36 26.5 60t66.5 24t66 -24t26 -60t-26 -60t-66 -24z" />
    <glyph glyph-name="uniFB39" unicode="&#xfb39;" horiz-adv-x="670" 
d="M252 517v468h-199v206h462v-674h-263zM70 686q-40 0 -66.5 24.5t-26.5 59.5q0 36 26.5 60t66.5 24t66 -24t26 -60t-26 -60t-66 -24z" />
    <glyph glyph-name="kafdageshFinalhb" unicode="&#xfb3a;" horiz-adv-x="1047" 
d="M618 -416v1401h-550v206h809v-1607h-259zM314 557q-40 0 -66.5 24.5t-26.5 59.5q0 36 26.5 60t66.5 24t66 -24t26 -60t-26 -60t-66 -24z" />
    <glyph glyph-name="uniFB3B" unicode="&#xfb3b;" horiz-adv-x="1119" 
d="M414 -18q-78 0 -164 12.5t-179 36.5l40 193q159 -38 272 -38q154 3 229 74t75 205v520h-572v206h834v-677q0 -185 -66 -303t-186 -173.5t-283 -55.5zM381 519q-40 0 -66.5 24.5t-26.5 59.5q0 36 26.5 60t66.5 24t66 -24t26 -60t-26 -60t-66 -24z" />
    <glyph glyph-name="uniFB3C" unicode="&#xfb3c;" horiz-adv-x="1090" 
d="M72 985v551h263v-345h590v-206h-853zM1018 1023l-411 -1023h-279l491 1191h199v-168zM300 582q-40 0 -66.5 24.5t-26.5 59.5q0 36 26.5 60t66.5 24t66 -24t26 -60t-26 -60t-66 -24z" />
    <glyph glyph-name="uniFB3E" unicode="&#xfb3e;" horiz-adv-x="1337" 
d="M161 0l83 704q10 82 43 155t78 113q3 3 7.5 6.5t8.5 6.5l-2 3q-41 -6 -101 -22.5t-105 -33.5l-57 193q77 28 170.5 48.5t192 32.5t186.5 12q259 0 394.5 -134.5t136.5 -395.5v-688h-509v206h247l-1 516q0 135 -57.5 207.5t-163.5 72.5q-90 0 -144.5 -70t-68.5 -196
l-78 -736h-260zM708 519q-40 0 -66.5 24.5t-26.5 59.5q0 36 26.5 60t66.5 24t66 -24t26 -60t-26 -60t-66 -24z" />
    <glyph glyph-name="uniFB40" unicode="&#xfb40;" horiz-adv-x="789" 
d="M274 -20q-57 0 -106 6.5t-108 19.5l3 199q69 -11 145 -11q74 0 110.5 41.5t36.5 128.5v621h-219v206h482v-848q0 -175 -90 -269t-254 -94zM152 519q-40 0 -66.5 24.5t-26.5 59.5q0 36 26.5 60t66.5 24t66 -24t26 -60t-26 -60t-66 -24z" />
    <glyph glyph-name="uniFB41" unicode="&#xfb41;" horiz-adv-x="1317" 
d="M676 -23q-154 0 -271 69t-183 194t-68 291l-1 92q0 66 18 134.5t49.5 126t69.5 89.5q4 3 7.5 6.5t7.5 5.5l-2 4q-33 -5 -84.5 -18t-92.5 -24l-49 193q79 24 175.5 41.5t197 27t188.5 9.5q178 0 303 -65.5t191 -190t66 -304.5v-127q0 -166 -65 -291t-182.5 -194
t-274.5 -69zM675 195q78 0 136.5 42t91.5 117t33 175v125q0 110 -31.5 188t-91.5 119t-143 41q-79 0 -135 -42.5t-86.5 -123.5t-32.5 -197v-110q0 -100 32.5 -175t91 -117t135.5 -42zM676 519q-40 0 -66.5 24.5t-26.5 59.5q0 36 26.5 60t66.5 24t66 -24t26 -60t-26 -60
t-66 -24z" />
    <glyph glyph-name="pedageshFinalhb" unicode="&#xfb43;" horiz-adv-x="1257" 
d="M1087 1191v-1607h-260v1401h-333q-17 -38 -29 -83.5t-18.5 -93.5t-6.5 -94v-115q22 -7 54.5 -10t71.5 -2v-192q-78 -7 -146 -2.5t-126 21.5t-108 46l-2 172q0 66 9.5 131.5t29 123t45.5 98.5h-132v206h951zM637 686q-40 0 -66.5 24.5t-26.5 59.5q0 36 26.5 60t66.5 24
t66 -24t26 -60t-26 -60t-66 -24z" />
    <glyph glyph-name="uniFB44" unicode="&#xfb44;" horiz-adv-x="1330" 
d="M601 -24q-94 0 -206 18.5t-214 54.5l50 193q96 -28 191.5 -42t163.5 -14q152 2 231 73t79 206v520h-402q-26 -57 -40 -124t-14 -136v-71q22 -7 54 -10t72 -2v-192q-79 -7 -146.5 -3t-125.5 21.5t-108 46.5l-2 128q0 98 22 189.5t62 152.5h-132v206h1023v-685
q0 -185 -74 -302.5t-200 -172.5t-284 -55zM675 703q-40 0 -66.5 24.5t-26.5 59.5q0 36 26.5 60t66.5 24t66 -24t26 -60t-26 -60t-66 -24z" />
    <glyph glyph-name="uniFB46" unicode="&#xfb46;" horiz-adv-x="1171" 
d="M129 0v207h580l-668 984h293l335 -523l377 -546v-122h-917zM723 463l-162 210l260 518h294zM305 317q-40 0 -66.5 24.5t-26.5 59.5q0 36 26.5 60t66.5 24t66 -24t26 -60t-26 -60t-66 -24z" />
    <glyph glyph-name="uniFB47" unicode="&#xfb47;" horiz-adv-x="1312" 
d="M590 0v202q134 5 211.5 83t77.5 223v477h-709v206h972v-677q0 -160 -67 -273.5t-191 -174.5t-294 -66zM185 -416v845q0 114 23 170t41 83h211q-11 -42 -16 -96.5t-5 -132.5v-869h-254zM656 519q-40 0 -66.5 24.5t-26.5 59.5q0 36 26.5 60t66.5 24t66 -24t26 -60t-26 -60
t-66 -24z" />
    <glyph glyph-name="uniFB48" unicode="&#xfb48;" horiz-adv-x="1013" 
d="M609 0v804q0 86 -49.5 133.5t-139.5 47.5h-375v206h392q204 0 319.5 -106t115.5 -296v-789h-263zM307 519q-40 0 -66.5 24.5t-26.5 59.5q0 36 26.5 60t66.5 24t66 -24t26 -60t-26 -60t-66 -24z" />
    <glyph glyph-name="uniFB49" unicode="&#xfb49;" horiz-adv-x="1715" 
d="M425 1191v-934q88 -38 190 -60.5t192 -22.5q139 0 248 39.5t172 122.5t63 212v643h255v-671q0 -140 -57.5 -244t-158 -173t-231.5 -102.5t-280 -33.5q-156 0 -325 37.5t-322 110.5v1076h254zM671 359q27 39 40.5 109t13.5 155v568h255v-515q0 -101 -24 -185t-70 -134z
M1133 519q-40 0 -66.5 24.5t-26.5 59.5q0 36 26.5 60t66.5 24t66 -24t26 -60t-26 -60t-66 -24z" />
    <glyph glyph-name="uniFB4A" unicode="&#xfb4a;" horiz-adv-x="1305" 
d="M692 1191q235 0 354 -113.5t119 -339.5v-738h-262l-2 758q0 117 -50 172t-157 55h-160q-22 -56 -35 -129t-13 -143v-365q0 -175 -89 -268.5t-250 -93.5q-37 0 -69.5 3t-67.5 8v205q17 -1 33.5 -2t33.5 -1q77 0 115 40.5t38 126.5v324q0 72 19.5 155t57.5 140h-200v206
h585zM692 519q-40 0 -66.5 24.5t-26.5 59.5q0 36 26.5 60t66.5 24t66 -24t26 -60t-26 -60t-66 -24z" />
    <glyph glyph-name="uniFB4B" unicode="&#xfb4b;" horiz-adv-x="637" 
d="M203 0v985h-117v206h381v-1191h-264zM279 1344q-40 0 -66.5 24.5t-26.5 58.5q0 37 26.5 60.5t66.5 23.5q41 0 67 -24t26 -60t-26 -59.5t-67 -23.5z" />
    <glyph glyph-name="uniFB4C" unicode="&#xfb4c;" horiz-adv-x="1101" 
d="M56 0v207h603l262 9l141 -18v-198h-1006zM659 60v700q0 116 -55.5 170.5t-175.5 54.5h-307v206h325q229 0 352 -113.5t123 -327.5v-690h-262zM226 1363v138h545v-138h-545z" />
    <glyph glyph-name="uniFB4D" unicode="&#xfb4d;" horiz-adv-x="1119" 
d="M414 -18q-78 0 -164 12.5t-179 36.5l40 193q159 -38 272 -38q154 3 229 74t75 205v520h-572v206h834v-677q0 -185 -66 -303t-186 -173.5t-283 -55.5zM229 1363v138h545v-138h-545z" />
    <glyph glyph-name="uniFB4E" unicode="&#xfb4e;" horiz-adv-x="1330" 
d="M601 -24q-94 0 -206 18.5t-214 54.5l50 193q96 -28 191.5 -42t163.5 -14q152 2 231 73t79 206v520h-402q-26 -57 -40 -124t-14 -136v-71q22 -7 54 -10t72 -2v-192q-79 -7 -146.5 -3t-125.5 21.5t-108 46.5l-2 128q0 98 22 189.5t62 152.5h-132v206h1023v-685
q0 -185 -74 -302.5t-200 -172.5t-284 -55zM382 1363v138h545v-138h-545z" />
    <glyph glyph-name="uniFB4F" unicode="&#xfb4f;" horiz-adv-x="1239" 
d="M840 0l-768 1094v385h263v-339l797 -1140h-292zM1155 1191l-399 -739l-172 206l276 533h295z" />
    <glyph glyph-name="C.ss06" horiz-adv-x="1395" 
d="M1315 478q-15 -152 -85.5 -264t-194.5 -173.5t-300 -61.5q-185 0 -328 88.5t-225 251t-82 382.5v53q0 221 81.5 383t223.5 251t326 89q176 0 302 -63t197.5 -177t86.5 -266h-267q-19 137 -92 214t-227 77q-110 0 -192 -62t-127 -175t-45 -269v-55q0 -155 45.5 -269
t128 -176.5t194.5 -62.5q151 0 223 76t91 209h266z" />
    <glyph glyph-name="D.ss06" horiz-adv-x="1406" 
d="M264 0v214h311q155 0 257.5 64t152.5 175.5t50 252.5v45q0 145 -51 255.5t-151 172.5t-250 62h-325v215h336q157 0 287 -51.5t224.5 -146t146 -224t51.5 -285.5v-43q0 -156 -51.5 -285.5t-146.5 -224t-226.5 -145.5t-291.5 -51h-323zM414 0h-267v1456h267v-1456z" />
    <glyph glyph-name="O.ss06" horiz-adv-x="1498" 
d="M1396 707q0 -157 -47.5 -289.5t-134 -231t-205 -153t-259.5 -54.5q-140 0 -258 54.5t-206.5 153t-137 231t-48.5 289.5v42q0 156 48.5 288.5t136 231.5t205.5 153.5t258 54.5q141 0 259.5 -54.5t205.5 -153.5t135 -231.5t48 -288.5v-42zM1131 751q0 146 -47.5 260.5
t-133.5 181t-202 66.5q-113 0 -199.5 -66.5t-134.5 -181t-48 -260.5v-44q0 -146 48.5 -261.5t135.5 -182.5t200 -67q116 0 202 67t132.5 182.5t46.5 261.5v44z" />
    <glyph glyph-name="Q.ss06" horiz-adv-x="1500" 
d="M1357 -99l-172 -154l-365 306l165 154zM1396 712q0 -215 -83 -380.5t-228.5 -259t-334.5 -93.5q-140 0 -258 53.5t-206.5 151.5t-137 232.5t-48.5 295.5v31q0 162 48.5 296t136 232t205.5 152t258 54q141 0 259.5 -54t205.5 -152t135 -232t48 -296v-31zM1131 745
q0 153 -47.5 268.5t-133.5 180.5t-202 65q-113 0 -199.5 -65t-134.5 -180.5t-48 -268.5v-33q0 -153 48.5 -269.5t135.5 -181.5t200 -65q116 0 202 65t132.5 181.5t46.5 269.5v33z" />
    <glyph glyph-name="i.loclTRK" horiz-adv-x="544" 
d="M398 0h-257v1082h257v-1082zM271 1193q-68 0 -106.5 38.5t-38.5 95.5q0 59 38.5 97.5t106.5 38.5t107 -38.5t39 -97.5q0 -57 -39 -95.5t-107 -38.5z" />
    <glyph glyph-name="b.ss06" horiz-adv-x="1163" 
d="M377 1536v-1298l-35 -238h-221v1536h256zM1097 530q0 -158 -52 -282.5t-151 -196t-237 -71.5q-136 0 -223.5 68.5t-136 187.5t-66.5 271v59q18 158 66.5 278.5t135.5 189t222 68.5q140 0 239 -69t151 -193.5t52 -288.5v-21zM841 551q0 97 -26.5 174.5t-81.5 122.5
t-143 45q-61 0 -106.5 -20.5t-76 -57.5t-47.5 -87.5t-23 -111.5v-159q8 -73 36.5 -134t82.5 -97.5t136 -36.5q88 0 142.5 46t80.5 123.5t26 171.5v21z" />
    <glyph glyph-name="c.ss06" horiz-adv-x="1089" 
d="M581 -20q-166 0 -278 73.5t-169 197t-57 273.5v33q0 151 56.5 274.5t169 197t277.5 73.5q131 0 231 -51.5t157 -144t61 -217.5h-241q-3 57 -29 104t-72.5 75t-110.5 28q-93 0 -146 -49t-75 -126.5t-22 -163.5v-33q0 -86 21.5 -163.5t75 -126t148.5 -48.5q57 0 103 22.5
t75 62.5t32 93h241q-4 -108 -65 -195t-161 -138t-222 -51z" />
    <glyph glyph-name="d.ss06" horiz-adv-x="1175" 
d="M519 -20q-131 0 -231 71.5t-156 196t-56 281.5v21q0 165 55.5 289.5t156 193.5t233.5 69q131 0 218.5 -68t138 -188.5t67.5 -278.5v-59q-17 -152 -67.5 -271.5t-138.5 -188t-220 -68.5zM584 190q79 0 132 35t83 96t40 136v160q-6 60 -24 110.5t-49 87.5t-76 57.5
t-104 20.5q-83 0 -139.5 -45t-85.5 -122.5t-29 -175.5v-21q0 -93 28 -170t84 -123t140 -46zM828 0l-33 229v1307h256v-1536h-223z" />
    <glyph glyph-name="g.ss06" horiz-adv-x="1171" 
d="M1051 1082v-1000q0 -244 -133.5 -376t-372.5 -132q-75 0 -167 19.5t-168 64.5l50 185q58 -30 123.5 -49t139.5 -19q141 0 206 76t65 227v757l36 247h221zM76 551q0 164 55.5 288.5t155.5 193.5t234 69q106 0 180.5 -39t123.5 -110.5t77.5 -169t42.5 -215.5v-60
q-13 -114 -44 -210t-81.5 -167.5t-125 -111t-175.5 -39.5q-133 0 -233 72t-155 196t-55 282v21zM332 530q0 -94 28 -171t84 -123t139 -46t135.5 35t81 96t38.5 137v159q-5 61 -22.5 111.5t-47.5 87t-75.5 57t-107.5 20.5q-83 0 -139.5 -45t-85 -122.5t-28.5 -174.5v-21z" />
    <glyph glyph-name="o.ss06" horiz-adv-x="1182" 
d="M70 551q0 158 64 282t180.5 196.5t275.5 72.5q161 0 278 -72.5t180 -196.5t63 -282v-21q0 -157 -63 -281.5t-179.5 -196.5t-276.5 -72t-277 72t-181 196.5t-64 281.5v21zM327 530q0 -94 29.5 -172t88 -125t147.5 -47q87 0 145.5 47t88.5 125t30 172v21q0 93 -29.5 171.5
t-89 126t-147.5 47.5q-87 0 -146 -47.5t-88 -126t-29 -171.5v-21z" />
    <glyph glyph-name="p.ss06" horiz-adv-x="1172" 
d="M377 -416h-256v1498h231l25 -208v-1290zM1096 530q0 -158 -53.5 -282t-152 -196t-234.5 -72q-102 0 -177 38.5t-126.5 108.5t-82.5 164.5t-45 206.5v70q18 158 68 278t138.5 188t222.5 68q137 0 236 -69t152.5 -193.5t53.5 -288.5v-21zM840 551q0 97 -29 174.5t-86 122.5
t-141 45q-62 0 -106.5 -20.5t-75 -57t-48 -87t-22.5 -111.5v-170q10 -73 38.5 -132t81 -94t134.5 -35q84 0 140.5 47t85 125t28.5 172v21z" />
    <glyph glyph-name="q.ss06" horiz-adv-x="1180" 
d="M521 -20q-135 0 -235 71.5t-155 196t-55 281.5v21q0 165 55 289t155.5 193.5t236.5 69.5q134 0 222 -68t137.5 -188.5t67.5 -277.5v-60q-18 -152 -67.5 -271.5t-137.5 -188t-224 -68.5zM586 186q83 0 136 36.5t82.5 98t39.5 136.5v160q-6 60 -23.5 111t-48.5 89
t-76.5 58.5t-107.5 20.5q-84 0 -141 -46t-86 -124t-29 -176v-21q0 -94 28.5 -172t85 -124.5t140.5 -46.5zM794 -416v1281l34 217h223v-1498h-257z" />
    <glyph glyph-name="e.ss07" horiz-adv-x="1101" 
d="M628 -20q-168 0 -291.5 70t-190.5 190.5t-67 272.5v41q0 165 64 288t176 191.5t255 68.5q156 0 259.5 -64.5t155.5 -180t52 -266.5v-130h-841v182h588v26q0 63 -21.5 114.5t-68 82t-124.5 30.5t-131.5 -43t-80 -120t-26.5 -179v-41q0 -93 35.5 -167t107 -117t179.5 -43
q81 0 156 23t127 55l56 -177q-51 -38 -143.5 -72.5t-225.5 -34.5z" />
    <glyph glyph-name="g.ss07" horiz-adv-x="1163" 
d="M1032 1082v-1010q0 -239 -133.5 -368.5t-373.5 -129.5q-69 0 -156 17.5t-158 57.5l49 184q55 -26 115 -42t129 -16q140 0 205.5 73.5t65.5 219.5v767l36 247h221zM76 551q0 164 50.5 288t146 193.5t229.5 69.5q106 0 180.5 -39t124 -110.5t77.5 -169t42 -215.5v-59
q-14 -115 -44.5 -211t-81.5 -167.5t-125 -111t-175 -39.5q-133 0 -228 71.5t-145.5 196t-50.5 282.5v21zM333 530q0 -94 23 -171t74 -123t135 -46q83 0 134 35t78 96t38 137v159q-7 61 -23 111.5t-45.5 87t-74 57t-105.5 20.5q-84 0 -135.5 -45t-75 -122.5t-23.5 -174.5v-21
z" />
    <glyph glyph-name="longs_t" horiz-adv-x="1305" 
d="M203 0v1183q0 181 101 277.5t279 96.5q124 0 247 -32t220 -73v-207h-256v75q-24 12 -73.5 21.5t-101.5 9.5q-78 0 -118.5 -44.5t-40.5 -123.5v-1183h-257zM40 893v189h361v-189h-361zM1241 893h-618v189h618v-189zM1050 1347v-1037q0 -49 14 -74.5t39.5 -34.5t60.5 -9
q25 0 48 3t37 6v-197q-32 -10 -72 -17t-92 -7q-86 0 -151.5 30.5t-102.5 98.5t-37 181v1057h256z" />
    <glyph glyph-name="s_t" horiz-adv-x="1726" 
d="M839 757q-39 110 -83.5 195.5t-76 160.5t-31.5 151q0 82 47 148.5t136 106t216 39.5q126 0 209 -33.5t132 -89.5t69.5 -125t20.5 -140h-256q0 66 -22.5 109t-63 64.5t-95.5 21.5q-57 0 -93 -21.5t-52.5 -56.5t-16.5 -75q0 -59 13 -109.5t30.5 -101.5t31 -109.5
t13.5 -134.5h-128zM1668 893h-612v189h612v-189zM1478 1171v-846q0 -77 30.5 -105t82.5 -28q25 0 48 3t37 6l1 -197q-32 -10 -72.5 -17t-92.5 -7q-129 0 -209.5 80t-80.5 264v847h256zM528 -20q-149 0 -251.5 53.5t-155 136.5t-52.5 171h246q4 -62 35.5 -100.5t80 -55.5
t101.5 -17q62 0 104 16.5t63.5 45t21.5 66.5q0 34 -17.5 61t-67 50t-145.5 43q-114 24 -201 64t-136.5 103.5t-49.5 154.5q0 89 51 164t146 120.5t225 45.5q137 0 235.5 -45.5t151.5 -123t53 -176.5h-256q0 64 -46 110.5t-139 46.5q-56 0 -95 -18t-58 -47.5t-19 -64.5
q0 -34 19.5 -59.5t66.5 -45t131 -37.5q122 -25 212.5 -64.5t140 -104t49.5 -165.5q0 -95 -54.5 -169.5t-154.5 -116.5t-235 -42z" />
    <glyph glyph-name="A.smcp" horiz-adv-x="1185" 
d="M264 0h-258l467 1165h173l-41 -264zM577 901l-41 264h176l466 -1165h-258zM910 241h-664v192h664v-192z" />
    <glyph glyph-name="Aacute.smcp" horiz-adv-x="1185" 
d="M264 0h-258l467 1165h173l-41 -264zM577 901l-41 264h176l466 -1165h-258zM910 241h-664v192h664v-192zM681 1610h286l-275 -303h-207z" />
    <glyph glyph-name="Acircumflex.smcp" horiz-adv-x="1185" 
d="M264 0h-258l467 1165h173l-41 -264zM577 901l-41 264h176l466 -1165h-258zM910 241h-664v192h664v-192zM951 1333v-12h-205l-153 153l-152 -153h-202v14l280 275h149z" />
    <glyph glyph-name="Adieresis.smcp" horiz-adv-x="1185" 
d="M264 0h-258l467 1165h173l-41 -264zM577 901l-41 264h176l466 -1165h-258zM910 241h-664v192h664v-192zM826 1302q-58 0 -93.5 34.5t-35.5 85.5q0 50 35.5 85t93.5 35t94 -35t36 -85q0 -51 -36 -85.5t-94 -34.5zM358 1302q-59 0 -94.5 34.5t-35.5 85.5q0 50 35.5 85
t94.5 35q58 0 93.5 -35t35.5 -85q0 -51 -35.5 -85.5t-93.5 -34.5z" />
    <glyph glyph-name="Agrave.smcp" horiz-adv-x="1185" 
d="M264 0h-258l467 1165h173l-41 -264zM577 901l-41 264h176l466 -1165h-258zM910 241h-664v192h664v-192zM728 1307h-212l-271 303h288z" />
    <glyph glyph-name="Aring.smcp" horiz-adv-x="1185" 
d="M264 0h-258l467 1165h173l-41 -264zM577 901l-41 264h176l466 -1165h-258zM910 241h-664v192h664v-192zM593 1306q-95 0 -158 58.5t-63 143.5t63 145.5t158 60.5q94 0 157 -60.5t63 -145.5t-63 -143.5t-157 -58.5zM593 1408q45 0 73 30t28 70q0 41 -28 72t-73 31
q-46 0 -73.5 -31t-27.5 -72q0 -40 27.5 -70t73.5 -30z" />
    <glyph glyph-name="Atilde.smcp" horiz-adv-x="1185" 
d="M264 0h-258l467 1165h173l-41 -264zM577 901l-41 264h176l466 -1165h-258zM910 241h-664v192h664v-192zM378 1340l-154 9q0 72 29 131t79 94.5t115 35.5q40 0 74 -13.5t64.5 -31t62.5 -31t71 -13.5q37 0 63.5 27t26.5 74l153 -12q0 -73 -29 -131.5t-79.5 -92.5
t-114.5 -34q-49 0 -83 13.5t-62 31t-57.5 31t-69.5 13.5q-38 0 -63.5 -27.5t-25.5 -73.5z" />
    <glyph glyph-name="AE.smcp" horiz-adv-x="1609" 
d="M1544 0h-643v205h643v-205zM1438 504h-567v205h567v-205zM1499 960h-642v205h642v-205zM252 0h-277l610 1165h171l8 -116zM941 250h-640v204h640v-204zM1011 0h-255l-44 1165h255z" />
    <glyph glyph-name="B.smcp" horiz-adv-x="1124" 
d="M282 500l-2 178h285q94 0 143 34.5t49 102.5q0 76 -49 109.5t-145 33.5h-194v-958h-257v1165h436q218 0 342 -78.5t124 -241.5q0 -71 -35 -133.5t-109.5 -101t-193.5 -40.5l-74 -70h-320zM210 0l101 206h280q100 0 147.5 41t47.5 101q0 70 -43 111t-141 41h-249l1 178
h311l59 -71q85 3 146 -20t99 -63t55.5 -89.5t17.5 -100.5q0 -170 -117.5 -252t-333.5 -82h-381z" />
    <glyph glyph-name="C.smcp" horiz-adv-x="1153" 
d="M1095 392q-9 -121 -70.5 -212.5t-170.5 -143.5t-263 -52q-160 0 -276 68t-178 194.5t-62 300.5v70q0 174 63.5 300.5t180.5 195t275 68.5q157 0 264 -53.5t166.5 -147.5t71.5 -215h-257q-8 92 -62.5 151t-182.5 59q-87 0 -145.5 -40t-88.5 -119.5t-30 -197.5v-71
q0 -116 27 -196t85 -120.5t149 -40.5q122 0 180 50.5t67 151.5h257z" />
    <glyph glyph-name="Ccedilla.smcp" horiz-adv-x="1153" 
d="M1095 392q-9 -121 -70.5 -212.5t-170.5 -143.5t-263 -52q-160 0 -276 68t-178 194.5t-62 300.5v70q0 174 63.5 300.5t180.5 195t275 68.5q157 0 264 -53.5t166.5 -147.5t71.5 -215h-257q-8 92 -62.5 151t-182.5 59q-87 0 -145.5 -40t-88.5 -119.5t-30 -197.5v-71
q0 -116 27 -196t85 -120.5t149 -40.5q122 0 180 50.5t67 151.5h257zM649 5l-12 -56q57 -10 104 -48.5t47 -124.5q0 -104 -85 -166.5t-250 -62.5l-7 146q37 0 66.5 9t47 28.5t17.5 50.5q0 44 -35.5 60.5t-113.5 22.5l31 141h190z" />
    <glyph glyph-name="D.smcp" horiz-adv-x="1145" 
d="M224 0l1 206h271q112 0 182 40t102.5 118.5t32.5 192.5v52q0 115 -33 192.5t-102.5 117t-179.5 39.5h-280v207h280q169 0 297.5 -70.5t201.5 -196t73 -291.5v-50q0 -165 -73 -291t-202 -196t-299 -70h-272zM369 0h-257v1165h257v-1165z" />
    <glyph glyph-name="Eth.smcp" horiz-adv-x="1145" 
d="M584 498h-680v173h680v-173zM224 0l1 206h271q112 0 182 40t102.5 118.5t32.5 192.5v52q0 115 -33 192.5t-102.5 117t-179.5 39.5h-280v207h280q169 0 297.5 -70.5t201.5 -196t73 -291.5v-50q0 -165 -73 -291t-202 -196t-299 -70h-272zM369 0h-257v1165h257v-1165z" />
    <glyph glyph-name="E.smcp" horiz-adv-x="990" 
d="M951 0h-664v206h664v-206zM369 0h-257v1165h257v-1165zM866 499h-579v207h579v-207zM950 958h-663v207h663v-207z" />
    <glyph glyph-name="Eacute.smcp" horiz-adv-x="990" 
d="M951 0h-664v206h664v-206zM369 0h-257v1165h257v-1165zM866 499h-579v207h579v-207zM950 958h-663v207h663v-207zM583 1610h286l-275 -303h-207z" />
    <glyph glyph-name="Ecircumflex.smcp" horiz-adv-x="990" 
d="M951 0h-664v206h664v-206zM369 0h-257v1165h257v-1165zM866 499h-579v207h579v-207zM950 958h-663v207h663v-207zM853 1333v-12h-205l-153 153l-152 -153h-202v14l280 275h149z" />
    <glyph glyph-name="Edieresis.smcp" horiz-adv-x="990" 
d="M951 0h-664v206h664v-206zM369 0h-257v1165h257v-1165zM866 499h-579v207h579v-207zM950 958h-663v207h663v-207zM729 1302q-58 0 -93.5 34.5t-35.5 85.5q0 50 35.5 85t93.5 35t94 -35t36 -85q0 -51 -36 -85.5t-94 -34.5zM261 1302q-59 0 -94.5 34.5t-35.5 85.5
q0 50 35.5 85t94.5 35q58 0 93.5 -35t35.5 -85q0 -51 -35.5 -85.5t-93.5 -34.5z" />
    <glyph glyph-name="Egrave.smcp" horiz-adv-x="990" 
d="M951 0h-664v206h664v-206zM369 0h-257v1165h257v-1165zM866 499h-579v207h579v-207zM950 958h-663v207h663v-207zM630 1307h-212l-271 303h288z" />
    <glyph glyph-name="F.smcp" horiz-adv-x="966" 
d="M369 0h-257v1165h257v-1165zM867 469h-567v207h567v-207zM929 958h-629v207h629v-207z" />
    <glyph glyph-name="G.smcp" horiz-adv-x="1189" 
d="M1103 145q-29 -33 -89.5 -70.5t-156 -64t-233.5 -26.5q-161 0 -283.5 66t-190.5 192t-68 306v68q0 180 65.5 306.5t183.5 192.5t275 66q163 0 268 -50t160 -138.5t69 -203.5h-249q-10 58 -37 100t-76 64t-127 22q-88 0 -149.5 -40t-93.5 -119t-32 -198v-70
q0 -118 34 -198t101.5 -120t164.5 -40q92 0 139.5 18t67.5 34v190h-242v185h499v-472z" />
    <glyph glyph-name="H.smcp" horiz-adv-x="1244" 
d="M947 469h-653v207h653v-207zM369 0h-257v1165h257v-1165zM1131 0h-256v1165h256v-1165z" />
    <glyph glyph-name="I.smcp" horiz-adv-x="515" 
d="M386 0h-257v1165h257v-1165z" />
    <glyph glyph-name="Iacute.smcp" horiz-adv-x="515" 
d="M386 0h-257v1165h257v-1165zM346 1610h286l-275 -303h-207z" />
    <glyph glyph-name="Icircumflex.smcp" horiz-adv-x="515" 
d="M386 0h-257v1165h257v-1165zM616 1333v-12h-205l-153 153l-152 -153h-202v14l280 275h149z" />
    <glyph glyph-name="Idieresis.smcp" horiz-adv-x="515" 
d="M386 0h-257v1165h257v-1165zM491 1302q-58 0 -93.5 34.5t-35.5 85.5q0 50 35.5 85t93.5 35t94 -35t36 -85q0 -51 -36 -85.5t-94 -34.5zM23 1302q-59 0 -94.5 34.5t-35.5 85.5q0 50 35.5 85t94.5 35q58 0 93.5 -35t35.5 -85q0 -51 -35.5 -85.5t-93.5 -34.5z" />
    <glyph glyph-name="Igrave.smcp" horiz-adv-x="515" 
d="M386 0h-257v1165h257v-1165zM393 1307h-212l-271 303h288z" />
    <glyph glyph-name="J.smcp" horiz-adv-x="984" 
d="M618 1165h258v-789q0 -124 -55 -211.5t-148 -134t-208 -46.5q-126 0 -222.5 40t-151.5 123.5t-55 211.5h257q0 -88 45 -128.5t127 -40.5q72 0 112.5 46.5t40.5 139.5v789z" />
    <glyph glyph-name="K.smcp" horiz-adv-x="1119" 
d="M369 0h-257v1165h257v-1165zM622 579l-280 -272l-60 241l195 244l318 373h319zM457 530l190 156l485 -686h-305z" />
    <glyph glyph-name="L.smcp" horiz-adv-x="953" 
d="M917 0h-630v206h630v-206zM369 0h-257v1165h257v-1165z" />
    <glyph glyph-name="M.smcp" horiz-adv-x="1542" 
d="M448 1165l322 -826l322 826h219l-454 -1165h-175l-453 1165h219zM329 1165l40 -875v-290h-257v1165h217zM1429 1165v-1165h-257v290l40 875h217z" />
    <glyph glyph-name="N.smcp" horiz-adv-x="1242" 
d="M1130 0h-256l-505 775v-775h-257v1165h257l505 -775v775h256v-1165z" />
    <glyph glyph-name="Ntilde.smcp" horiz-adv-x="1242" 
d="M1130 0h-256l-505 775v-775h-257v1165h257l505 -775v775h256v-1165zM406 1340l-154 9q0 72 29 131t79 94.5t115 35.5q40 0 74 -13.5t64.5 -31t62.5 -31t71 -13.5q37 0 63.5 27t26.5 74l153 -12q0 -73 -29 -131.5t-79.5 -92.5t-114.5 -34q-49 0 -83 13.5t-62 31t-57.5 31
t-69.5 13.5q-38 0 -63.5 -27.5t-25.5 -73.5z" />
    <glyph glyph-name="O.smcp" horiz-adv-x="1215" 
d="M1140 556q0 -177 -67.5 -305.5t-187 -197.5t-276.5 -69t-278 69t-189 197.5t-68 305.5v52q0 178 67.5 306t188 197.5t277.5 69.5t277.5 -69.5t188 -197.5t67.5 -306v-52zM884 610q0 117 -33.5 198t-95 123.5t-148.5 42.5t-149 -42.5t-94.5 -123.5t-32.5 -198v-54
q0 -116 33 -198t95.5 -125t149.5 -43q130 0 202.5 96t72.5 270v54z" />
    <glyph glyph-name="Oacute.smcp" horiz-adv-x="1215" 
d="M1140 556q0 -177 -67.5 -305.5t-187 -197.5t-276.5 -69t-278 69t-189 197.5t-68 305.5v52q0 178 67.5 306t188 197.5t277.5 69.5t277.5 -69.5t188 -197.5t67.5 -306v-52zM884 610q0 117 -33.5 198t-95 123.5t-148.5 42.5t-149 -42.5t-94.5 -123.5t-32.5 -198v-54
q0 -116 33 -198t95.5 -125t149.5 -43q130 0 202.5 96t72.5 270v54zM695 1610h286l-275 -303h-207z" />
    <glyph glyph-name="Ocircumflex.smcp" horiz-adv-x="1215" 
d="M1140 556q0 -177 -67.5 -305.5t-187 -197.5t-276.5 -69t-278 69t-189 197.5t-68 305.5v52q0 178 67.5 306t188 197.5t277.5 69.5t277.5 -69.5t188 -197.5t67.5 -306v-52zM884 610q0 117 -33.5 198t-95 123.5t-148.5 42.5t-149 -42.5t-94.5 -123.5t-32.5 -198v-54
q0 -116 33 -198t95.5 -125t149.5 -43q130 0 202.5 96t72.5 270v54zM966 1333v-12h-205l-153 153l-152 -153h-202v14l280 275h149z" />
    <glyph glyph-name="Odieresis.smcp" horiz-adv-x="1215" 
d="M1140 556q0 -177 -67.5 -305.5t-187 -197.5t-276.5 -69t-278 69t-189 197.5t-68 305.5v52q0 178 67.5 306t188 197.5t277.5 69.5t277.5 -69.5t188 -197.5t67.5 -306v-52zM884 610q0 117 -33.5 198t-95 123.5t-148.5 42.5t-149 -42.5t-94.5 -123.5t-32.5 -198v-54
q0 -116 33 -198t95.5 -125t149.5 -43q130 0 202.5 96t72.5 270v54zM841 1302q-58 0 -93.5 34.5t-35.5 85.5q0 50 35.5 85t93.5 35t94 -35t36 -85q0 -51 -36 -85.5t-94 -34.5zM373 1302q-59 0 -94.5 34.5t-35.5 85.5q0 50 35.5 85t94.5 35q58 0 93.5 -35t35.5 -85
q0 -51 -35.5 -85.5t-93.5 -34.5z" />
    <glyph glyph-name="Ograve.smcp" horiz-adv-x="1215" 
d="M1140 556q0 -177 -67.5 -305.5t-187 -197.5t-276.5 -69t-278 69t-189 197.5t-68 305.5v52q0 178 67.5 306t188 197.5t277.5 69.5t277.5 -69.5t188 -197.5t67.5 -306v-52zM884 610q0 117 -33.5 198t-95 123.5t-148.5 42.5t-149 -42.5t-94.5 -123.5t-32.5 -198v-54
q0 -116 33 -198t95.5 -125t149.5 -43q130 0 202.5 96t72.5 270v54zM742 1307h-212l-271 303h288z" />
    <glyph glyph-name="Oslash.smcp" horiz-adv-x="1215" 
d="M82 -56l890 1269h163l-889 -1269h-164zM609 -16q-157 0 -278 69t-189 197.5t-68 305.5v52q0 178 67.5 306t188 197.5t277.5 69.5t277.5 -69.5t188 -197.5t67.5 -306v-52q0 -177 -67.5 -305.5t-187 -197.5t-276.5 -69zM609 190q130 0 202.5 96t72.5 270v54
q0 117 -33.5 198t-95 123.5t-148.5 42.5t-149 -42.5t-94.5 -123.5t-32.5 -198v-54q0 -116 33 -198t95.5 -125t149.5 -43z" />
    <glyph glyph-name="Otilde.smcp" horiz-adv-x="1215" 
d="M1140 556q0 -177 -67.5 -305.5t-187 -197.5t-276.5 -69t-278 69t-189 197.5t-68 305.5v52q0 178 67.5 306t188 197.5t277.5 69.5t277.5 -69.5t188 -197.5t67.5 -306v-52zM884 610q0 117 -33.5 198t-95 123.5t-148.5 42.5t-149 -42.5t-94.5 -123.5t-32.5 -198v-54
q0 -116 33 -198t95.5 -125t149.5 -43q130 0 202.5 96t72.5 270v54zM392 1340l-154 9q0 72 29 131t79 94.5t115 35.5q40 0 74 -13.5t64.5 -31t62.5 -31t71 -13.5q37 0 63.5 27t26.5 74l153 -12q0 -73 -29 -131.5t-79.5 -92.5t-114.5 -34q-49 0 -83 13.5t-62 31t-57.5 31
t-69.5 13.5q-38 0 -63.5 -27.5t-25.5 -73.5z" />
    <glyph glyph-name="P.smcp" horiz-adv-x="1135" 
d="M281 402v206h319q111 0 162.5 46.5t51.5 116.5q0 75 -51.5 131t-162.5 56h-231v-958h-257v1165h488q148 0 253 -50.5t161 -139t56 -202.5q0 -112 -56 -195.5t-161 -129.5t-253 -46h-319z" />
    <glyph glyph-name="Thorn.smcp" horiz-adv-x="1035" 
d="M112 1165h257v-1165h-257v1165zM281 432h234q111 0 162.5 49t51.5 124q0 71 -51.5 124t-162.5 53h-232v207h232q148 0 252.5 -49.5t160.5 -135.5t56 -197q0 -115 -56 -201t-160.5 -133.5t-252.5 -47.5h-234v207z" />
    <glyph glyph-name="Q.smcp" horiz-adv-x="1215" 
d="M1132 -70l-164 -142l-333 255l156 142zM1138 556q0 -177 -67 -305.5t-186.5 -197.5t-277.5 -69q-157 0 -277 69t-188.5 197.5t-68.5 305.5v52q0 178 68 306t188 197.5t276 69.5q158 0 278 -69.5t187.5 -197.5t67.5 -306v-52zM883 610q0 117 -33 198t-95 123.5t-150 42.5
q-87 0 -148.5 -42.5t-94.5 -123.5t-33 -198v-54q0 -174 73.5 -270t204.5 -96t203.5 96t72.5 270v54z" />
    <glyph glyph-name="R.smcp" horiz-adv-x="1128" 
d="M578 1165q215 0 339 -90t124 -261q0 -98 -34 -165.5t-96 -111.5t-145 -72l-81 -47h-404l-2 206h301q68 0 113.5 20.5t68 57.5t22.5 89q0 77 -51 122t-155 45h-209v-958h-257v1165h466zM527 516l271 2l290 -506v-12h-276z" />
    <glyph glyph-name="S.smcp" horiz-adv-x="1084" 
d="M559 -16q-91 0 -180 22.5t-160.5 68.5t-114.5 118t-43 171h258q0 -50 17 -85.5t49.5 -58t79 -33t104.5 -10.5q70 0 113 19t63 49t20 63q0 42 -20.5 72.5t-72 55t-143.5 45.5q-141 34 -236 79.5t-143.5 114t-48.5 170.5q0 100 57 175.5t157 118t230 42.5q141 0 246.5 -45
t163.5 -126t58 -190h-256q0 69 -53.5 118t-159.5 49q-101 0 -148.5 -41.5t-47.5 -92.5q0 -37 23.5 -65t76.5 -50.5t141 -45.5q140 -32 234 -80.5t141.5 -120.5t47.5 -176t-56 -178t-158 -113.5t-239 -39.5z" />
    <glyph glyph-name="uni1E9E.smcp" horiz-adv-x="1124" 
d="M364 0h-252v747h252v-747zM112 745q0 144 48 241t141.5 146t232.5 49q140 0 244.5 -59.5t191.5 -160.5l-341 -407l-142 5v116l194 244q-27 24 -63.5 42t-85.5 18q-58 0 -95 -29t-55 -81.5t-18 -123.5h-252zM503 229q24 -15 59.5 -31.5t80.5 -16.5q76 0 118.5 47.5
t42.5 124.5q0 85 -60.5 120t-173.5 35h-83v164l112 11q212 0 334.5 -84t122.5 -244q0 -123 -52 -206.5t-141 -126.5t-198 -43q-70 0 -128 15t-107 41z" />
    <glyph glyph-name="T.smcp" horiz-adv-x="1092" 
d="M671 0h-257v1165h257v-1165zM1055 958h-1020v207h1020v-207z" />
    <glyph glyph-name="U.smcp" horiz-adv-x="1161" 
d="M1061 1165v-764q0 -136 -62 -228.5t-170 -140.5t-248 -48t-248.5 48t-170 140.5t-61.5 228.5v764h256v-764q0 -73 27 -120.5t77 -69t120 -21.5q106 0 164.5 50t58.5 161v764h257z" />
    <glyph glyph-name="Uacute.smcp" horiz-adv-x="1161" 
d="M1061 1165v-764q0 -136 -62 -228.5t-170 -140.5t-248 -48t-248.5 48t-170 140.5t-61.5 228.5v764h256v-764q0 -73 27 -120.5t77 -69t120 -21.5q106 0 164.5 50t58.5 161v764h257zM668 1610h286l-275 -303h-207z" />
    <glyph glyph-name="Ucircumflex.smcp" horiz-adv-x="1161" 
d="M1061 1165v-764q0 -136 -62 -228.5t-170 -140.5t-248 -48t-248.5 48t-170 140.5t-61.5 228.5v764h256v-764q0 -73 27 -120.5t77 -69t120 -21.5q106 0 164.5 50t58.5 161v764h257zM938 1333v-12h-205l-153 153l-152 -153h-202v14l280 275h149z" />
    <glyph glyph-name="Udieresis.smcp" horiz-adv-x="1161" 
d="M1061 1165v-764q0 -136 -62 -228.5t-170 -140.5t-248 -48t-248.5 48t-170 140.5t-61.5 228.5v764h256v-764q0 -73 27 -120.5t77 -69t120 -21.5q106 0 164.5 50t58.5 161v764h257zM814 1302q-58 0 -93.5 34.5t-35.5 85.5q0 50 35.5 85t93.5 35t94 -35t36 -85
q0 -51 -36 -85.5t-94 -34.5zM346 1302q-59 0 -94.5 34.5t-35.5 85.5q0 50 35.5 85t94.5 35q58 0 93.5 -35t35.5 -85q0 -51 -35.5 -85.5t-93.5 -34.5z" />
    <glyph glyph-name="Ugrave.smcp" horiz-adv-x="1161" 
d="M1061 1165v-764q0 -136 -62 -228.5t-170 -140.5t-248 -48t-248.5 48t-170 140.5t-61.5 228.5v764h256v-764q0 -73 27 -120.5t77 -69t120 -21.5q106 0 164.5 50t58.5 161v764h257zM715 1307h-212l-271 303h288z" />
    <glyph glyph-name="V.smcp" horiz-adv-x="1151" 
d="M874 1165h271l-436 -1165h-189l70 309zM558 312l73 -312h-190l-435 1165h271z" />
    <glyph glyph-name="W.smcp" horiz-adv-x="1541" 
d="M659 1165h144l14 -180l-250 -985h-149l3 174zM481 183l-6 -183h-159l-279 1165h249zM1258 1165h248l-278 -1165h-158l-6 184zM1125 173l2 -173h-150l-250 985l15 180h144z" />
    <glyph glyph-name="X.smcp" horiz-adv-x="1120" 
d="M550 770l232 395h297l-369 -577l393 -588h-304l-246 402l-240 -402h-298l380 588l-371 577h296z" />
    <glyph glyph-name="Y.smcp" horiz-adv-x="1090" 
d="M807 1165h280l-430 -781h-142l-32 138zM609 516l-35 -132h-142l-429 781h280zM670 0h-257v548h257v-548z" />
    <glyph glyph-name="Yacute.smcp" horiz-adv-x="1090" 
d="M807 1165h280l-430 -781h-142l-32 138zM609 516l-35 -132h-142l-429 781h280zM670 0h-257v548h257v-548zM633 1610h286l-275 -303h-207z" />
    <glyph glyph-name="Z.smcp" horiz-adv-x="1069" 
d="M1017 0h-886v206h886v-206zM243 0h-180v143l767 1022h173v-139zM914 958h-850v207h850v-207z" />
    <glyph glyph-name="zero.smcp" horiz-adv-x="1056" 
d="M970 474q0 -167 -55.5 -275.5t-154.5 -161.5t-231 -53q-131 0 -231 53t-156 161.5t-56 275.5v215q0 168 55.5 276.5t155 162t230.5 53.5q132 0 231.5 -53.5t155.5 -162t56 -276.5v-215zM713 709q0 139 -48.5 202t-137.5 63q-88 0 -136.5 -63t-48.5 -202v-252
q0 -142 49.5 -204.5t137.5 -62.5t136 62.5t48 204.5v252z" />
    <glyph glyph-name="one.smcp" horiz-adv-x="1056" 
d="M719 0h-256v863l-313 -78v204l541 175h28v-1164z" />
    <glyph glyph-name="two.smcp" horiz-adv-x="1056" 
d="M985 0h-895v174l424 394q96 85 134 149t38 109q0 65 -43.5 107t-124.5 42q-101 0 -149.5 -53.5t-48.5 -131.5h-257q0 107 53.5 196t154 142t239.5 53q205 0 319 -94.5t114 -257.5q0 -81 -34.5 -149.5t-100 -136t-158.5 -148.5l-231 -189h566v-206z" />
    <glyph glyph-name="three.smcp" horiz-adv-x="1056" 
d="M492 684q101 0 149.5 42t48.5 109q0 59 -42.5 99.5t-138.5 40.5q-50 0 -91 -14.5t-64.5 -41t-23.5 -64.5h-256q0 102 58 175t155.5 112t215.5 39q132 0 231.5 -37.5t155.5 -112t56 -182.5q0 -81 -49.5 -146t-141 -102.5t-219.5 -37.5h-172v121h128zM364 623h172
q144 0 239.5 -33t143.5 -99t48 -165q0 -109 -61 -185.5t-166 -116.5t-237 -40q-83 0 -162.5 20t-143.5 62.5t-102 109t-38 158.5h258q0 -40 24.5 -73t69.5 -52t105 -19q97 0 146.5 43t49.5 111q0 85 -58.5 122.5t-159.5 37.5h-128v119z" />
    <glyph glyph-name="four.smcp" horiz-adv-x="1056" 
d="M1007 247h-945l-12 165l548 753h201l-219 -358l-276 -353h703v-207zM857 0h-256v1165h256v-1165z" />
    <glyph glyph-name="five.smcp" horiz-adv-x="1056" 
d="M126 570l75 595h717v-208h-506l-33 -234q27 11 81.5 26.5t120.5 15.5q126 0 215.5 -45t136.5 -130.5t47 -205.5q0 -105 -47.5 -196t-145 -147.5t-248.5 -56.5q-112 0 -212 40t-163.5 116t-68.5 183h254q7 -71 58.5 -102t131.5 -31q67 0 107.5 26t58.5 71t18 100
q0 86 -53 140t-155 54q-77 0 -116.5 -20.5t-67.5 -40.5z" />
    <glyph glyph-name="six.smcp" horiz-adv-x="1056" 
d="M794 1182v-211h-15q-104 0 -184.5 -21t-135.5 -66.5t-83.5 -117t-28.5 -172.5v-173q0 -116 55.5 -173.5t143.5 -57.5q58 0 100.5 26t66 70t23.5 99q0 86 -49.5 136t-141.5 50q-61 0 -109.5 -23t-76.5 -58t-29 -71l-68 62q3 65 46 133t121.5 114.5t188.5 46.5
q125 0 207.5 -51.5t124 -139.5t41.5 -198q0 -114 -54 -205t-152.5 -144t-232.5 -53q-140 0 -243.5 55t-160.5 160t-57 253v78q0 158 45 280t131.5 204.5t210 125t279.5 42.5h37z" />
    <glyph glyph-name="seven.smcp" horiz-adv-x="1056" 
d="M979 1022l-508 -1022h-270l508 958h-654v207h924v-143z" />
    <glyph glyph-name="eight.smcp" horiz-adv-x="1056" 
d="M529 -16q-126 0 -226.5 37.5t-159 112.5t-58.5 186q0 102 57.5 175t157.5 112t227 39t227.5 -39t158.5 -112t58 -175q0 -111 -58 -186t-158 -112.5t-226 -37.5zM529 190q56 0 97.5 18t65 52.5t23.5 81.5q0 48 -24 81.5t-66 51.5t-98 18t-97.5 -18t-64.5 -51.5t-23 -81.5
q0 -71 51 -111.5t136 -40.5zM529 550q-121 0 -215 37.5t-147.5 106t-53.5 160.5q0 106 53.5 179t147 110.5t213.5 37.5q121 0 214.5 -37.5t147 -110.5t53.5 -179q0 -92 -53 -160.5t-146.5 -106t-213.5 -37.5zM529 699q50 0 85 17.5t53.5 49.5t18.5 73q0 42 -19 72t-54.5 47
t-85.5 17q-73 0 -114.5 -36t-41.5 -100q0 -63 41.5 -101.5t116.5 -38.5z" />
    <glyph glyph-name="nine.smcp" horiz-adv-x="1056" 
d="M301 193q104 0 180 18.5t125.5 59t73.5 105t24 157.5v221q0 113 -53.5 167t-133.5 54q-58 0 -99.5 -28.5t-63 -76.5t-21.5 -106q0 -56 21 -100.5t63 -70t105 -25.5q62 0 105.5 23t68 57.5t26.5 68.5l76 -59q-2 -69 -46 -134t-119.5 -106.5t-172.5 -41.5
q-123 0 -208.5 47.5t-130 135t-44.5 206.5q0 114 54 208.5t153 151t233 56.5q101 0 182.5 -31t139.5 -91.5t89 -149.5t31 -205v-74q0 -162 -41.5 -283t-124 -201t-205 -119.5t-284.5 -39.5h-21v206h18z" />
    <glyph glyph-name="zero.sup" horiz-adv-x="760" 
d="M684 315q0 -167 -84.5 -246.5t-218.5 -79.5q-136 0 -221.5 79.5t-85.5 246.5v157q0 167 84.5 247.5t220.5 80.5q135 0 220 -80.5t85 -247.5v-157zM494 482q0 88 -30.5 126t-84.5 38t-84 -38t-30 -126v-176q0 -90 30.5 -127t85.5 -37q53 0 83 37t30 127v176z" />
    <glyph glyph-name="one.sup" horiz-adv-x="760" 
d="M518 0h-189v566l-197 -47v149l368 119h18v-787z" />
    <glyph glyph-name="two.sup" horiz-adv-x="760" 
d="M691 0h-614v129l288 261q59 53 84.5 96t25.5 69q0 42 -27 67.5t-78 25.5q-61 0 -90.5 -35t-29.5 -83h-191q0 75 37 136t105 97.5t162 36.5q143 0 222.5 -64.5t79.5 -179.5q0 -57 -24 -103t-70 -92.5t-114 -102.5l-132 -106h366v-152z" />
    <glyph glyph-name="three.sup" horiz-adv-x="760" 
d="M358 467q62 0 92.5 26t30.5 69q0 33 -26.5 59.5t-87.5 26.5q-46 0 -78.5 -19t-32.5 -52h-191q0 72 41 121.5t108.5 75.5t147.5 26q137 0 223 -57t86 -168q0 -59 -36 -102t-99 -67t-147 -24h-119v85h88zM270 421h119q93 0 159 -20t101.5 -64t35.5 -116
q0 -111 -92.5 -171.5t-230.5 -60.5q-74 0 -145.5 24.5t-117.5 78t-46 140.5h191q0 -37 34.5 -63.5t93.5 -26.5q63 0 92.5 27.5t29.5 67.5q0 55 -36 77.5t-100 22.5h-88v84z" />
    <glyph glyph-name="four.sup" horiz-adv-x="760" 
d="M703 163h-639l-10 124l363 502h150l-163 -259l-166 -212h465v-155zM609 0h-191v789h191v-789z" />
    <glyph glyph-name="five.sup" horiz-adv-x="760" 
d="M96 384l52 405h495v-152h-339l-22 -146q16 6 53.5 16.5t80.5 10.5q131 0 201 -66.5t70 -188.5q0 -70 -33 -132.5t-100 -102t-171 -39.5q-77 0 -146.5 28t-113.5 80t-46 124h189q3 -43 34.5 -61t82.5 -18q65 0 89 36.5t24 85.5q0 55 -32 88.5t-97 33.5q-52 0 -78 -14
t-42 -26z" />
    <glyph glyph-name="six.sup" horiz-adv-x="760" 
d="M565 803v-156h-11q-86 0 -151 -21.5t-101 -75.5t-36 -152v-118q0 -71 33 -104.5t92 -33.5q53 0 86 35t33 86q0 55 -31.5 83t-88.5 28q-41 0 -71.5 -14t-47 -34.5t-17.5 -39.5l-50 31q1 46 29.5 94t82.5 81.5t132 33.5q124 0 188 -74.5t64 -189.5q0 -78 -38.5 -140
t-106.5 -97.5t-159 -35.5q-94 0 -166 35.5t-113 106.5t-41 177v53q0 115 34.5 198.5t96.5 137.5t145.5 80t182.5 26h30z" />
    <glyph glyph-name="seven.sup" horiz-adv-x="760" 
d="M687 682l-337 -682h-201l338 636h-433v153h633v-107z" />
    <glyph glyph-name="eight.sup" horiz-adv-x="760" 
d="M380 -11q-130 0 -218 57.5t-88 171.5q0 105 87.5 163t217.5 58q132 0 219 -58t87 -163q0 -114 -86.5 -171.5t-218.5 -57.5zM380 142q52 0 83.5 25t31.5 68q0 45 -32 68t-84 23q-51 0 -82.5 -23t-31.5 -68q0 -43 32 -68t83 -25zM380 370q-125 0 -206 56.5t-81 151.5
q0 109 80.5 165.5t205.5 56.5t206 -56.5t81 -165.5q0 -95 -80 -151.5t-206 -56.5zM380 480q47 0 71.5 23.5t24.5 61.5q0 39 -25 61t-72 22q-46 0 -71 -22t-25 -61q0 -38 25.5 -61.5t71.5 -23.5z" />
    <glyph glyph-name="nine.sup" horiz-adv-x="760" 
d="M227 141q88 0 146 19t87 67t29 133v155q0 69 -32 100.5t-84 31.5t-82.5 -39.5t-30.5 -94.5q0 -54 30 -86t90 -32q40 0 66.5 13.5t40.5 33t15 36.5l57 -26q0 -51 -31 -96.5t-83 -74t-114 -28.5q-82 0 -140.5 30.5t-90 89.5t-31.5 142q0 78 39 142.5t107 103.5t158 39
q88 0 157.5 -34.5t109 -106.5t39.5 -182v-54q0 -118 -31.5 -201t-91 -134t-142.5 -75t-185 -24h-16v152h14z" />
    <glyph glyph-name="periodcentered.loclCAT" horiz-adv-x="492" 
d="M246 559q-69 0 -108.5 40t-39.5 99q0 60 39.5 100.5t108.5 40.5t108.5 -40.5t39.5 -100.5q0 -59 -39.5 -99t-108.5 -40z" />
    <glyph glyph-name="periodcentered.loclCAT.case" horiz-adv-x="578" 
d="M280 559q-69 0 -108.5 40t-39.5 99q0 60 39.5 100.5t108.5 40.5t108.5 -40.5t39.5 -100.5q0 -59 -39.5 -99t-108.5 -40z" />
    <glyph glyph-name="ampersand.smcp" horiz-adv-x="1302" 
d="M516 -18q-196 0 -310.5 87.5t-114.5 219.5q0 101 54 168t147 129l263 174q53 35 71.5 64.5t18.5 61.5q0 39 -31.5 68t-87.5 29q-57 0 -85.5 -32.5t-28.5 -71.5q0 -47 39.5 -90.5t94.5 -99.5l675 -689h-281l-563 573q-57 59 -100.5 108t-68 101.5t-24.5 120.5q0 76 41 139
t118 101t184 38q106 0 184 -37.5t121 -102t43 -148.5q0 -53 -21.5 -100.5t-58.5 -87t-84 -70.5l-287 -193q-32 -21 -48.5 -42.5t-22.5 -42t-6 -38.5q0 -60 46 -95.5t132 -35.5q128 0 218 49.5t136.5 137.5t46.5 202h223q0 -134 -45 -237t-121 -178q-15 -14 -28 -28.5
t-30 -25.5q-81 -61 -185 -93.5t-224 -32.5z" />
    <glyph glyph-name="dollar.smcp" horiz-adv-x="1084" 
d="M640 1085h-158v310h158v-310zM640 -237h-158v310h158v-310zM559 -16q-91 0 -180 22.5t-160.5 68.5t-114.5 118t-43 171h258q0 -50 17 -85.5t49.5 -58t79 -33t104.5 -10.5q70 0 113 19t63 49t20 63q0 42 -20.5 72.5t-72 55t-143.5 45.5q-141 34 -236 79.5t-143.5 114
t-48.5 170.5q0 100 57 175.5t157 118t230 42.5q141 0 246.5 -45t163.5 -126t58 -190h-256q0 69 -53.5 118t-159.5 49q-101 0 -148.5 -41.5t-47.5 -92.5q0 -37 23.5 -65t76.5 -50.5t141 -45.5q140 -32 234 -80.5t141.5 -120.5t47.5 -176t-56 -178t-158 -113.5t-239 -39.5z
" />
    <glyph glyph-name="Euro.smcp" horiz-adv-x="1018" 
d="M721 -16q-158 0 -271 58.5t-173.5 169.5t-60.5 267v193q0 162 60 276t172.5 174.5t270.5 60.5q63 0 115.5 -8.5t112.5 -24.5l-22 -201q-52 15 -99.5 21.5t-106.5 6.5q-128 0 -187 -77t-59 -226v-195q0 -144 60 -216.5t188 -72.5q59 0 104 8t97 20l24 -203
q-56 -15 -109.5 -23t-115.5 -8zM70 383v153h783v-153h-783zM70 623v153h783v-153h-783z" />
    <glyph glyph-name="sterling.smcp" horiz-adv-x="1141" 
d="M128 0v207h934l-1 -207h-933zM852 484h-792v153h792v-153zM479 494q5 -84 -16 -157t-67 -129.5t-116 -93.5l-142 93q27 7 44 35t26 69t12 86.5t1 86.5l-8 251q-7 212 105 329t301 117q140 0 232.5 -50.5t138.5 -141.5t46 -213h-257q0 109 -45.5 153.5t-112.5 44.5
q-74 0 -115 -61t-36 -178z" />
    <glyph glyph-name="yen.smcp" horiz-adv-x="933" 
d="M859 442h-793v153h793v-153zM859 219h-793v153h793v-153zM655 1165h269l-345 -781h-143l-25 138zM526 516l-31 -132h-141l-345 781h271zM591 0h-256v548h256v-548z" />
    <glyph glyph-name="uni030C.alt" 
d="M160 1601h249l-156 -421h-179z" />
    </font>
</defs>
</svg>
